<svg id="Layer_1" data-name="Layer 1" xmlns="http://www.w3.org/2000/svg" xmlns:xlink="http://www.w3.org/1999/xlink" viewBox="0 0 100 100"><defs><style>.cls-1{fill:url(#linear-gradient);}.cls-2{fill:#fff;fill-rule:evenodd;}</style><linearGradient id="linear-gradient" x1="4.26" y1="95.74" x2="95.74" y2="4.26" gradientUnits="userSpaceOnUse"><stop offset="0" stop-color="#01a766"/><stop offset="0.98" stop-color="#02bc73"/></linearGradient></defs><path class="cls-1" d="M85.46,100H14.54A14.54,14.54,0,0,1,0,85.46V14.54A14.54,14.54,0,0,1,14.54,0H85.46A14.54,14.54,0,0,1,100,14.54V85.46A14.54,14.54,0,0,1,85.46,100Z"/><path class="cls-2" d="M25.7,65.51V48.61H37.47c8.86,0,16.27-4.71,22.14-14.13L74.3,43.31Q67.19,54.4,58.61,60c-5.72,3.75-12.09,5.5-21.11,5.5Z"/></svg>