<?xml version="1.0" encoding="UTF-8"?>
<svg width="121px" height="120px" viewBox="0 0 121 120" version="1.1" xmlns="http://www.w3.org/2000/svg" xmlns:xlink="http://www.w3.org/1999/xlink">
    <title>adobe</title>
    <defs>
        <radialGradient cx="50%" cy="50%" fx="50%" fy="50%" r="45.0195312%" id="radialGradient-1">
            <stop stop-color="#FF0000" offset="0%"></stop>
            <stop stop-color="#FFD300" offset="100%"></stop>
        </radialGradient>
        <linearGradient x1="13.8323351%" y1="88.7174479%" x2="90.4534288%" y2="9.10807292%" id="linearGradient-2">
            <stop stop-color="#4F78F4" offset="0%"></stop>
            <stop stop-color="#FFFFFF" stop-opacity="0" offset="49.7159091%"></stop>
            <stop stop-color="#E52030" offset="100%"></stop>
        </linearGradient>
        <linearGradient x1="87.3544705%" y1="87.9101563%" x2="11.5243924%" y2="14.0234375%" id="linearGradient-3">
            <stop stop-color="#4FF47C" offset="0%"></stop>
            <stop stop-color="#FFFFFF" stop-opacity="0" offset="49.7159091%"></stop>
            <stop stop-color="#FF00C2" offset="100%"></stop>
        </linearGradient>
        <path d="M113.34,0 L6.67333333,0 C2.99,0 0.00666666667,2.98333333 0.00666666667,6.66666667 L0.00666666667,113.333333 C0.00666666667,117.016667 2.99,120 6.67333333,120 L113.34,120 C117.023333,120 120.006667,117.016667 120.006667,113.333333 L120.006667,6.66666667 C120.006667,2.98666667 117.02,0 113.34,0 Z" id="path-4"></path>
        <path d="M103.34,56.92 L103.34,59.7466667 C103.313333,59.9 103.28,60.05 103.26,60.2033333 C103.113333,61.4333333 103.016667,62.67 102.813333,63.89 C102.146667,67.8566667 100.706667,71.5433333 98.5666667,74.9533333 C95.3166667,80.13 90.9233333,84.0766667 85.4033333,86.7733333 C82.2166667,88.3366667 78.78,89.34 75.25,89.7433333 C74.4666667,89.8333333 73.68,89.9133333 72.8966667,90 L42.45,90 C42.2966667,89.9733333 42.1433333,89.9266667 41.99,89.9166667 C38.92,89.7266667 35.9666667,89.0333333 33.15,87.81 C27.02,85.1533333 22.45,80.8466667 19.46,74.9166667 C18.1366667,72.3033333 17.2833333,69.48 16.93,66.5766667 C16.8433333,65.87 16.76,65.1666667 16.6733333,64.46 L16.6733333,61.7166667 C16.7033333,61.5633333 16.7466667,61.4133333 16.7566667,61.26 C16.9166667,58.6233333 17.46,56.0666667 18.4233333,53.6066667 C21.01,46.99 25.5166667,42.08 31.9233333,38.9033333 C35.2466667,37.2533333 38.79,36.3866667 42.4933333,36.1966667 C44.3066667,36.1033333 46.12,36.2033333 47.9233333,36.4433333 C48.0866667,36.4666667 48.3233333,36.3933333 48.4366667,36.2766667 C51.03,33.6533333 53.9833333,31.52 57.31,29.9066667 C60.54,28.34 63.9366667,27.33 67.5133333,26.9266667 C68.3566667,26.83 69.2,26.7533333 70.0433333,26.6666667 L72.64,26.6666667 C72.81,26.6933333 72.98,26.7233333 73.15,26.7433333 C74.4366667,26.8933333 75.73,26.9866667 77.0033333,27.1966667 C80.9766667,27.8566667 84.6766667,29.27 88.1,31.37 C93.35,34.59 97.35,38.95 100.083333,44.4366667 C101.663333,47.5966667 102.68,51.0033333 103.083333,54.5066667 C103.173333,55.31 103.253333,56.1166667 103.34,56.92 M54.88,38.63 C54.9333333,38.6966667 54.9433333,38.73 54.9666667,38.74 C56.75,39.61 58.4533333,40.63 60.06,41.79 C60.16,41.8633333 60.4133333,41.8333333 60.5366667,41.7566667 C64.95,38.9866667 69.7366667,38.03 74.8766667,38.9333333 C79.9133333,39.8166667 84.0133333,42.31 87.1433333,46.2933333 C90.69,50.8 92.04,55.8966667 91.0633333,61.5666667 C90.4066667,65.3666667 88.87,68.7766667 86.26,71.6333333 C81.4966667,76.84 75.5266667,78.9933333 68.5033333,78.0833333 C64.18,77.5233333 60.4466667,75.6733333 57.3566667,72.58 C53.39,68.61 49.4,64.67 45.4233333,60.71 C44.8933333,60.1833333 44.3033333,59.76 43.54,59.6666667 C42.2066667,59.5033333 40.9966667,60.1633333 40.42,61.35 C39.9066667,62.41 39.9733333,63.6033333 41.0866667,64.69 C45.52,69.0033333 49.9133333,73.3533333 54.3433333,77.67 C55.1,78.4133333 55.9133333,79.0966667 56.7733333,79.72 C60.0066667,82.0466667 63.6566667,83.3333333 67.6033333,83.8533333 C70.7033333,84.26 73.78,84.1733333 76.83,83.4933333 C82.6533333,82.1966667 87.4733333,79.2533333 91.2733333,74.71 C94.41,70.9566667 96.3066667,66.6433333 96.9666667,61.8 C97.35,59.0366667 97.27,56.2333333 96.73,53.4966667 C95.85,49.0233333 93.94,45.02 90.8766667,41.6133333 C85.0366667,35.1166667 77.69,32.2166667 68.9466667,32.8633333 C65.5833333,33.1133333 62.4033333,34.09 59.41,35.6433333 C57.8,36.47 56.28,37.4733333 54.88,38.63 M52.7433333,83.9833333 C52.6233333,83.8733333 52.5033333,83.7633333 52.3833333,83.65 C50.57,81.9533333 48.7466667,80.27 46.9566667,78.5533333 C46.61,78.22 46.29,78.06 45.8,78.07 C43.9866667,78.1133333 42.17,78.12 40.3833333,77.72 C31.4966667,75.73 26.3333333,66.1533333 29.61,57.73 C32.1933333,51.0866667 39.3466667,47.0433333 46.4,48.29 C49.56,48.85 52.3366667,50.1733333 54.6133333,52.5033333 C57.39,55.3433333 60.25,58.1033333 63.06,60.9166667 C63.7,61.5566667 64.4333333,61.85 65.3166667,61.7233333 C66.46,61.56 67.3733333,61.02 67.7866667,59.91 C68.1933333,58.8166667 67.9966667,57.78 67.16,56.94 C64.2133333,53.9833333 61.3366667,50.95 58.27,48.12 C52.3233333,42.6266667 45.3133333,40.99 37.5566667,43.3266667 C27.1266667,46.4666667 21.02,57.14 23.4033333,67.67 C25.5766667,77.2633333 34.0433333,84 43.9533333,84.0066667 C46.72,84.01 49.4866667,84.0066667 52.2533333,84.0066667 C52.3933333,84.0066667 52.53,83.9966667 52.7433333,83.9833333" id="path-5"></path>
        <filter x="-26.0%" y="-35.5%" width="151.9%" height="171.1%" filterUnits="objectBoundingBox" id="filter-6">
            <feOffset dx="0" dy="0" in="SourceAlpha" result="shadowOffsetOuter1"></feOffset>
            <feGaussianBlur stdDeviation="7.5" in="shadowOffsetOuter1" result="shadowBlurOuter1"></feGaussianBlur>
            <feColorMatrix values="0 0 0 0 1   0 0 0 0 0   0 0 0 0 0  0 0 0 0.5 0" type="matrix" in="shadowBlurOuter1"></feColorMatrix>
        </filter>
    </defs>
    <g id="Page-1" stroke="none" stroke-width="1" fill="none" fill-rule="evenodd">
        <g id="Artboard" transform="translate(-645.000000, -1589.000000)" fill-rule="nonzero">
            <g id="adobe" transform="translate(645.000000, 1589.000000)">
                <g id="Path">
                    <use fill="url(#radialGradient-1)" xlink:href="#path-4"></use>
                    <use fill="url(#linearGradient-2)" xlink:href="#path-4"></use>
                    <use fill="url(#linearGradient-3)" xlink:href="#path-4"></use>
                </g>
                <g id="Shape">
                    <use fill="black" fill-opacity="1" filter="url(#filter-6)" xlink:href="#path-5"></use>
                    <use fill="#FFFFFF" xlink:href="#path-5"></use>
                </g>
            </g>
        </g>
    </g>
</svg>