<?xml version="1.0" encoding="UTF-8"?>
<svg width="1728px" height="843px" viewBox="0 0 1728 843" version="1.1" xmlns="http://www.w3.org/2000/svg" xmlns:xlink="http://www.w3.org/1999/xlink">
    <title>banner</title>
    <defs>
        <linearGradient x1="0%" y1="38.1103739%" x2="100%" y2="60.9380095%" id="linearGradient-1">
            <stop stop-color="#363452" offset="0%"></stop>
            <stop stop-color="#1B1932" offset="100%"></stop>
        </linearGradient>
        <path d="M710.685775,705.201193 C829.288075,681.132368 952.799148,679.67845 1071.21431,704.639779 C1186.28978,728.83816 1305.61184,787.858603 1419.31976,817.843867 C1520.15835,844.446252 1630.25307,855.401022 1727.86712,822.162436 L1727.86712,0.439522998 L0.439522998,0.439522998 L0.439522998,723.583901 C147.941176,779.515357 307.940596,793.997398 463.087819,765.459625 C546.580153,749.927172 627.423765,722.086797 710.685775,705.201193 Z" id="path-2"></path>
        <linearGradient x1="0%" y1="38.1103739%" x2="100%" y2="60.9380095%" id="linearGradient-4">
            <stop stop-color="#CAFFF8" offset="0%"></stop>
            <stop stop-color="#D7FFC6" offset="100%"></stop>
        </linearGradient>
        <linearGradient x1="0%" y1="45.4958066%" x2="100%" y2="54.1436888%" id="linearGradient-5">
            <stop stop-color="#FFB7B7" offset="0%"></stop>
            <stop stop-color="#9CFFF3" offset="100%"></stop>
        </linearGradient>
        <path d="M1727.86712,0.439522998 L1727.86712,795.090694 C1681.73014,763.954446 1639.80454,725.128832 1602.49459,684.01258 C1577.79698,656.800851 1554.18388,626.912499 1530.84627,596.145793 L1526.18218,589.981273 L1526.18218,589.981273 L1521.524,583.796528 L1521.524,583.796528 L1516.8703,577.594753 L1516.8703,577.594753 L1507.57054,565.152905 L1507.57054,565.152905 L1491.29054,543.323464 L1485.28085,535.285348 L1485.28085,535.285348 L1481.26836,529.933454 L1481.26836,529.933454 L1475.2383,521.920964 L1475.2383,521.920964 L1471.20938,516.592502 L1471.20938,516.592502 L1467.17229,511.276965 L1467.17229,511.276965 L1463.1261,505.976387 C1462.45093,505.094317 1461.77534,504.212954 1461.09932,503.332342 L1457.03779,498.058008 C1429.92406,462.960308 1402.05226,429.198276 1372.20416,399.479825 C1286.48776,314.051974 1182.1108,248.002381 1069.53372,203.592753 C1037.84102,191.085755 1005.51493,180.268258 973.098552,169.70385 L963.834743,166.691094 L963.834743,166.691094 L944.911603,160.549708 L944.911603,160.549708 L932.37086,156.460959 C897.551235,145.063592 862.890017,133.263807 829.061507,119.278216 C756.084267,88.9343117 687.966823,48.870715 626.431523,0.439522998 L1727.86712,0.439522998 Z" id="path-6"></path>
        <filter x="-7.4%" y="-9.2%" width="112.9%" height="117.9%" filterUnits="objectBoundingBox" id="filter-7">
            <feOffset dx="-10" dy="-2" in="SourceAlpha" result="shadowOffsetOuter1"></feOffset>
            <feGaussianBlur stdDeviation="22" in="shadowOffsetOuter1" result="shadowBlurOuter1"></feGaussianBlur>
            <feColorMatrix values="0 0 0 0 0   0 0 0 0 0   0 0 0 0 0  0 0 0 0.224022072 0" type="matrix" in="shadowBlurOuter1"></feColorMatrix>
        </filter>
        <linearGradient x1="0.667454399%" y1="0%" x2="99.3325456%" y2="95.9981222%" id="linearGradient-8">
            <stop stop-color="#FFB7B7" offset="0%"></stop>
            <stop stop-color="#9CFFF3" offset="100%"></stop>
        </linearGradient>
        <path d="M576.482946,0.432058331 C617.233136,65.2486516 640.802332,141.958329 640.802332,224.172886 C640.802332,456.656055 452.337486,645.120901 219.854318,645.120901 C139.457861,645.120901 64.3255055,622.582602 0.430950324,583.479701 L0.439522998,0.439522998 L576.482946,0.432058331 Z" id="path-9"></path>
        <filter x="-10.2%" y="-10.0%" width="121.1%" height="120.9%" filterUnits="objectBoundingBox" id="filter-10">
            <feOffset dx="2" dy="3" in="SourceAlpha" result="shadowOffsetOuter1"></feOffset>
            <feGaussianBlur stdDeviation="22" in="shadowOffsetOuter1" result="shadowBlurOuter1"></feGaussianBlur>
            <feColorMatrix values="0 0 0 0 0   0 0 0 0 0   0 0 0 0 0  0 0 0 0.224022072 0" type="matrix" in="shadowBlurOuter1"></feColorMatrix>
        </filter>
    </defs>
    <g id="Page-1" stroke="none" stroke-width="1" fill="none" fill-rule="evenodd">
        <g id="Artboard" transform="translate(-1.000000, -1.000000)">
            <g id="banner" transform="translate(1.000000, 1.000000)">
                <mask id="mask-3" fill="white">
                    <use xlink:href="#path-2"></use>
                </mask>
                <use id="Path" fill="url(#linearGradient-1)" fill-rule="nonzero" xlink:href="#path-2"></use>
                <g opacity="0.144461496" style="mix-blend-mode: lighten;" mask="url(#mask-3)">
                    <path d="M710.685775,705.201193 C829.288075,681.132368 952.799148,679.67845 1071.21431,704.639779 C1186.28978,728.83816 1305.61184,787.858603 1419.31976,817.843867 C1520.15835,844.446252 1630.25307,855.401022 1727.86712,822.162436 L1727.86712,0.439522998 L0.439522998,0.439522998 L0.439522998,723.583901 C147.941176,779.515357 307.940596,793.997398 463.087819,765.459625 C546.580153,749.927172 627.423765,722.086797 710.685775,705.201193 Z" id="Path-Copy" fill="url(#linearGradient-4)" fill-rule="nonzero"></path>
                    <path d="M0.439522998,344.971641 C98.0535775,311.733055 208.148296,322.687825 308.986882,349.29021 C344.154281,358.564003 379.858689,370.615101 415.808393,383.554387 L423.001518,386.153527 C424.200888,386.588505 425.40051,387.024329 426.600371,387.46093 L433.802336,390.0893 L433.802336,390.0893 L444.614954,394.059473 L444.614954,394.059473 L459.04711,399.386958 L459.04711,399.386958 L477.10611,406.063046 L477.10611,406.063046 L487.948428,410.057473 L487.948428,410.057473 L495.178441,412.70875 L495.178441,412.70875 L502.409292,415.346769 L502.409292,415.346769 L509.64046,417.968172 L509.64046,417.968172 L516.871428,420.5696 C563.870944,437.40669 610.824878,452.765053 657.092334,462.494299 C775.507496,487.455628 899.018569,486.001709 1017.62087,461.932885 C1049.29663,455.509014 1080.62238,447.499651 1111.87711,439.185656 L1121.25168,436.683599 L1121.25168,436.683599 L1149.03182,429.234113 L1149.03182,429.234113 L1157.58745,426.952695 C1193.24181,417.476052 1228.98083,408.415968 1265.21882,401.674452 C1418.81458,373.422057 1577.16596,387.333382 1723.43834,441.884669 L1727.86712,443.550176 L1727.86712,822.162436 C1630.25307,855.401022 1520.15835,844.446252 1419.31976,817.843867 C1382.98012,808.260948 1346.06706,795.712484 1308.90247,782.282871 L1301.70627,779.673148 C1300.50641,779.236546 1299.30631,778.799168 1298.10598,778.361083 L1290.90133,775.724649 L1290.90133,775.724649 L1280.08516,771.745528 L1280.08516,771.745528 L1269.25953,767.747119 L1269.25953,767.747119 L1258.42619,763.740759 L1258.42619,763.740759 L1248.03068,759.901433 L1248.03068,759.901433 L1241.68993,757.566177 L1241.68993,757.566177 L1235.34806,755.238061 L1235.34806,755.238061 L1229.00542,752.919354 L1229.00542,752.919354 L1222.66236,750.612321 L1222.66236,750.612321 L1216.31924,748.319231 C1215.26207,747.938337 1214.20491,747.558118 1213.14777,747.178622 L1206.8052,744.910694 C1204.69113,744.15786 1202.57719,743.408294 1200.46345,742.662374 L1194.12285,740.435931 C1152.91351,726.040054 1111.7998,713.174205 1071.21431,704.639779 C952.799148,679.67845 829.288075,681.132368 710.685775,705.201193 C677.727896,711.885078 645.148941,720.2854 612.634645,728.959391 L602.368755,731.70596 L602.368755,731.70596 L586.973169,735.837841 L586.973169,735.837841 L576.708403,738.585722 C539.066043,748.636025 501.355139,758.340584 463.087819,765.459625 C309.492069,793.71202 151.140679,779.800696 4.86830456,725.249408 L0.439522998,723.583901 L0.439522998,344.971641 Z" id="Path" fill="url(#linearGradient-5)" fill-rule="nonzero"></path>
                    <g id="Path" fill-rule="nonzero">
                        <use fill="black" fill-opacity="1" filter="url(#filter-7)" xlink:href="#path-6"></use>
                        <use fill="#FFFFFF" xlink:href="#path-6"></use>
                    </g>
                    <g id="Path">
                        <use fill="black" fill-opacity="1" filter="url(#filter-10)" xlink:href="#path-9"></use>
                        <use fill="url(#linearGradient-8)" fill-rule="evenodd" xlink:href="#path-9"></use>
                    </g>
                    <path d="M346.801037,0.439522998 C337.909445,136.286053 224.906318,243.71891 86.8109029,243.71891 C56.5369277,243.71891 27.4688785,238.555727 0.439292036,229.061898 L0.439292036,0.439522998 L346.801037,0.439522998 Z" id="Path" fill="#FFFFFF"></path>
                    <path d="M1727.86899,0.439522998 L1727.86899,167.859738 C1705.22337,183.018755 1677.99078,191.859335 1648.69336,191.859335 C1569.98572,191.859335 1506.18058,128.054192 1506.18058,49.3465585 C1506.18058,32.163587 1509.22159,15.6908826 1514.79479,0.4372799 L1727.86899,0.439522998 Z" id="Path" fill="#FFFFFF"></path>
                </g>
            </g>
        </g>
    </g>
</svg>