<?xml version="1.0" encoding="UTF-8"?>
<svg width="448px" height="45px" viewBox="0 0 448 45" version="1.1" xmlns="http://www.w3.org/2000/svg" xmlns:xlink="http://www.w3.org/1999/xlink">
    <title>caller-id-logo</title>
    <g id="Page-1" stroke="none" stroke-width="1" fill="none" fill-rule="evenodd">
        <g id="Artboard" transform="translate(-192.000000, -8448.000000)">
            <g id="caller-id-logo" transform="translate(192.111111, 8448.573291)">
                <path d="M25.8929757,4.53622361 C21.7217632,4.53622361 18.3406076,7.91737917 18.3406076,12.0885917 C18.3406076,16.2598042 21.7217632,19.6409597 25.8929757,19.6409597 C30.0641882,19.6409597 33.4453438,16.2598042 33.4453438,12.0885917 C33.4453438,7.91737917 30.0641882,4.53622361 25.8929757,4.53622361 M9.71001597,11.0091674 C6.73109306,11.0091674 4.31529583,13.4249646 4.31529583,16.4038875 C4.31529583,19.3828104 6.73109306,21.7986076 9.71001597,21.7986076 C11.1400431,21.7986076 12.5124368,21.2294785 13.5246222,20.2184938 C14.5356069,19.2063083 15.1047361,17.8351153 15.1047361,16.4038875 C15.1047361,14.9726597 14.5356069,13.6014667 13.5246222,12.5892813 C12.5124368,11.5782965 11.1400431,11.0091674 9.71001597,11.0091674 M42.0759354,11.0091674 C39.0970125,11.0091674 36.6812153,13.4249646 36.6812153,16.4038875 C36.6812153,19.3828104 39.0970125,21.7986076 42.0759354,21.7986076 C43.5071632,21.7986076 44.8783563,21.2294785 45.8905417,20.2184938 C46.9015264,19.2063083 47.4706556,17.8351153 47.4706556,16.4038875 C47.4706556,13.4249646 45.0548583,11.0091674 42.0759354,11.0091674 M25.8929757,23.9562556 C20.8524604,23.9562556 10.7882396,26.4873194 10.7882396,31.5086236 L10.7882396,36.9021431 C10.7882396,38.0932319 11.7559993,39.059791 12.9458875,39.059791 L38.8400639,39.059791 C40.0299521,39.059791 40.9977118,38.0932319 40.9977118,36.9021431 L40.9977118,31.5086236 C40.9977118,26.4873194 30.933491,23.9562556 25.8929757,23.9562556 M8.41206528,26.2279694 C5.00089236,26.7538736 6.39858537e-14,29.1108368 6.39858537e-14,31.9504792 L6.39858537e-14,36.9021431 C6.39858537e-14,38.0932319 0.966559028,39.059791 2.15764792,39.059791 L6.47294375,39.059791 L6.47294375,31.5086236 C6.47294375,29.4350243 7.218575,27.6952181 8.41206528,26.2279694 M43.3738861,26.2279694 C44.5673764,27.6952181 45.3130076,29.4350243 45.3130076,31.5086236 L45.3130076,39.059791 L49.6283035,39.059791 C50.8193924,39.059791 51.7859514,38.0932319 51.7859514,36.9021431 L51.7859514,31.9504792 C51.7859514,29.1108368 46.785059,26.7538736 43.3738861,26.2279694" id="Fill-1" fill="#B620E0"></path>
                <path d="M85.8304417,43.5960146 C94.9941417,43.5960146 101.464684,38.6479528 102.958348,30.4207944 L98.9468278,30.4207944 C97.6885,36.2765813 92.5939535,39.8774639 85.8592583,39.8774639 C76.8708597,39.8774639 71.1027236,32.8209826 71.1027236,21.6953479 C71.1027236,10.7161979 76.8708597,3.71855069 85.8304417,3.71855069 C92.3886347,3.71855069 97.7761507,7.99302292 98.9468278,14.0829451 L102.958348,14.0829451 C101.816488,5.82697014 94.7600063,1.36503154e-13 85.8304417,1.36503154e-13 C74.3530035,1.36503154e-13 67.0047535,8.46129375 67.0047535,21.6953479 C67.0047535,35.0758868 74.3241868,43.5960146 85.8304417,43.5960146 L85.8304417,43.5960146 Z M110.688419,6.14875625 C112.123249,6.14875625 113.293926,5.00689583 113.293926,3.57206597 C113.293926,2.13723611 112.123249,0.995375694 110.688419,0.995375694 C109.282406,0.995375694 108.111728,2.13723611 108.111728,3.57206597 C108.111728,5.00689583 109.282406,6.14875625 110.688419,6.14875625 L110.688419,6.14875625 Z M108.755301,42.922425 L112.620336,42.922425 L112.620336,12.4728139 L108.755301,12.4728139 L108.755301,42.922425 Z M121.228115,4.86041111 L121.228115,12.4728139 L116.69069,12.4728139 L116.69069,15.6930764 L121.228115,15.6930764 L121.228115,35.4276903 C121.228115,40.9316736 123.2777,43.0977264 128.372247,43.0977264 C129.192321,43.0977264 130.831269,43.0100757 131.241906,42.922425 L131.241906,39.6145118 C131.007771,39.6721451 129.542924,39.7309792 129.133487,39.7309792 C126.322661,39.7309792 125.09315,38.3850007 125.09315,35.2511882 L125.09315,15.6930764 L131.095422,15.6930764 L131.095422,12.4728139 L125.09315,12.4728139 L125.09315,4.86041111 L121.228115,4.86041111 Z M138.795475,6.14875625 C140.230305,6.14875625 141.400982,5.00689583 141.400982,3.57206597 C141.400982,2.13723611 140.230305,0.995375694 138.795475,0.995375694 C137.390663,0.995375694 136.218785,2.13723611 136.218785,3.57206597 C136.218785,5.00689583 137.390663,6.14875625 138.795475,6.14875625 L138.795475,6.14875625 Z M136.863558,42.922425 L140.728593,42.922425 L140.728593,12.4728139 L136.863558,12.4728139 L136.863558,42.922425 Z M146.672031,42.922425 L169.30392,42.922425 L169.30392,39.7021625 L151.121804,39.7021625 L151.121804,39.6145118 L169.245086,15.4001069 L169.245086,12.4728139 L146.672031,12.4728139 L146.672031,15.6930764 L164.795313,15.6930764 L164.795313,15.7807271 L146.672031,40.0527653 L146.672031,42.922425 Z M195.010788,34.2858299 C194.161897,37.6237604 190.970451,40.0239486 186.372992,40.0239486 C180.313088,40.0239486 176.418035,35.7494764 176.418035,28.8682965 L176.418035,28.6341611 L199.226426,28.6341611 L199.226426,26.9952132 C199.226426,17.9191639 194.13188,11.9745257 186.051206,11.9745257 C177.795231,11.9745257 172.436532,18.3286007 172.436532,27.7852701 C172.436532,37.4472583 177.736397,43.4207132 186.285342,43.4207132 C192.990019,43.4207132 197.938081,39.5556778 198.845806,34.2858299 L195.010788,34.2858299 Z M185.992372,15.3712903 C191.497556,15.3712903 195.157273,19.5581118 195.244924,25.5603833 L176.448052,25.5603833 C176.769838,19.5581118 180.547223,15.3712903 185.992372,15.3712903 L185.992372,15.3712903 Z M204.408624,42.922425 L208.273659,42.922425 L208.273659,24.8867938 C208.273659,19.2363257 211.816908,15.4301243 217.086756,15.4301243 C222.181303,15.4301243 225.108596,18.4750854 225.108596,23.8037674 L225.108596,42.922425 L228.973631,42.922425 L228.973631,23.1890118 C228.973631,16.2790153 224.87446,11.9745257 218.1998,11.9745257 C213.280555,11.9745257 209.708489,14.4047313 208.157192,18.0944653 L208.06834,18.0944653 L208.06834,12.4728139 L204.408624,12.4728139 L204.408624,42.922425 Z M265.513165,43.5960146 C274.678065,43.5960146 281.148608,38.6479528 282.641071,30.4207944 L278.630751,30.4207944 C277.371223,36.2765813 272.276676,39.8774639 265.543182,39.8774639 C256.554783,39.8774639 250.786647,32.8209826 250.786647,21.6953479 C250.786647,10.7161979 256.554783,3.71855069 265.513165,3.71855069 C272.071358,3.71855069 277.458874,7.99302292 278.630751,14.0829451 L282.641071,14.0829451 C281.49921,5.82697014 274.44393,1.36503154e-13 265.513165,1.36503154e-13 C254.035726,1.36503154e-13 246.687476,8.46129375 246.687476,21.6953479 C246.687476,35.0758868 254.00691,43.5960146 265.513165,43.5960146 L265.513165,43.5960146 Z M296.929335,43.4207132 C301.46796,43.4207132 305.624764,40.9028569 307.323747,37.1254722 L307.411397,37.1254722 L307.411397,42.922425 L311.099931,42.922425 L311.099931,22.0759681 C311.099931,15.8695785 306.737808,11.9745257 299.798994,11.9745257 C292.860181,11.9745257 288.38039,15.8395611 287.940936,21.2859111 L291.688303,21.2859111 C292.361893,17.5961771 295.231553,15.4001069 299.711344,15.4001069 C304.454087,15.4001069 307.236096,18.0356313 307.236096,22.4277715 L307.236096,25.0620951 L297.749409,25.648034 C290.722945,26.1163049 286.827892,29.278934 286.827892,34.4899479 C286.827892,39.8186299 290.927063,43.4207132 296.929335,43.4207132 L296.929335,43.4207132 Z M297.720592,40.0827826 C293.591404,40.0827826 290.751762,37.7990618 290.751762,34.4899479 C290.751762,31.1232007 293.416103,29.0447986 298.21768,28.7230125 L307.236096,28.1070563 L307.236096,31.4750042 C307.236096,36.3053979 303.049274,40.0827826 297.720592,40.0827826 L297.720592,40.0827826 Z M317.863442,42.922425 L321.728478,42.922425 L321.728478,0.673589583 L317.863442,0.673589583 L317.863442,42.922425 Z M328.931444,42.922425 L332.796479,42.922425 L332.796479,0.673589583 L328.931444,0.673589583 L328.931444,42.922425 Z M360.785867,34.2858299 C359.936976,37.6237604 356.745531,40.0239486 352.149272,40.0239486 C346.088167,40.0239486 342.194315,35.7494764 342.194315,28.8682965 L342.194315,28.6341611 L365.002706,28.6341611 L365.002706,26.9952132 C365.002706,17.9191639 359.90816,11.9745257 351.827486,11.9745257 C343.57031,11.9745257 338.212812,18.3286007 338.212812,27.7852701 C338.212812,37.4472583 343.511476,43.4207132 352.061622,43.4207132 C358.766299,43.4207132 363.714361,39.5556778 364.622086,34.2858299 L360.785867,34.2858299 Z M351.768652,15.3712903 C357.272635,15.3712903 360.932352,19.5581118 361.020003,25.5603833 L342.223131,25.5603833 C342.546118,19.5581118 346.322302,15.3712903 351.768652,15.3712903 L351.768652,15.3712903 Z M370.184903,42.922425 L374.049939,42.922425 L374.049939,23.9502521 C374.049939,19.0310069 376.801931,15.6642597 381.135237,15.6642597 C382.452399,15.6642597 383.535425,15.8695785 384.033713,16.1037139 L384.033713,12.2975125 C383.565442,12.1798444 382.657717,11.9745257 381.632324,11.9745257 C377.884957,11.9745257 375.045315,14.1705958 373.932271,17.8891465 L373.84462,17.8891465 L373.84462,12.4728139 L370.184903,12.4728139 L370.184903,42.922425 Z M401.073969,42.922425 L405.055472,42.922425 L405.055472,0.673589583 L401.073969,0.673589583 L401.073969,42.922425 Z M412.960844,0.673589583 L412.960844,42.922425 L426.663169,42.922425 C439.341301,42.922425 446.689551,35.1635375 446.689551,21.7829986 C446.689551,8.43247708 439.311284,0.673589583 426.663169,0.673589583 L412.960844,0.673589583 Z M416.972364,4.30448958 L426.429033,4.30448958 C436.823445,4.30448958 442.620398,10.5697132 442.620398,21.813016 C442.620398,33.0263014 436.823445,39.291525 426.429033,39.291525 L416.972364,39.291525 L416.972364,4.30448958 Z" id="Fill-3" fill="#FEFEFE"></path>
            </g>
        </g>
    </g>
</svg>