<?xml version="1.0" encoding="UTF-8"?>
<svg width="202px" height="202px" viewBox="0 0 202 202" version="1.1" xmlns="http://www.w3.org/2000/svg" xmlns:xlink="http://www.w3.org/1999/xlink">
    <title>cop-user-male</title>
    <defs>
        <circle id="path-1" cx="100.277968" cy="100.277968" r="100.277968"></circle>
        <linearGradient x1="2.03165333e-05%" y1="50%" x2="99.9999576%" y2="50%" id="linearGradient-3">
            <stop stop-color="#7DAAFD" offset="0.2%"></stop>
            <stop stop-color="#7BA6FA" offset="7.5%"></stop>
            <stop stop-color="#6476DB" offset="98.1%"></stop>
        </linearGradient>
        <linearGradient x1="-127.23357%" y1="49.9958968%" x2="1379.67143%" y2="49.9958968%" id="linearGradient-4">
            <stop stop-color="#7DAAFD" offset="0.2%"></stop>
            <stop stop-color="#7BA6FA" offset="7.5%"></stop>
            <stop stop-color="#6476DB" offset="98.1%"></stop>
        </linearGradient>
        <linearGradient x1="-127.207247%" y1="50.0022349%" x2="1379.39169%" y2="50.0022349%" id="linearGradient-5">
            <stop stop-color="#7AA4F9" offset="0.2%"></stop>
            <stop stop-color="#6577DC" offset="98.1%"></stop>
        </linearGradient>
        <linearGradient x1="-127.241757%" y1="49.9983023%" x2="1379.67979%" y2="49.9983023%" id="linearGradient-6">
            <stop stop-color="#779EF4" offset="0.2%"></stop>
            <stop stop-color="#6579DC" offset="98.1%"></stop>
        </linearGradient>
        <linearGradient x1="-127.108975%" y1="50.0035708%" x2="1378.69562%" y2="50.0035708%" id="linearGradient-7">
            <stop stop-color="#7498F0" offset="0.2%"></stop>
            <stop stop-color="#667ADD" offset="98.1%"></stop>
        </linearGradient>
        <linearGradient x1="-127.189611%" y1="49.9960223%" x2="1379.03099%" y2="49.9960223%" id="linearGradient-8">
            <stop stop-color="#7291EC" offset="0.2%"></stop>
            <stop stop-color="#677BDD" offset="98.1%"></stop>
        </linearGradient>
        <linearGradient x1="-127.164608%" y1="50.0038481%" x2="1379.46865%" y2="50.0038481%" id="linearGradient-9">
            <stop stop-color="#6F8BE8" offset="0.2%"></stop>
            <stop stop-color="#687CDE" offset="98.1%"></stop>
        </linearGradient>
        <linearGradient x1="-127.249022%" y1="49.9984243%" x2="1379.84979%" y2="49.9984243%" id="linearGradient-10">
            <stop stop-color="#6C85E3" offset="0.2%"></stop>
            <stop stop-color="#687EDE" offset="98.1%"></stop>
        </linearGradient>
        <linearGradient x1="-1261.19525%" y1="49.9958968%" x2="241.717019%" y2="49.9958968%" id="linearGradient-11">
            <stop stop-color="#7DAAFD" offset="0.2%"></stop>
            <stop stop-color="#7BA6FA" offset="7.5%"></stop>
            <stop stop-color="#6476DB" offset="98.1%"></stop>
        </linearGradient>
        <linearGradient x1="-1260.93084%" y1="49.989679%" x2="241.673154%" y2="49.989679%" id="linearGradient-12">
            <stop stop-color="#77A1F6" offset="0.2%"></stop>
            <stop stop-color="#6274D9" offset="98.1%"></stop>
        </linearGradient>
        <linearGradient x1="-1261.18495%" y1="49.9983023%" x2="241.702184%" y2="49.9983023%" id="linearGradient-13">
            <stop stop-color="#7198EF" offset="0.2%"></stop>
            <stop stop-color="#5F73D7" offset="98.1%"></stop>
        </linearGradient>
        <linearGradient x1="-1260.92361%" y1="49.9878717%" x2="241.645541%" y2="49.9878717%" id="linearGradient-14">
            <stop stop-color="#6B8FE8" offset="0.2%"></stop>
            <stop stop-color="#5D71D5" offset="98.1%"></stop>
        </linearGradient>
        <linearGradient x1="-1261.31207%" y1="49.9960223%" x2="241.755493%" y2="49.9960223%" id="linearGradient-15">
            <stop stop-color="#6686E1" offset="0.2%"></stop>
            <stop stop-color="#5B70D2" offset="98.1%"></stop>
        </linearGradient>
        <linearGradient x1="-1260.95459%" y1="49.9901355%" x2="241.681983%" y2="49.9901355%" id="linearGradient-16">
            <stop stop-color="#607DDA" offset="0.2%"></stop>
            <stop stop-color="#596ED0" offset="98.1%"></stop>
        </linearGradient>
        <linearGradient x1="-1261.4542%" y1="49.9984243%" x2="241.74664%" y2="49.9984243%" id="linearGradient-17">
            <stop stop-color="#5A74D3" offset="0.2%"></stop>
            <stop stop-color="#566DCE" offset="98.1%"></stop>
        </linearGradient>
        <linearGradient x1="-87.876304%" y1="49.9943079%" x2="188.628912%" y2="49.9943079%" id="linearGradient-18">
            <stop stop-color="#7DAAFD" offset="0.2%"></stop>
            <stop stop-color="#7BA6FA" offset="7.5%"></stop>
            <stop stop-color="#6476DB" offset="98.1%"></stop>
        </linearGradient>
        <linearGradient x1="-87.8713424%" y1="50.0016549%" x2="188.638225%" y2="50.0016549%" id="linearGradient-19">
            <stop stop-color="#77A1F6" offset="0.2%"></stop>
            <stop stop-color="#6274D9" offset="98.1%"></stop>
        </linearGradient>
        <linearGradient x1="-87.8672915%" y1="49.9939531%" x2="188.63349%" y2="49.9939531%" id="linearGradient-20">
            <stop stop-color="#7198EF" offset="0.2%"></stop>
            <stop stop-color="#5F73D7" offset="98.1%"></stop>
        </linearGradient>
        <linearGradient x1="-87.8772112%" y1="50.0017614%" x2="188.63535%" y2="50.0017614%" id="linearGradient-21">
            <stop stop-color="#6B8FE8" offset="0.2%"></stop>
            <stop stop-color="#5D71D5" offset="98.1%"></stop>
        </linearGradient>
        <linearGradient x1="-87.873162%" y1="49.9935511%" x2="188.630625%" y2="49.9935511%" id="linearGradient-22">
            <stop stop-color="#6686E1" offset="0.2%"></stop>
            <stop stop-color="#5B70D2" offset="98.1%"></stop>
        </linearGradient>
        <linearGradient x1="-87.87564%" y1="49.9933305%" x2="188.639905%" y2="49.9933305%" id="linearGradient-23">
            <stop stop-color="#607DDA" offset="0.2%"></stop>
            <stop stop-color="#596ED0" offset="98.1%"></stop>
        </linearGradient>
        <linearGradient x1="-87.8641856%" y1="50.0019492%" x2="188.635184%" y2="50.0019492%" id="linearGradient-24">
            <stop stop-color="#5A74D3" offset="0.2%"></stop>
            <stop stop-color="#566DCE" offset="98.1%"></stop>
        </linearGradient>
        <radialGradient cx="50.0143554%" cy="49.9981664%" fx="50.0143554%" fy="49.9981664%" r="50.08%" gradientTransform="translate(0.500144,0.499982),scale(0.897215,1.000000),translate(-0.500144,-0.499982)" id="radialGradient-25">
            <stop stop-color="#666666" offset="0%"></stop>
            <stop stop-color="#333333" offset="99.9%"></stop>
        </radialGradient>
        <radialGradient cx="50%" cy="49.9964286%" fx="50%" fy="49.9964286%" r="50%" gradientTransform="translate(0.500000,0.499964),scale(1.000000,0.571429),translate(-0.500000,-0.499964)" id="radialGradient-26">
            <stop stop-color="#666666" offset="0%"></stop>
            <stop stop-color="#333333" offset="99.9%"></stop>
        </radialGradient>
        <linearGradient x1="49.8740741%" y1="75.7074674%" x2="49.9925926%" y2="44.9530309%" id="linearGradient-27">
            <stop stop-color="#7DAAFD" offset="0.2%"></stop>
            <stop stop-color="#7BA6FA" offset="7.5%"></stop>
            <stop stop-color="#6476DB" offset="98.1%"></stop>
        </linearGradient>
        <radialGradient cx="33.4444444%" cy="-15.29803%" fx="33.4444444%" fy="-15.29803%" r="287.45%" gradientTransform="translate(0.334444,-0.152980),scale(0.222222,1.000000),translate(-0.334444,0.152980)" id="radialGradient-28">
            <stop stop-color="#FCEA8E" offset="0%"></stop>
            <stop stop-color="#B19637" offset="99.9%"></stop>
        </radialGradient>
        <radialGradient cx="23.5028438%" cy="11.6699893%" fx="23.5028438%" fy="11.6699893%" r="98.5279358%" gradientTransform="translate(0.235028,0.116700),scale(1.000000,0.916731),translate(-0.235028,-0.116700)" id="radialGradient-29">
            <stop stop-color="#FCEA8E" offset="0%"></stop>
            <stop stop-color="#B19637" offset="99.9%"></stop>
        </radialGradient>
        <radialGradient cx="64.1445605%" cy="39.6927975%" fx="64.1445605%" fy="39.6927975%" r="51.5364775%" gradientTransform="translate(0.641446,0.396928),scale(1.000000,0.463224),rotate(168.720244),translate(-0.641446,-0.396928)" id="radialGradient-30">
            <stop stop-color="#FFE16E" offset="0%"></stop>
            <stop stop-color="#FFD226" offset="46.1%"></stop>
            <stop stop-color="#F8C21D" offset="74.1%"></stop>
            <stop stop-color="#F0AF13" offset="99.9%"></stop>
        </radialGradient>
        <radialGradient cx="35.6648935%" cy="39.9077768%" fx="35.6648935%" fy="39.9077768%" r="51.643149%" gradientTransform="translate(0.356649,0.399078),scale(1.000000,0.438248),rotate(11.906770),translate(-0.356649,-0.399078)" id="radialGradient-31">
            <stop stop-color="#FFE16E" offset="0%"></stop>
            <stop stop-color="#FFD226" offset="46.1%"></stop>
            <stop stop-color="#F8C21D" offset="74.1%"></stop>
            <stop stop-color="#F0AF13" offset="99.9%"></stop>
        </radialGradient>
        <radialGradient cx="50.0000807%" cy="49.9993832%" fx="50.0000807%" fy="49.9993832%" r="50.6977318%" gradientTransform="translate(0.500001,0.499994),scale(1.000000,0.808741),translate(-0.500001,-0.499994)" id="radialGradient-32">
            <stop stop-color="#FFE16E" offset="0%"></stop>
            <stop stop-color="#FFD226" offset="62.9%"></stop>
            <stop stop-color="#FDCD23" offset="75%"></stop>
            <stop stop-color="#F6BD1B" offset="89.9%"></stop>
            <stop stop-color="#F0AF13" offset="99.9%"></stop>
        </radialGradient>
        <radialGradient cx="50.8771555%" cy="47.2799399%" fx="50.8771555%" fy="47.2799399%" r="56.7857775%" gradientTransform="translate(0.508772,0.472799),scale(0.703227,1.000000),translate(-0.508772,-0.472799)" id="radialGradient-33">
            <stop stop-color="#AA8765" offset="0%"></stop>
            <stop stop-color="#A17C58" offset="5.9%"></stop>
            <stop stop-color="#956D47" offset="16.5%"></stop>
            <stop stop-color="#8E653C" offset="28%"></stop>
            <stop stop-color="#8C6239" offset="41.8%"></stop>
            <stop stop-color="#875D34" offset="58.3%"></stop>
            <stop stop-color="#774E27" offset="78.9%"></stop>
            <stop stop-color="#603813" offset="99.9%"></stop>
        </radialGradient>
        <radialGradient cx="50.1441318%" cy="43.553131%" fx="50.1441318%" fy="43.553131%" r="80.8464729%" gradientTransform="translate(0.501441,0.435531),scale(0.532676,1.000000),rotate(-16.395070),translate(-0.501441,-0.435531)" id="radialGradient-34">
            <stop stop-color="#AA8765" offset="0%"></stop>
            <stop stop-color="#A17C57" offset="14.5%"></stop>
            <stop stop-color="#926941" offset="44.1%"></stop>
            <stop stop-color="#8C6239" offset="62.9%"></stop>
            <stop stop-color="#875D34" offset="71.1%"></stop>
            <stop stop-color="#774E27" offset="81.4%"></stop>
            <stop stop-color="#603813" offset="91.9%"></stop>
        </radialGradient>
        <radialGradient cx="50.1360906%" cy="43.5384234%" fx="50.1360906%" fy="43.5384234%" r="81.6459124%" gradientTransform="translate(0.501361,0.435384),scale(0.525734,1.000000),rotate(-16.382065),translate(-0.501361,-0.435384)" id="radialGradient-35">
            <stop stop-color="#9F7C59" offset="0%"></stop>
            <stop stop-color="#9B7652" offset="8.1%"></stop>
            <stop stop-color="#8C633C" offset="41.6%"></stop>
            <stop stop-color="#865C34" offset="62.9%"></stop>
            <stop stop-color="#81572F" offset="71.9%"></stop>
            <stop stop-color="#714822" offset="83.1%"></stop>
            <stop stop-color="#603813" offset="91.9%"></stop>
        </radialGradient>
        <radialGradient cx="50.1411645%" cy="43.5562243%" fx="50.1411645%" fy="43.5562243%" r="82.8253896%" gradientTransform="translate(0.501412,0.435562),scale(0.515825,1.000000),rotate(-16.367460),translate(-0.501412,-0.435562)" id="radialGradient-36">
            <stop stop-color="#95704E" offset="0%"></stop>
            <stop stop-color="#946F4C" offset="2.1%"></stop>
            <stop stop-color="#855D36" offset="39.2%"></stop>
            <stop stop-color="#7F562E" offset="62.9%"></stop>
            <stop stop-color="#7A5129" offset="73.1%"></stop>
            <stop stop-color="#6A421C" offset="85.7%"></stop>
            <stop stop-color="#603813" offset="91.9%"></stop>
        </radialGradient>
        <radialGradient cx="50.1355198%" cy="43.5549726%" fx="50.1355198%" fy="43.5549726%" r="84.0736767%" gradientTransform="translate(0.501355,0.435550),scale(0.505752,1.000000),rotate(-16.352879),translate(-0.501355,-0.435550)" id="radialGradient-37">
            <stop stop-color="#8A6542" offset="0%"></stop>
            <stop stop-color="#7F5731" offset="34.6%"></stop>
            <stop stop-color="#795029" offset="62.9%"></stop>
            <stop stop-color="#744B24" offset="74.5%"></stop>
            <stop stop-color="#643C17" offset="88.8%"></stop>
            <stop stop-color="#603813" offset="91.9%"></stop>
        </radialGradient>
        <radialGradient cx="50.1415622%" cy="43.5397782%" fx="50.1415622%" fy="43.5397782%" r="85.3777124%" gradientTransform="translate(0.501416,0.435398),scale(0.495689,1.000000),rotate(-16.338324),translate(-0.501416,-0.435398)" id="radialGradient-38">
            <stop stop-color="#805A36" offset="0%"></stop>
            <stop stop-color="#79512B" offset="28.5%"></stop>
            <stop stop-color="#734A23" offset="62.9%"></stop>
            <stop stop-color="#6E451E" offset="76.5%"></stop>
            <stop stop-color="#603813" offset="91.9%"></stop>
        </radialGradient>
        <radialGradient cx="50.1440159%" cy="43.5436007%" fx="50.1440159%" fy="43.5436007%" r="86.7446319%" gradientTransform="translate(0.501440,0.435436),scale(0.485632,1.000000),rotate(-16.323794),translate(-0.501440,-0.435436)" id="radialGradient-39">
            <stop stop-color="#754F2A" offset="0%"></stop>
            <stop stop-color="#724B26" offset="15.1%"></stop>
            <stop stop-color="#6D441E" offset="62.9%"></stop>
            <stop stop-color="#683F19" offset="80%"></stop>
            <stop stop-color="#603813" offset="91.9%"></stop>
        </radialGradient>
        <radialGradient cx="50.1419952%" cy="43.5551564%" fx="50.1419952%" fy="43.5551564%" r="88.1641307%" gradientTransform="translate(0.501420,0.435552),scale(0.475534,1.000000),rotate(-16.310899),translate(-0.501420,-0.435552)" id="radialGradient-40">
            <stop stop-color="#6B431F" offset="0%"></stop>
            <stop stop-color="#663E18" offset="62.9%"></stop>
            <stop stop-color="#613914" offset="90%"></stop>
            <stop stop-color="#603813" offset="91.9%"></stop>
        </radialGradient>
        <radialGradient cx="49.9980299%" cy="50.0003377%" fx="49.9980299%" fy="50.0003377%" r="89.8407769%" gradientTransform="translate(0.499980,0.500003),scale(0.427587,1.000000),translate(-0.499980,-0.500003)" id="radialGradient-41">
            <stop stop-color="#603813" stop-opacity="0" offset="0%"></stop>
            <stop stop-color="#603813" stop-opacity="0.2" offset="99.9%"></stop>
        </radialGradient>
        <radialGradient cx="50.003778%" cy="50.0016955%" fx="50.003778%" fy="50.0016955%" r="89.7085585%" gradientTransform="translate(0.500038,0.500017),scale(0.428378,1.000000),translate(-0.500038,-0.500017)" id="radialGradient-42">
            <stop stop-color="#5C3512" stop-opacity="0.143" offset="0%"></stop>
            <stop stop-color="#5C3512" stop-opacity="0.314" offset="99.9%"></stop>
        </radialGradient>
        <radialGradient cx="49.9996803%" cy="50.000751%" fx="49.9996803%" fy="50.000751%" r="89.5657023%" gradientTransform="translate(0.499997,0.500008),scale(0.429241,1.000000),translate(-0.499997,-0.500008)" id="radialGradient-43">
            <stop stop-color="#573111" stop-opacity="0.286" offset="0%"></stop>
            <stop stop-color="#573111" stop-opacity="0.429" offset="99.9%"></stop>
        </radialGradient>
        <radialGradient cx="49.9978037%" cy="50.0047397%" fx="49.9978037%" fy="50.0047397%" r="89.389532%" gradientTransform="translate(0.499978,0.500047),scale(0.430330,1.000000),translate(-0.499978,-0.500047)" id="radialGradient-44">
            <stop stop-color="#532E10" stop-opacity="0.429" offset="0%"></stop>
            <stop stop-color="#532E10" stop-opacity="0.543" offset="99.9%"></stop>
        </radialGradient>
        <radialGradient cx="50.0018021%" cy="50.0001414%" fx="50.0018021%" fy="50.0001414%" r="89.170506%" gradientTransform="translate(0.500018,0.500001),scale(0.431675,1.000000),translate(-0.500018,-0.500001)" id="radialGradient-45">
            <stop stop-color="#4F2B0E" stop-opacity="0.571" offset="0%"></stop>
            <stop stop-color="#4F2B0E" stop-opacity="0.657" offset="99.9%"></stop>
        </radialGradient>
        <radialGradient cx="50.0042991%" cy="50.0004899%" fx="50.0042991%" fy="50.0004899%" r="88.9539872%" gradientTransform="translate(0.500043,0.500005),scale(0.432983,1.000000),translate(-0.500043,-0.500005)" id="radialGradient-46">
            <stop stop-color="#4B280D" stop-opacity="0.714" offset="0%"></stop>
            <stop stop-color="#4B280D" stop-opacity="0.771" offset="99.9%"></stop>
        </radialGradient>
        <radialGradient cx="50.0030291%" cy="50.003129%" fx="50.0030291%" fy="50.003129%" r="88.7076206%" gradientTransform="translate(0.500030,0.500031),scale(0.434478,1.000000),translate(-0.500030,-0.500031)" id="radialGradient-47">
            <stop stop-color="#46240C" stop-opacity="0.857" offset="0%"></stop>
            <stop stop-color="#46240C" stop-opacity="0.886" offset="99.9%"></stop>
        </radialGradient>
        <linearGradient x1="4.24559474e-14%" y1="50%" x2="100%" y2="50%" id="linearGradient-48">
            <stop stop-color="#C69C6D" offset="0%"></stop>
            <stop stop-color="#754C24" offset="100%"></stop>
        </linearGradient>
        <radialGradient cx="50%" cy="50%" fx="50%" fy="50%" r="50%" id="radialGradient-49">
            <stop stop-color="#1C1911" offset="0%"></stop>
            <stop stop-color="#171714" offset="99.9%"></stop>
        </radialGradient>
        <linearGradient x1="-6.79295158e-13%" y1="50%" x2="100%" y2="50%" id="linearGradient-50">
            <stop stop-color="#C69C6D" offset="0%"></stop>
            <stop stop-color="#754C24" offset="100%"></stop>
        </linearGradient>
        <radialGradient cx="49.9525166%" cy="50%" fx="49.9525166%" fy="50%" r="50%" id="radialGradient-51">
            <stop stop-color="#1C1911" offset="0%"></stop>
            <stop stop-color="#171714" offset="99.9%"></stop>
        </radialGradient>
        <radialGradient cx="50.4516446%" cy="-9.59251526%" fx="50.4516446%" fy="-9.59251526%" r="86.8441667%" gradientTransform="translate(0.504516,-0.095925),scale(0.556008,1.000000),translate(-0.504516,0.095925)" id="radialGradient-52">
            <stop stop-color="#CC9000" offset="69.6%"></stop>
            <stop stop-color="#CC9000" stop-opacity="0" offset="100%"></stop>
        </radialGradient>
        <radialGradient cx="49.9952433%" cy="5.99960808%" fx="49.9952433%" fy="5.99960808%" r="124.364014%" gradientTransform="translate(0.499952,0.059996),scale(0.408207,1.000000),translate(-0.499952,-0.059996)" id="radialGradient-53">
            <stop stop-color="#FFD226" offset="37.1%"></stop>
            <stop stop-color="#FFE16E" offset="94.8%"></stop>
            <stop stop-color="#FFE16E" stop-opacity="0" offset="100%"></stop>
        </radialGradient>
        <radialGradient cx="50.675282%" cy="-3.68372093%" fx="50.675282%" fy="-3.68372093%" r="154.037198%" gradientTransform="translate(0.506753,-0.036837),scale(0.277954,1.000000),translate(-0.506753,0.036837)" id="radialGradient-54">
            <stop stop-color="#1C1911" offset="0%"></stop>
            <stop stop-color="#171714" offset="99.9%"></stop>
        </radialGradient>
        <radialGradient cx="50%" cy="50.0107135%" fx="50%" fy="50.0107135%" r="210.927791%" gradientTransform="translate(0.500000,0.500107),scale(0.170031,1.000000),translate(-0.500000,-0.500107)" id="radialGradient-55">
            <stop stop-color="#5C3512" stop-opacity="0.143" offset="0%"></stop>
            <stop stop-color="#5C3512" stop-opacity="0.314" offset="99.9%"></stop>
        </radialGradient>
        <radialGradient cx="50%" cy="50%" fx="50%" fy="50%" r="217.130243%" gradientTransform="translate(0.500000,0.500000),scale(0.165039,1.000000),translate(-0.500000,-0.500000)" id="radialGradient-56">
            <stop stop-color="#5D3512" stop-opacity="0.265" offset="0%"></stop>
            <stop stop-color="#5D3512" stop-opacity="0.412" offset="99.9%"></stop>
        </radialGradient>
        <radialGradient cx="50%" cy="50.0113817%" fx="50%" fy="50.0113817%" r="223.719554%" gradientTransform="translate(0.500000,0.500114),scale(0.160048,1.000000),translate(-0.500000,-0.500114)" id="radialGradient-57">
            <stop stop-color="#5D3612" stop-opacity="0.388" offset="0%"></stop>
            <stop stop-color="#5D3612" stop-opacity="0.51" offset="99.9%"></stop>
        </radialGradient>
        <radialGradient cx="50%" cy="50%" fx="50%" fy="50%" r="230.733083%" gradientTransform="translate(0.500000,0.500000),scale(0.155057,1.000000),translate(-0.500000,-0.500000)" id="radialGradient-58">
            <stop stop-color="#5E3612" stop-opacity="0.51" offset="0%"></stop>
            <stop stop-color="#5E3612" stop-opacity="0.608" offset="99.9%"></stop>
        </radialGradient>
        <radialGradient cx="50%" cy="50.0121389%" fx="50%" fy="50.0121389%" r="238.237436%" gradientTransform="translate(0.500000,0.500121),scale(0.150066,1.000000),translate(-0.500000,-0.500121)" id="radialGradient-59">
            <stop stop-color="#5E3713" stop-opacity="0.633" offset="0%"></stop>
            <stop stop-color="#5E3713" stop-opacity="0.706" offset="99.9%"></stop>
        </radialGradient>
        <radialGradient cx="50%" cy="50%" fx="50%" fy="50%" r="246.258162%" gradientTransform="translate(0.500000,0.500000),scale(0.145074,1.000000),translate(-0.500000,-0.500000)" id="radialGradient-60">
            <stop stop-color="#5F3713" stop-opacity="0.755" offset="0%"></stop>
            <stop stop-color="#5F3713" stop-opacity="0.804" offset="99.9%"></stop>
        </radialGradient>
        <radialGradient cx="50%" cy="50.0130039%" fx="50%" fy="50.0130039%" r="254.850455%" gradientTransform="translate(0.500000,0.500130),scale(0.140083,1.000000),translate(-0.500000,-0.500130)" id="radialGradient-61">
            <stop stop-color="#5F3813" stop-opacity="0.878" offset="0%"></stop>
            <stop stop-color="#5F3813" stop-opacity="0.902" offset="99.9%"></stop>
        </radialGradient>
        <radialGradient cx="49.4120078%" cy="40.9503383%" fx="49.4120078%" fy="40.9503383%" r="134.125%" gradientTransform="translate(0.494120,0.409503),scale(0.339226,1.000000),translate(-0.494120,-0.409503)" id="radialGradient-62">
            <stop stop-color="#426CB6" offset="0%"></stop>
            <stop stop-color="#173168" offset="99.9%"></stop>
        </radialGradient>
        <radialGradient cx="50%" cy="50%" fx="50%" fy="50%" r="119.949611%" gradientTransform="translate(0.500000,0.500000),scale(0.308442,1.000000),translate(-0.500000,-0.500000)" id="radialGradient-63">
            <stop stop-color="#426CB6" offset="0%"></stop>
            <stop stop-color="#173168" offset="99.9%"></stop>
        </radialGradient>
        <linearGradient x1="7.00189542%" y1="50.0096463%" x2="107.001895%" y2="50.0096463%" id="linearGradient-64">
            <stop stop-color="#000000" offset="0%"></stop>
            <stop stop-color="#808080" offset="30%"></stop>
            <stop stop-color="#000000" offset="99.9%"></stop>
        </linearGradient>
        <radialGradient cx="50%" cy="50.0195796%" fx="50%" fy="50.0195796%" r="50%" gradientTransform="translate(0.500000,0.500196),scale(1.000000,0.711177),translate(-0.500000,-0.500196)" id="radialGradient-65">
            <stop stop-color="#FCEA8E" offset="0%"></stop>
            <stop stop-color="#B19637" offset="99.9%"></stop>
        </radialGradient>
        <radialGradient cx="50%" cy="50.0191998%" fx="50%" fy="50.0191998%" r="50%" gradientTransform="translate(0.500000,0.500192),scale(1.000000,0.710960),translate(-0.500000,-0.500192)" id="radialGradient-66">
            <stop stop-color="#FCEA8E" offset="0%"></stop>
            <stop stop-color="#B19637" offset="99.9%"></stop>
        </radialGradient>
        <radialGradient cx="49.9936004%" cy="50%" fx="49.9936004%" fy="50%" r="52.3230513%" gradientTransform="translate(0.499936,0.500000),scale(1.000000,0.916804),translate(-0.499936,-0.500000)" id="radialGradient-67">
            <stop stop-color="#FCEA8E" offset="0%"></stop>
            <stop stop-color="#B19637" offset="99.9%"></stop>
        </radialGradient>
        <radialGradient cx="32.2704082%" cy="44.0069949%" fx="32.2704082%" fy="44.0069949%" r="50%" gradientTransform="translate(0.322704,0.440070),scale(1.000000,0.720059),translate(-0.322704,-0.440070)" id="radialGradient-68">
            <stop stop-color="#FCEA8E" offset="0%"></stop>
            <stop stop-color="#B19637" offset="99.9%"></stop>
        </radialGradient>
        <radialGradient cx="50.4594508%" cy="-9.55666565%" fx="50.4594508%" fy="-9.55666565%" r="118.81174%" gradientTransform="translate(0.504595,-0.095567),scale(0.432841,1.000000),translate(-0.504595,0.095567)" id="radialGradient-69">
            <stop stop-color="#CC9000" offset="24.5%"></stop>
            <stop stop-color="#D09504" stop-opacity="0.822" offset="41.5%"></stop>
            <stop stop-color="#DCA50F" stop-opacity="0.599" offset="62.7%"></stop>
            <stop stop-color="#EEBD20" stop-opacity="0.363" offset="85.1%"></stop>
            <stop stop-color="#FED12E" stop-opacity="0" offset="100%"></stop>
        </radialGradient>
        <radialGradient cx="50.4526013%" cy="50.0326791%" fx="50.4526013%" fy="50.0326791%" r="95.1511519%" gradientTransform="translate(0.504526,0.500327),scale(0.490286,1.000000),rotate(1.390870),translate(-0.504526,-0.500327)" id="radialGradient-70">
            <stop stop-color="#FED53F" offset="47.9%"></stop>
            <stop stop-color="#FED53F" stop-opacity="0.141" offset="92.6%"></stop>
            <stop stop-color="#FED53F" stop-opacity="0" offset="100%"></stop>
        </radialGradient>
        <radialGradient cx="50%" cy="50.019957%" fx="50%" fy="50.019957%" r="75.7787325%" gradientTransform="translate(0.500000,0.500200),scale(0.659816,1.000000),translate(-0.500000,-0.500200)" id="radialGradient-71">
            <stop stop-color="#FFF4C9" offset="0.4%"></stop>
            <stop stop-color="#FFF4C9" stop-opacity="0" offset="100%"></stop>
        </radialGradient>
        <radialGradient cx="51.0245696%" cy="-59.4576527%" fx="51.0245696%" fy="-59.4576527%" r="199.529628%" gradientTransform="translate(0.510246,-0.594577),scale(0.268817,1.000000),translate(-0.510246,0.594577)" id="radialGradient-72">
            <stop stop-color="#C69C6D" offset="0%"></stop>
            <stop stop-color="#956B41" offset="53%"></stop>
            <stop stop-color="#8C6239" offset="62.6%"></stop>
            <stop stop-color="#734A23" offset="84.9%"></stop>
            <stop stop-color="#603813" offset="99.2%"></stop>
        </radialGradient>
    </defs>
    <g id="Page-1" stroke="none" stroke-width="1" fill="none" fill-rule="evenodd">
        <g id="Artboard" transform="translate(-1288.000000, -4371.000000)">
            <g id="cop-user-male" transform="translate(1288.250000, 4371.102126)">
                <mask id="mask-2" fill="white">
                    <use xlink:href="#path-1"></use>
                </mask>
                <use id="Oval" fill="#1B1932" xlink:href="#path-1"></use>
                <g id="icons8-man_police_officer" mask="url(#mask-2)">
                    <g transform="translate(25.500000, 18.976989)">
                        <path d="M150.000064,181.578947 C150.000064,181.578947 150.213158,145.527632 125.964474,139.148684 C113.581579,135.892105 75.0710526,126.315789 75.0039474,126.315789 C74.9368421,126.315789 36.4223684,135.892105 24.0434211,139.148684 C-0.209210526,145.527632 -3.0474819e-05,181.578947 -3.0474819e-05,181.578947 L150.000064,181.578947 Z" id="Path" fill="url(#linearGradient-3)" fill-rule="nonzero"></path>
                        <path d="M49.8355263,132.730263 C49.8355263,132.730263 20.0644737,137.171053 14.8026316,143.585526 C13.8157895,147.860526 14.6368421,148.519737 14.6368421,148.519737 C14.6368421,148.519737 42.9276316,139.965789 51.4776316,139.144737 C51.3157895,137.005263 49.8355263,132.730263 49.8355263,132.730263 Z" id="Path" fill="#23427D" fill-rule="nonzero"></path>
                        <path d="M99.8447368,132.730263 C99.8447368,132.730263 129.615789,137.171053 134.877632,143.585526 C135.864474,147.860526 135.043421,148.519737 135.043421,148.519737 C135.043421,148.519737 106.752632,139.965789 98.2026316,139.144737 C98.3644737,137.005263 99.8447368,132.730263 99.8447368,132.730263 Z" id="Path" fill="#23427D" fill-rule="nonzero"></path>
                        <path d="M12.1657895,152.040789 C12.1342105,156.702632 12.0513158,161.546053 12.2368421,166.496053 C12.4184211,171.446053 12.8605263,176.498684 13.8789474,181.578947 L18.0394737,181.578947 L22.2039474,181.578947 C20.6802632,176.613158 19.4052632,171.982895 18.3671053,167.202632 C17.3328947,162.418421 16.5355263,157.480263 15.9710526,151.894737 C15.7144737,148.275 12.2131579,148.444737 12.1657895,152.040789 Z" id="Path" fill="url(#linearGradient-4)" fill-rule="nonzero"></path>
                        <path d="M12.3947368,152.415789 C12.3828745,157.061842 12.3394737,161.846053 12.5486842,166.721053 C12.7460526,171.461842 13.1842105,176.289474 14.1434211,181.156579 C14.1671053,181.294737 17.7631579,181.436842 17.7907895,181.578947 L19.7802632,181.578947 L21.7697368,181.578947 C20.9171053,178.796053 20.1513158,176.115789 19.4684211,173.459211 C18.9710526,171.521053 18.5210526,169.594737 18.1105263,167.640789 C17.9763158,167.005263 17.8460526,166.361842 17.7236842,165.718421 C17.2026316,163.038158 16.7565789,160.286842 16.3776316,157.381579 C16.1842105,155.897368 16.0065789,154.369737 15.8486842,152.794737 C15.6828947,150.540789 14.2618421,149.747368 13.3263158,150.319737 C12.8802632,150.532895 12.3986842,151.255263 12.3947368,152.415789 Z" id="Path" fill="url(#linearGradient-5)" fill-rule="nonzero"></path>
                        <path d="M12.6275502,152.790789 C12.6394737,157.425 12.6275502,162.146053 12.8605263,166.946053 C13.0736842,171.473684 13.5078947,176.080263 14.4078947,180.734211 C14.4552632,181.010526 17.4828947,181.294737 17.5381579,181.578947 L19.4368421,181.578947 L21.3355263,181.578947 C20.5105263,178.886842 19.7802632,176.293421 19.1368421,173.723684 C18.6671053,171.844737 18.2407895,169.973684 17.8578947,168.078947 C17.7315789,167.455263 17.6092105,166.831579 17.4907895,166.203947 C17.0013158,163.602632 16.5868421,160.938158 16.2315789,158.127632 C16.05,156.694737 15.8802632,155.222368 15.7302632,153.698684 C15.5723684,151.618421 14.3684211,150.753947 13.5671053,151.018421 C13.1881579,151.014474 12.6197368,151.65 12.6275502,152.790789 Z" id="Path" fill="url(#linearGradient-6)" fill-rule="nonzero"></path>
                        <path d="M12.8565789,153.161842 C12.8881579,157.780263 12.9118421,162.442105 13.1723684,167.167105 C13.3973684,171.485526 13.8276316,175.871053 14.6723684,180.303947 C14.7473684,180.730263 17.2026316,181.152632 17.2894737,181.578947 L19.0973684,181.578947 L20.9052632,181.578947 C20.1078947,178.977632 19.4131579,176.471053 18.8052632,173.984211 C18.3592105,172.160526 17.9605263,170.348684 17.6013158,168.517105 C17.4828947,167.909211 17.3684211,167.301316 17.2578947,166.689474 C16.8039474,164.167105 16.4171053,161.589474 16.0815789,158.873684 C15.9118421,157.488158 15.7539474,156.071053 15.6039474,154.606579 C15.4539474,152.703947 14.4671053,151.760526 13.8,151.721053 C13.5,151.496053 12.8368421,152.048684 12.8565789,153.161842 Z" id="Path" fill="url(#linearGradient-7)" fill-rule="nonzero"></path>
                        <path d="M13.0894737,153.536842 C13.1447368,158.139474 13.2039474,162.742105 13.4881579,167.396053 C13.7289474,171.505263 14.1552632,175.665789 14.9407895,179.885526 C15.0355263,180.446053 16.9223684,181.010526 17.0368421,181.578947 L18.7539474,181.578947 L20.4710526,181.578947 C19.7013158,179.068421 19.0421053,176.648684 18.4697368,174.248684 C18.0513158,172.484211 17.6763158,170.727632 17.3447368,168.955263 C17.2342105,168.363158 17.1276316,167.771053 17.025,167.171053 C16.6026316,164.727632 16.2473684,162.232895 15.9355263,159.615789 C15.7736842,158.281579 15.6276316,156.915789 15.4855263,155.506579 C15.3434211,153.777632 14.5697368,152.763158 14.0407895,152.415789 C13.8118421,151.977632 13.0578947,152.443421 13.0894737,153.536842 Z" id="Path" fill="url(#linearGradient-8)" fill-rule="nonzero"></path>
                        <path d="M13.3184211,153.911842 C13.3934211,158.502632 13.4881579,163.038158 13.8,167.621053 C14.0565789,171.521053 14.475,175.456579 15.2013158,179.463158 C15.3236842,180.161842 16.6460526,180.868421 16.7881579,181.578947 L18.4105263,181.578947 L20.0328947,181.578947 C19.2907895,179.159211 18.6671053,176.826316 18.1302632,174.513158 C17.7355263,172.803947 17.3921053,171.106579 17.0842105,169.393421 C16.9815789,168.817105 16.8828947,168.236842 16.7881579,167.656579 C16.4013158,165.292105 16.0736842,162.884211 15.7815789,160.361842 C15.6315789,159.078947 15.4934211,157.764474 15.3552632,156.414474 C15.2210526,154.859211 14.6644737,153.773684 14.2657895,153.118421 C14.1197368,152.459211 13.275,152.838158 13.3184211,153.911842 Z" id="Path" fill="url(#linearGradient-9)" fill-rule="nonzero"></path>
                        <path d="M13.5513158,154.282895 C13.65,158.857895 13.7763158,163.334211 14.1157895,167.842105 C14.3881579,171.532895 14.8026316,175.243421 15.4697368,179.036842 C15.6118421,179.877632 16.3657895,180.726316 16.5355263,181.578947 L18.0671053,181.578947 L19.5986842,181.578947 C18.8842105,179.25 18.2960526,177.003947 17.7986842,174.777632 C17.4315789,173.127632 17.1118421,171.485526 16.8276316,169.835526 C16.7328947,169.275 16.6421053,168.710526 16.5513158,168.146053 C16.1960526,165.860526 15.9,163.539474 15.6315789,161.111842 C15.4934211,159.880263 15.3631579,158.617105 15.2328947,157.322368 C15.1065789,155.944737 14.7671053,154.784211 14.5026316,153.821053 C14.4315789,152.940789 13.4921053,153.232895 13.5513158,154.282895 Z" id="Path" fill="url(#linearGradient-10)" fill-rule="nonzero"></path>
                        <path d="M13.7802632,154.657895 C13.8986842,159.221053 14.0644737,163.634211 14.4276316,168.067105 C14.7907895,172.5 15.3592105,176.948684 16.2828947,181.578947 L17.7236842,181.578947 L19.1644737,181.578947 C18.4776316,179.340789 17.925,177.181579 17.4631579,175.042105 C17.0013158,172.902632 16.6342105,170.782895 16.3184211,168.631579 C15.9986842,166.428947 15.7342105,164.186842 15.4815789,161.857895 C15.2368421,159.521053 15,157.097368 14.7434211,154.519737 C14.7434211,153.422368 13.7131579,153.627632 13.7802632,154.657895 Z" id="Path" fill="#697FDF" fill-rule="nonzero"></path>
                        <path d="M136.630263,152.040789 C136.661842,156.702632 136.744737,161.546053 136.559211,166.496053 C136.377632,171.446053 135.931579,176.498684 134.917105,181.578947 L130.752632,181.578947 L126.592105,181.578947 C128.115789,176.613158 129.390789,171.982895 130.428947,167.202632 C131.463158,162.418421 132.260526,157.480263 132.825,151.894737 C133.081579,148.275 136.582895,148.444737 136.630263,152.040789 Z" id="Path" fill="url(#linearGradient-11)" fill-rule="nonzero"></path>
                        <path d="M136.401316,152.415789 C136.413178,157.061842 136.456579,161.846053 136.247368,166.721053 C136.05,171.461842 135.611842,176.289474 134.652632,181.156579 C134.628947,181.298684 131.032895,181.436842 131.005263,181.578947 L129.015789,181.578947 L127.026316,181.578947 C127.878947,178.796053 128.644737,176.115789 129.327632,173.459211 C129.825,171.521053 130.275,169.594737 130.685526,167.640789 C130.819737,167.005263 130.95,166.361842 131.072368,165.718421 C131.593421,163.038158 132.039474,160.286842 132.418421,157.381579 C132.611842,155.897368 132.789474,154.369737 132.947368,152.794737 C133.113158,150.540789 134.534211,149.747368 135.469737,150.319737 C135.915789,150.532895 136.397368,151.255263 136.401316,152.415789 Z" id="Path" fill="url(#linearGradient-12)" fill-rule="nonzero"></path>
                        <path d="M136.168502,152.790789 C136.156579,157.425 136.168502,162.146053 135.935526,166.946053 C135.722368,171.473684 135.288158,176.080263 134.388158,180.734211 C134.340789,181.014474 131.313158,181.298684 131.257895,181.582895 L129.359211,181.582895 L127.460526,181.582895 C128.285526,178.890789 129.015789,176.297368 129.659211,173.727632 C130.128947,171.848684 130.555263,169.977632 130.938158,168.082895 C131.064474,167.459211 131.186842,166.835526 131.305263,166.207895 C131.794737,163.606579 132.209211,160.942105 132.564474,158.131579 C132.746053,156.698684 132.915789,155.226316 133.065789,153.702632 C133.223684,151.622368 134.427632,150.757895 135.228947,151.022368 C135.607895,151.014474 136.176316,151.65 136.168502,152.790789 Z" id="Path" fill="url(#linearGradient-13)" fill-rule="nonzero"></path>
                        <path d="M135.939474,153.161842 C135.907895,157.780263 135.884211,162.442105 135.623684,167.167105 C135.398684,171.485526 134.968421,175.871053 134.123684,180.303947 C134.052632,180.726316 131.593421,181.148684 131.510526,181.575 L129.702632,181.575 L127.894737,181.575 C128.692105,178.973684 129.386842,176.467105 129.994737,173.980263 C130.440789,172.156579 130.839474,170.344737 131.198684,168.513158 C131.317105,167.905263 131.431579,167.297368 131.542105,166.685526 C131.996053,164.163158 132.382895,161.585526 132.718421,158.869737 C132.888158,157.484211 133.046053,156.067105 133.196053,154.602632 C133.346053,152.7 134.332895,151.756579 135,151.717105 C135.296053,151.496053 135.959211,152.048684 135.939474,153.161842 Z" id="Path" fill="url(#linearGradient-14)" fill-rule="nonzero"></path>
                        <path d="M135.706579,153.536842 C135.651316,158.139474 135.592105,162.742105 135.307895,167.396053 C135.067105,171.505263 134.640789,175.665789 133.855263,179.885526 C133.760526,180.446053 131.869737,181.010526 131.755263,181.578947 L130.038158,181.578947 L128.328947,181.578947 C129.098684,179.068421 129.757895,176.648684 130.330263,174.248684 C130.748684,172.484211 131.123684,170.727632 131.455263,168.955263 C131.565789,168.363158 131.672368,167.771053 131.775,167.171053 C132.197368,164.727632 132.552632,162.232895 132.864474,159.615789 C133.026316,158.281579 133.172368,156.915789 133.314474,155.506579 C133.456579,153.777632 134.230263,152.763158 134.759211,152.415789 C134.984211,151.977632 135.738158,152.443421 135.706579,153.536842 Z" id="Path" fill="url(#linearGradient-15)" fill-rule="nonzero"></path>
                        <path d="M135.477632,153.911842 C135.402632,158.502632 135.307895,163.038158 134.996053,167.621053 C134.739474,171.521053 134.321053,175.456579 133.594737,179.463158 C133.476316,180.165789 132.153947,180.868421 132.011842,181.578947 L130.389474,181.578947 L128.763158,181.578947 C129.505263,179.159211 130.128947,176.826316 130.665789,174.513158 C131.060526,172.803947 131.403947,171.106579 131.711842,169.393421 C131.814474,168.817105 131.913158,168.236842 132.007895,167.656579 C132.394737,165.292105 132.722368,162.884211 133.014474,160.361842 C133.164474,159.078947 133.302632,157.764474 133.440789,156.414474 C133.575,154.859211 134.131579,153.773684 134.530263,153.118421 C134.676316,152.459211 135.521053,152.838158 135.477632,153.911842 Z" id="Path" fill="url(#linearGradient-16)" fill-rule="nonzero"></path>
                        <path d="M135.244737,154.282895 C135.146053,158.857895 135.019737,163.334211 134.680263,167.842105 C134.407895,171.532895 133.993421,175.243421 133.326316,179.036842 C133.184211,179.877632 132.430263,180.726316 132.260526,181.578947 L130.728947,181.578947 L129.197368,181.578947 C129.911842,179.25 130.5,177.003947 130.997368,174.777632 C131.364474,173.127632 131.684211,171.485526 131.968421,169.835526 C132.063158,169.275 132.153947,168.710526 132.244737,168.146053 C132.6,165.860526 132.896053,163.539474 133.164474,161.111842 C133.302632,159.880263 133.432895,158.617105 133.563158,157.322368 C133.689474,155.944737 134.028947,154.784211 134.293421,153.821053 C134.364474,152.940789 135.3,153.232895 135.244737,154.282895 Z" id="Path" fill="url(#linearGradient-17)" fill-rule="nonzero"></path>
                        <path d="M135.015789,154.657895 C134.897368,159.221053 134.731579,163.634211 134.368421,168.067105 C134.005263,172.5 133.436842,176.948684 132.513158,181.578947 L131.072368,181.578947 L129.631579,181.578947 C130.318421,179.340789 130.871053,177.181579 131.332895,175.042105 C131.794737,172.902632 132.161842,170.782895 132.477632,168.631579 C132.797368,166.428947 133.061842,164.186842 133.314474,161.857895 C133.563158,159.525 133.796053,157.101316 134.056579,154.523684 C134.052632,153.422368 135.082895,153.627632 135.015789,154.657895 Z" id="Path" fill="#546BCC" fill-rule="nonzero"></path>
                        <path d="M77.4513158,152.356579 C76.3144737,151.405263 74.6526316,151.425 73.5394737,152.4 L65.0921053,159.769737 C63.9078947,160.985526 61.8710526,160.638158 61.1565789,159.094737 C55.2473684,151.243421 49.1526316,141.828947 48.5171053,133.657895 L101.490789,133.578947 C101.013158,141.982895 96.7302632,151.926316 90.4934211,159.035526 C89.8776316,160.697368 87.7460526,161.163158 86.4986842,159.903947 L77.4513158,152.356579 Z" id="Path" fill="url(#linearGradient-18)" fill-rule="nonzero"></path>
                        <path d="M77.4513158,151.610526 C76.3144737,150.659211 74.6526316,150.678947 73.5394737,151.653947 L65.0921053,159.023684 C63.9078947,160.239474 61.8710526,159.892105 61.1565789,158.348684 C56.0921053,151.618421 49.0381579,140.775 48.4934211,133.776316 L101.510526,133.630263 C101.103947,140.834211 95.8381579,152.198684 90.4894737,158.293421 C89.8736842,159.955263 87.7421053,160.421053 86.4947368,159.161842 L77.4513158,151.610526 Z" id="Path" fill="url(#linearGradient-19)" fill-rule="nonzero"></path>
                        <path d="M77.4513158,150.860526 C76.3144737,149.909211 74.6526316,149.928947 73.5394737,150.903947 L65.0921053,158.273684 C63.9078947,159.489474 61.8710526,159.142105 61.1565789,157.598684 C56.9368421,151.989474 48.9236842,139.721053 48.4697368,133.886842 L101.534211,133.669737 C101.194737,139.673684 94.9460526,152.463158 90.4934211,157.539474 C89.8776316,159.201316 87.7460526,159.667105 86.4986842,158.407895 L77.4513158,150.860526 Z" id="Path" fill="url(#linearGradient-20)" fill-rule="nonzero"></path>
                        <path d="M77.4513158,150.114474 C76.3144737,149.163158 74.6526316,149.182895 73.5394737,150.157895 L65.0921053,157.527632 C63.9078947,158.743421 61.8710526,158.396053 61.1565789,156.852632 C57.7815789,152.364474 48.8092105,138.667105 48.45,134.001316 L101.557895,133.717105 C101.285526,138.521053 94.0578947,152.731579 90.4934211,156.793421 C89.8776316,158.455263 87.7460526,158.921053 86.4986842,157.661842 L77.4513158,150.114474 Z" id="Path" fill="url(#linearGradient-21)" fill-rule="nonzero"></path>
                        <path d="M77.4513158,149.364474 C76.3144737,148.413158 74.6526316,148.432895 73.5394737,149.407895 L65.0921053,156.777632 C63.9078947,157.993421 61.8710526,157.646053 61.1565789,156.102632 C58.6223684,152.739474 48.6986842,137.613158 48.4263158,134.111842 L101.581579,133.760526 C101.376316,137.364474 93.1657895,152.996053 90.4934211,156.043421 C89.8776316,157.705263 87.7460526,158.171053 86.4986842,156.911842 L77.4513158,149.364474 Z" id="Path" fill="url(#linearGradient-22)" fill-rule="nonzero"></path>
                        <path d="M77.4513158,148.618421 C76.3144737,147.667105 74.6526316,147.686842 73.5394737,148.661842 L65.0921053,156.031579 C63.9078947,157.247368 61.8710526,156.9 61.1565789,155.356579 C59.4671053,153.114474 48.5842105,136.559211 48.4026316,134.226316 L101.601316,133.807895 C101.467105,136.207895 92.2736842,153.268421 90.4894737,155.301316 C89.8736842,156.963158 87.7421053,157.428947 86.4947368,156.169737 L77.4513158,148.618421 Z" id="Path" fill="url(#linearGradient-23)" fill-rule="nonzero"></path>
                        <path d="M77.4513158,147.868421 C76.3144737,146.917105 74.6526316,146.936842 73.5394737,147.911842 L65.0921053,155.281579 C63.9078947,156.497368 61.8710526,156.15 61.1565789,154.606579 C60.3118421,153.485526 48.4697368,135.505263 48.3789474,134.336842 L101.625,133.851316 C101.557895,135.051316 91.3815789,153.532895 90.4934211,154.551316 C89.8776316,156.213158 87.7460526,156.678947 86.4986842,155.419737 L77.4513158,147.868421 Z" id="Path" fill="url(#linearGradient-24)" fill-rule="nonzero"></path>
                        <path d="M77.4513158,147.122368 C76.3144737,146.171053 74.6526316,146.190789 73.5394737,147.165789 L65.0921053,154.535526 C63.9078947,155.751316 61.8710526,155.403947 61.1565789,153.860526 L48.3592105,134.451316 L101.648684,133.894737 L90.4934211,153.801316 C89.8776316,155.463158 87.7460526,155.928947 86.4986842,154.669737 L77.4513158,147.122368 Z" id="Path" fill="#546BCC" fill-rule="nonzero"></path>
                        <path d="M73.6026316,144.789474 C73.6026316,144.789474 75.825,160.334211 75.9039474,163.65 C76.3973684,160.231579 77.4671053,146.759211 77.8776316,145.101316 C76.5631579,143.234211 75.8210526,143.340789 75.8210526,143.340789 L73.6026316,144.789474 Z" id="Path" fill="#546BCC" fill-rule="nonzero"></path>
                        <polygon id="Path" fill="url(#radialGradient-25)" fill-rule="nonzero" points="68.8578947 147.769737 71.9210526 153.947368 79.8157895 153.947368 82.6065789 147.532895 78.2960526 141.611842 73.3618421 141.611842"></polygon>
                        <path d="M79.7684211,153.947368 L71.8736842,153.947368 C69.8565789,164.822368 67.9263158,172.121053 67.9263158,181.578947 L83.7157895,181.578947 C83.7157895,172.863158 81.675,165.051316 79.7684211,153.947368 Z" id="Path" fill="url(#radialGradient-26)" fill-rule="nonzero"></path>
                        <path d="M75.6315789,141.509211 L65.0881579,152.313158 C63.9039474,153.528947 62.7078947,152.928947 61.1526316,151.638158 C55.6736842,146.755263 48.3552632,138.335526 48.3552632,132.228947 C48.3552632,126.915789 51.7657895,126.043421 55.8868421,125.885526 L94.9815789,125.727632 C98.9447368,125.727632 101.644737,126.915789 101.644737,131.676316 C101.644737,138.339474 95.0447368,146.719737 90.4894737,151.582895 C89.3526316,153.165789 87.7421053,153.710526 86.4947368,152.451316 L75.6315789,141.509211 Z" id="Path" fill="url(#linearGradient-27)" fill-rule="nonzero"></path>
                        <rect id="Rectangle" fill="#697FDF" fill-rule="nonzero" x="25.5355263" y="164.186842" width="35.5263158" height="7.89473684"></rect>
                        <rect id="Rectangle" fill="url(#radialGradient-28)" fill-rule="nonzero" x="23.6842105" y="161.842105" width="35.5263158" height="7.89473684"></rect>
                        <rect id="Rectangle" fill="#C9B156" fill-rule="nonzero" x="67.1052632" y="173.684211" width="17.8460526" height="3.94736842"></rect>
                        <path d="M125.001316,159.386842 L125.001316,155.897368 C120.414474,155.455263 116.139474,154.069737 112.207895,151.65 L112.207895,151.602632 C112.192105,151.610526 112.176316,151.618421 112.164474,151.626316 C112.148684,151.618421 112.132895,151.610526 112.121053,151.602632 L112.121053,151.65 C108.189474,154.065789 103.914474,155.451316 99.3276316,155.897368 L99.3276316,159.386842 C101.992105,160.657895 102.994737,161.175 102.994737,163.590789 C102.994737,166.543421 99.5960526,167.885526 100.847368,172.267105 C103.057895,178.278947 110.139474,176.013158 112.121053,179.494737 L112.121053,179.605263 C112.132895,179.581579 112.152632,179.573684 112.164474,179.55 C112.176316,179.569737 112.196053,179.581579 112.207895,179.605263 L112.207895,179.498684 C114.189474,176.017105 121.271053,178.278947 123.481579,172.271053 C124.732895,167.885526 121.334211,166.543421 121.334211,163.594737 C121.330263,161.175 122.332895,160.657895 125.001316,159.386842 Z" id="Path" fill="#546BCC" fill-rule="nonzero"></path>
                        <path d="M122.778947,158.388158 L122.778947,155.178947 C118.559211,154.772368 114.631579,153.497368 111.019737,151.275 L111.019737,151.231579 C111.007895,151.239474 110.992105,151.247368 110.980263,151.255263 C110.968421,151.247368 110.952632,151.239474 110.940789,151.231579 L110.940789,151.275 C107.328947,153.497368 103.397368,154.772368 99.1815789,155.178947 L99.1815789,158.388158 C101.632895,159.556579 102.552632,160.034211 102.552632,162.252632 C102.552632,164.968421 99.4263158,166.2 100.578947,170.230263 C102.611842,175.756579 109.121053,173.672368 110.940789,176.873684 L110.940789,176.972368 C110.952632,176.952632 110.972368,176.944737 110.980263,176.925 C110.992105,176.944737 111.011842,176.952632 111.019737,176.972368 L111.019737,176.873684 C112.839474,173.672368 119.348684,175.752632 121.381579,170.230263 C122.534211,166.2 119.407895,164.968421 119.407895,162.252632 C119.407895,160.034211 120.327632,159.556579 122.778947,158.388158 Z" id="Path" fill="url(#radialGradient-29)" fill-rule="nonzero"></path>
                        <rect id="Rectangle" fill="#BDA448" fill-rule="nonzero" x="103.784211" y="157.894737" width="13.4881579" height="3.94736842"></rect>
                        <rect id="Rectangle" fill="#BDA448" fill-rule="nonzero" x="103.784211" y="165.789474" width="13.4881579" height="3.94736842"></rect>
                        <path d="M9.20921053,161.842105 L3.12631579,161.842105 C1.39736842,167.269737 -0.0434210526,176.182895 -1.08420217e-19,181.578947 L3.94736842,177.631579 L9.20921053,161.842105 Z" id="Path" fill="#23427D" fill-rule="nonzero"></path>
                        <path d="M30.2368421,77.3723684 C27.2407895,76.4131579 20.0052632,77.025 19.7526316,85.8276316 C19.5157895,94.1526316 21.5842105,97.9460526 24.3276316,101.522368 C27.4065789,105.532895 32.9447368,105.501316 32.4868421,102.315789 C32.0328947,99.1302632 30.2368421,77.3723684 30.2368421,77.3723684 Z" id="Path" fill="url(#radialGradient-30)" fill-rule="nonzero"></path>
                        <path d="M120.331579,77.3723684 C123.165789,76.4131579 130.010526,77.025 130.247368,85.8276316 C130.472368,94.1526316 128.514474,97.9460526 125.917105,101.522368 C123.003947,105.532895 117.765789,105.501316 118.2,102.315789 C118.630263,99.1302632 120.331579,77.3723684 120.331579,77.3723684 Z" id="Path" fill="url(#radialGradient-31)" fill-rule="nonzero"></path>
                        <path d="M125.676316,77.8263158 C125.676316,89.2342105 124.914474,104.111842 120.375,113.238158 C111.536842,131.017105 88.0105263,142.105263 75.0592105,142.105263 C61.5986842,142.105263 38.3289474,131.017105 29.4907895,113.238158 C24.9552632,104.111842 24.4421053,89.2342105 24.4421053,77.8263158 C24.4421053,75.3197368 24.5092105,72.9552632 24.6434211,70.7092105 C25.4171053,57.7973684 28.3657895,48.8960526 32.9368421,40.6618421 C42.0118421,24.3157895 57.4894737,16.9302632 75.0592105,16.9302632 C92.5302632,16.9302632 107.936842,24.1973684 117.031579,40.3973684 C122.490789,50.1118421 125.676316,60.9078947 125.676316,77.8263158 Z" id="Path" fill="url(#radialGradient-32)" fill-rule="nonzero"></path>
                        <path d="M26.7394737,80.2421053 C26.7394737,80.2421053 28.0065789,64.5157895 27.2131579,59.925 C30.7855263,57.3315789 41.9052632,49.5434211 40.3184211,37.3697368 C44.8855263,41.1631579 68.3131579,57.1302632 105.836842,44.5539474 C114.177632,54.7342105 115.764474,55.1328947 122.115789,58.9263158 C123.702632,63.3157895 124.298684,77.7157895 124.101316,80.1118421 C123.903947,82.5078947 126.880263,84.3039474 128.269737,79.3144737 C128.707895,77.7434211 130.263158,64.5236842 130.263158,55.2631579 C130.263158,35.5263158 124.156579,5.35657895 75.4578947,4.94605263 C28.1842105,4.54736842 19.9815789,35.4434211 19.9815789,55.1802632 C19.9815789,67.0223684 22.8434211,79.7131579 22.8434211,79.7131579 C23.3881579,82.7013158 26.0960526,82.8315789 26.7394737,80.2421053 Z" id="Path" fill="url(#radialGradient-33)" fill-rule="nonzero"></path>
                        <g id="Group" stroke-width="1" fill="none" fill-rule="evenodd" transform="translate(19.736842, 23.684211)">
                            <path d="M106.721053,28.9460526 C106.602632,28.5552632 106.322368,28.2394737 105.971053,28.0342105 C100.211842,24.6434211 95.4631579,17.4039474 87.9394737,8.34078947 C87.5210526,7.83552632 86.8184211,7.62631579 86.1947368,7.82368421 C54.1657895,18.1381579 27.2763158,8.12763158 18.2486842,2.33684211 C17.1078947,1.60263158 15.7934211,2.51447368 15.7894737,3.88026316 C15.7421053,20.4986842 8.83815789,27.9986842 3.67894737,30.6907895 C3.06710526,31.0105263 2.77894737,31.6263158 2.75131579,32.3171053 C2.52236842,37.6815789 1.94210526,48.75 2.83815789,54.1302632 C2.99605263,55.3105263 3.10263158,56.0210526 3.10263158,56.0210526 C3.64736842,59.0092105 6.34736842,59.1394737 6.99078947,56.55 C6.99078947,56.55 8.11973684,42.5447368 7.57894737,37.1092105 C7.52368421,36.5486842 7.78026316,36.0039474 8.23026316,35.6723684 C11.9802632,32.9289474 20.175,26.5302632 20.6802632,16.9578947 C20.7473684,15.6789474 22.1092105,14.9013158 23.1671053,15.6118421 C31.1565789,20.9881579 52.7763158,31.6223684 84.9513158,21.2052632 C85.575,21.0039474 86.2855263,21.2131579 86.7039474,21.7223684 C94.1802632,30.7776316 95.9881579,31.5118421 101.696053,34.8986842 C102.043421,35.1039474 102.331579,35.4236842 102.446053,35.8144737 C103.890789,40.7684211 104.431579,54.1223684 104.242105,56.4197368 C104.044737,58.8157895 107.017105,60.6118421 108.406579,55.6223684 C108.461842,55.4210526 108.544737,55.0184211 108.643421,54.4578947 C109.326316,50.9881579 108.209211,33.9078947 106.721053,28.9460526 Z" id="Path" fill="url(#radialGradient-34)" fill-rule="nonzero"></path>
                            <path d="M16.0697368,4.95394737 C16.1526316,19.2710526 10.3697368,26.8815789 5.47894737,30.1618421 C4.88289474,30.5605263 4.33421053,30.9631579 3.85657895,31.3026316 C3.34736842,31.6657895 3.09868421,32.2657895 3.08289474,32.9526316 C2.97236842,37.4171053 2.60921053,45.4736842 2.85,50.3921053 C2.85789474,51.8289474 2.80657895,53.0407895 2.81052632,53.9526316 C2.82236842,54.0315789 2.83421053,54.1144737 2.84605263,54.1894737 C3,55.3381579 3.10263158,56.0328947 3.10263158,56.0328947 C3.64736842,59.0210526 6.34736842,59.1513158 6.99078947,56.5618421 C6.99078947,56.5618421 8.11973684,42.5565789 7.57894737,37.1210526 C7.52368421,36.5605263 7.78026316,36.0157895 8.23026316,35.6842105 C11.9802632,32.9407895 20.175,26.5421053 20.6802632,16.9697368 C20.7473684,15.6907895 22.1092105,14.9131579 23.1671053,15.6236842 C31.1565789,21 52.7763158,31.6342105 84.9513158,21.2171053 C85.575,21.0157895 86.2855263,21.225 86.7039474,21.7342105 C94.1802632,30.7894737 95.9881579,31.5236842 101.696053,34.9105263 C102.043421,35.1157895 102.331579,35.4355263 102.446053,35.8263158 C103.890789,40.7802632 104.431579,54.1342105 104.242105,56.4315789 C104.044737,58.8276316 107.017105,60.6236842 108.406579,55.6342105 C108.461842,55.4328947 108.544737,55.0302632 108.643421,54.4697368 C108.619737,54.0039474 108.548684,52.5197368 108.552632,50.6763158 C108.564474,44.8421053 107.593421,33.3631579 106.393421,29.3565789 C106.278947,28.9776316 106.010526,28.6736842 105.675,28.4684211 C105.603947,28.425 105.532895,28.3815789 105.457895,28.3381579 C99.7815789,24.9039474 95.3723684,18.6513158 87.9276316,9.68684211 C87.5092105,9.18157895 86.8065789,8.97236842 86.1828947,9.16973684 C54.1539474,19.4842105 27.5447368,9.20921053 18.5171053,3.41842105 C17.3842105,2.67631579 16.0578947,3.58815789 16.0697368,4.95394737 Z" id="Path" fill="url(#radialGradient-35)" fill-rule="nonzero"></path>
                            <path d="M16.3460526,6.01973684 C16.5513158,19.8513158 10.4684211,27.4973684 5.53421053,30.6828947 C4.93421053,31.0697368 4.425,31.5118421 4.02631579,31.9026316 C3.62368421,32.3013158 3.41447368,32.8973684 3.40657895,33.5763158 C3.36710526,38.2736842 3.04342105,46.5986842 3.24078947,50.6960526 C3.18947368,52.1328947 2.96842105,53.25 2.81052632,53.9763158 C2.82236842,54.0631579 2.83815789,54.15 2.85,54.2328947 C3,55.35 3.09868421,56.025 3.09868421,56.025 C3.64342105,59.0131579 6.34342105,59.1434211 6.98684211,56.5539474 C6.98684211,56.5539474 8.11578947,42.5486842 7.575,37.1131579 C7.51973684,36.5526316 7.77631579,36.0078947 8.22631579,35.6763158 C11.9763158,32.9328947 20.1710526,26.5342105 20.6763158,16.9618421 C20.7434211,15.6828947 22.1052632,14.9052632 23.1631579,15.6157895 C31.1526316,20.9921053 52.7723684,31.6263158 84.9473684,21.2092105 C85.5710526,21.0078947 86.2815789,21.2171053 86.7,21.7263158 C94.1763158,30.7815789 95.9842105,31.5157895 101.692105,34.9026316 C102.039474,35.1078947 102.327632,35.4276316 102.442105,35.8184211 C103.886842,40.7723684 104.427632,54.1263158 104.238158,56.4236842 C104.040789,58.8197368 107.013158,60.6157895 108.402632,55.6263158 C108.457895,55.425 108.540789,55.0223684 108.639474,54.4618421 C108.446053,54.3118421 108.236842,52.8039474 108.256579,50.9644737 C108.315789,45.7184211 107.321053,33.9157895 106.073684,29.7473684 C105.963158,29.3802632 105.706579,29.0842105 105.386842,28.8789474 C105.315789,28.8315789 105.244737,28.7881579 105.169737,28.7447368 C99.4776316,25.3184211 95.3842105,19.9855263 87.9236842,11.0052632 C87.5052632,10.5 86.8026316,10.2907895 86.1789474,10.4881579 C54.15,20.8026316 27.8171053,10.2671053 18.7894737,4.47631579 C17.6644737,3.74605263 16.3223684,4.65789474 16.3460526,6.01973684 Z" id="Path" fill="url(#radialGradient-36)" fill-rule="nonzero"></path>
                            <path d="M16.6263158,7.08947368 C16.9894737,20.4355263 10.575,28.1210526 5.59736842,31.2039474 C4.99736842,31.5789474 4.51973684,32.0605263 4.20394737,32.5065789 C3.90394737,32.9368421 3.73421053,33.5289474 3.73815789,34.2039474 C3.77763158,39.1342105 3.48157895,47.7276316 3.64342105,51.0078947 C3.53289474,52.4407895 3.14210526,53.4631579 2.82236842,54.0078947 C2.83421053,54.1026316 2.85,54.1934211 2.86184211,54.2842105 C3.00789474,55.3736842 3.10657895,56.025 3.10657895,56.025 C3.65131579,59.0131579 6.35131579,59.1434211 6.99473684,56.5539474 C6.99473684,56.5539474 8.12368421,42.5486842 7.58289474,37.1131579 C7.52763158,36.5526316 7.78421053,36.0078947 8.23421053,35.6763158 C11.9842105,32.9328947 20.1789474,26.5342105 20.6842105,16.9618421 C20.7513158,15.6828947 22.1131579,14.9052632 23.1710526,15.6157895 C31.1605263,20.9921053 52.7802632,31.6263158 84.9552632,21.2092105 C85.5789474,21.0078947 86.2894737,21.2171053 86.7078947,21.7263158 C94.1842105,30.7815789 95.9921053,31.5157895 101.7,34.9026316 C102.047368,35.1078947 102.335526,35.4276316 102.45,35.8184211 C103.894737,40.7723684 104.435526,54.1263158 104.246053,56.4236842 C104.048684,58.8197368 107.021053,60.6157895 108.410526,55.6263158 C108.465789,55.425 108.548684,55.0223684 108.647368,54.4618421 C108.280263,54.6236842 107.932895,53.0921053 107.972368,51.2605263 C108.071053,46.6065789 107.056579,34.4763158 105.761842,30.15 C105.655263,29.7947368 105.410526,29.5065789 105.106579,29.3013158 C105.035526,29.2539474 104.964474,29.2065789 104.889474,29.1631579 C99.1855263,25.7447368 95.4039474,21.3315789 87.9315789,12.3355263 C87.5131579,11.8302632 86.8105263,11.6210526 86.1868421,11.8184211 C54.1578947,22.1328947 28.1052632,11.3328947 19.0776316,5.54210526 C17.9407895,4.81578947 16.5868421,5.72763158 16.6263158,7.08947368 Z" id="Path" fill="url(#radialGradient-37)" fill-rule="nonzero"></path>
                            <path d="M16.9026316,8.15921053 C17.3881579,21.0157895 10.6776316,28.7407895 5.65263158,31.7289474 C5.04868421,32.0881579 4.60263158,32.6052632 4.37763158,33.1144737 C4.17631579,33.5684211 4.05394737,34.1684211 4.06578947,34.8355263 C4.18421053,39.9986842 3.91578947,48.8644737 4.03815789,51.3236842 C3.86447368,52.7565789 3.30789474,53.6842105 2.82631579,54.0434211 C2.84210526,54.1460526 2.85394737,54.2447368 2.86973684,54.3394737 C3.01184211,55.3973684 3.10657895,56.0328947 3.10657895,56.0328947 C3.65131579,59.0210526 6.35131579,59.1513158 6.99473684,56.5618421 C6.99473684,56.5618421 8.12368421,42.5565789 7.58289474,37.1210526 C7.52763158,36.5605263 7.78421053,36.0157895 8.23421053,35.6842105 C11.9842105,32.9407895 20.1789474,26.5421053 20.6842105,16.9697368 C20.7513158,15.6907895 22.1131579,14.9131579 23.1710526,15.6236842 C31.1605263,21 52.7802632,31.6342105 84.9552632,21.2171053 C85.5789474,21.0157895 86.2894737,21.225 86.7078947,21.7342105 C94.1842105,30.7894737 95.9921053,31.5236842 101.7,34.9105263 C102.047368,35.1157895 102.335526,35.4355263 102.45,35.8263158 C103.894737,40.7802632 104.435526,54.1342105 104.246053,56.4315789 C104.048684,58.8276316 107.021053,60.6236842 108.410526,55.6342105 C108.465789,55.4328947 108.548684,55.0302632 108.647368,54.4697368 C108.106579,54.9473684 107.621053,53.3881579 107.684211,51.5644737 C107.818421,47.4986842 106.788158,35.0447368 105.446053,30.5605263 C105.343421,30.2210526 105.110526,29.9368421 104.818421,29.7355263 C104.747368,29.6881579 104.676316,29.6407895 104.601316,29.5973684 C98.8815789,26.1868421 95.4157895,22.6934211 87.9315789,13.6815789 C87.5131579,13.1763158 86.8105263,12.9671053 86.1868421,13.1644737 C54.1578947,23.4789474 28.3815789,12.4184211 19.3539474,6.62368421 C18.2210526,5.88552632 16.8513158,6.79736842 16.9026316,8.15921053 Z" id="Path" fill="url(#radialGradient-38)" fill-rule="nonzero"></path>
                            <path d="M17.1789474,9.22894737 C17.7868421,21.6 10.7763158,29.3644737 5.70789474,32.2539474 C5.1,32.6013158 4.68157895,33.15 4.54736842,33.7184211 C4.43684211,34.2 4.36578947,34.8 4.39342105,35.4631579 C4.59868421,40.8592105 4.35394737,49.9934211 4.43289474,51.6355263 C4.2,53.0684211 3.47763158,53.8973684 2.83026316,54.0789474 C2.84605263,54.1855263 2.86184211,54.2921053 2.87368421,54.3907895 C3.01184211,55.4171053 3.10263158,56.0328947 3.10263158,56.0328947 C3.64736842,59.0210526 6.34736842,59.1513158 6.99078947,56.5618421 C6.99078947,56.5618421 8.11973684,42.5565789 7.57894737,37.1210526 C7.52368421,36.5605263 7.78026316,36.0157895 8.23026316,35.6842105 C11.9802632,32.9407895 20.175,26.5421053 20.6802632,16.9697368 C20.7473684,15.6907895 22.1092105,14.9131579 23.1671053,15.6236842 C31.1565789,21 52.7763158,31.6342105 84.9513158,21.2171053 C85.575,21.0157895 86.2855263,21.225 86.7039474,21.7342105 C94.1802632,30.7894737 95.9881579,31.5236842 101.696053,34.9105263 C102.043421,35.1157895 102.331579,35.4355263 102.446053,35.8263158 C103.890789,40.7802632 104.431579,54.1342105 104.242105,56.4315789 C104.044737,58.8276316 107.017105,60.6236842 108.406579,55.6342105 C108.461842,55.4328947 108.544737,55.0302632 108.643421,54.4697368 C107.928947,55.2592105 107.305263,53.6763158 107.388158,51.8605263 C107.546053,48.3828947 106.511842,35.6052632 105.122368,30.9631579 C105.023684,30.6355263 104.802632,30.3592105 104.526316,30.1578947 C104.455263,30.1065789 104.384211,30.0592105 104.309211,30.0157895 C98.5776316,26.6131579 95.4236842,24.0394737 87.9236842,15.0118421 C87.5052632,14.5065789 86.8026316,14.2973684 86.1789474,14.4947368 C54.15,24.8092105 28.65,13.4842105 19.6223684,7.69342105 C18.4973684,6.95131579 17.1157895,7.86710526 17.1789474,9.22894737 Z" id="Path" fill="url(#radialGradient-39)" fill-rule="nonzero"></path>
                            <path d="M17.4592105,10.2986842 C18.1657895,22.1842105 10.8828947,29.9842105 5.76710526,32.775 C5.15921053,33.1065789 4.75263158,33.6907895 4.72105263,34.3223684 C4.69736842,34.8276316 4.68552632,35.4315789 4.72105263,36.0868421 C5.01710526,41.7157895 4.78815789,51.1223684 4.82763158,51.9434211 C4.53157895,53.3763158 3.64342105,54.1105263 2.83421053,54.1065789 C2.85,54.2210526 2.86578947,54.3315789 2.88157895,54.4381579 C3.01578947,55.4368421 3.10263158,56.0289474 3.10263158,56.0289474 C3.64736842,59.0171053 6.34736842,59.1473684 6.99078947,56.5578947 C6.99078947,56.5578947 8.11973684,42.5526316 7.57894737,37.1171053 C7.52368421,36.5565789 7.78026316,36.0118421 8.23026316,35.6802632 C11.9802632,32.9368421 20.175,26.5381579 20.6802632,16.9657895 C20.7473684,15.6868421 22.1092105,14.9092105 23.1671053,15.6197368 C31.1565789,20.9960526 52.7763158,31.6302632 84.9513158,21.2131579 C85.575,21.0118421 86.2855263,21.2210526 86.7039474,21.7302632 C94.1802632,30.7855263 95.9881579,31.5197368 101.696053,34.9065789 C102.043421,35.1118421 102.331579,35.4315789 102.446053,35.8223684 C103.890789,40.7763158 104.431579,54.1302632 104.242105,56.4276316 C104.044737,58.8236842 107.017105,60.6197368 108.406579,55.6302632 C108.461842,55.4289474 108.544737,55.0263158 108.643421,54.4657895 C107.755263,55.5710526 106.985526,53.9605263 107.096053,52.1526316 C107.273684,49.2671053 106.243421,36.1618421 104.802632,31.3578947 C104.707895,31.0421053 104.498684,30.7736842 104.238158,30.5763158 C104.171053,30.525 104.096053,30.4736842 104.021053,30.4302632 C98.2736842,27.0315789 95.4355263,25.3815789 87.9236842,16.3381579 C87.5052632,15.8328947 86.8026316,15.6236842 86.1789474,15.8210526 C54.15,26.1355263 28.9302632,14.55 19.9026316,8.75526316 C18.7736842,8.02105263 17.3723684,8.93684211 17.4592105,10.2986842 Z" id="Path" fill="url(#radialGradient-40)" fill-rule="nonzero"></path>
                            <path d="M106.819737,52.4447368 C107.009211,50.1473684 105.986842,36.7184211 104.502632,31.7565789 C104.384211,31.3657895 104.103947,31.05 103.752632,30.8447368 C97.9934211,27.4539474 95.4671053,26.7236842 87.9434211,17.6605263 C87.525,17.1552632 86.8223684,16.9460526 86.1986842,17.1434211 C54.1697368,27.4578947 29.2263158,15.6078947 20.1986842,9.81710526 C19.0578947,9.08289474 17.6407895,9.99868421 17.7394737,11.3605263 C18.5723684,22.7605263 10.9894737,30.6 5.83026316,33.2921053 C5.21842105,33.6118421 4.82368421,34.2315789 4.90263158,34.9184211 C5.49868421,40.3026316 5.23026316,52.2434211 5.23026316,52.2434211 C4.875,53.6723684 3.81710526,54.3157895 2.84605263,54.1263158 C3.00394737,55.3065789 3.11052632,56.0171053 3.11052632,56.0171053 C3.65526316,59.0052632 6.35526316,59.1355263 6.99868421,56.5460526 C6.99868421,56.5460526 8.12763158,42.5407895 7.58684211,37.1052632 C7.53157895,36.5447368 7.78815789,36 8.23815789,35.6684211 C11.9881579,32.925 20.1828947,26.5263158 20.6881579,16.9539474 C20.7552632,15.675 22.1171053,14.8973684 23.175,15.6078947 C31.1644737,20.9842105 52.7842105,31.6184211 84.9592105,21.2013158 C85.5828947,21 86.2934211,21.2092105 86.7118421,21.7184211 C94.1881579,30.7736842 95.9960526,31.5078947 101.703947,34.8947368 C102.051316,35.1 102.339474,35.4197368 102.453947,35.8105263 C103.898684,40.7644737 104.439474,54.1184211 104.25,56.4157895 C104.052632,58.8118421 107.025,60.6078947 108.414474,55.6184211 C108.469737,55.4171053 108.552632,55.0144737 108.651316,54.4539474 C107.597368,55.8828947 106.669737,54.2486842 106.819737,52.4447368 Z" id="Path" fill="#603813" fill-rule="nonzero"></path>
                        </g>
                        <g id="Group" stroke-width="1" fill="none" fill-rule="evenodd" transform="translate(23.684211, 35.526316)">
                            <path d="M96.6157895,22.7763158 C90.9434211,19.4013158 89.7513158,18.9 82.3776316,9.95131579 C81.9039474,9.37894737 81.2407895,9.58026316 80.5381579,9.80921053 C48.9592105,20.0092105 28.5236842,10.3381579 20.5657895,5.15131579 C19.425,4.40921053 17.8578947,5.13552632 17.7631579,6.50131579 C17.1394737,15.5684211 9.225,20.6565789 5.43947368,23.2381579 C4.87105263,23.625 4.60263158,24.2842105 4.66578947,24.9710526 C5.1,29.7710526 3.77368421,43.7723684 3.30394737,44.0092105 C4.14473684,43.8078947 7.36973684,31.275 7.92631579,26.8065789 C7.99342105,26.2578947 8.25,25.7763158 8.70789474,25.4763158 C12.2052632,23.175 18.1776316,19.6934211 20.4118421,13.5710526 C20.7828947,12.5526316 21.9552632,12.0986842 22.9105263,12.6039474 C30.1223684,16.4052632 50.4947368,24.4776316 78.6355263,16.0144737 C79.3263158,15.8052632 80.0881579,16.0421053 80.5539474,16.5947368 C86.4828947,23.5934211 89.9605263,24.2526316 94.5789474,26.3131579 C94.9855263,26.4947368 95.3407895,26.8263158 95.5263158,27.2289474 C97.9342105,32.4197368 96.7302632,45.1460526 100.440789,46.3894737 C98.8263158,43.8236842 99.7105263,28.9460526 97.3973684,23.6486842 C97.2434211,23.2776316 96.9473684,22.9736842 96.6157895,22.7763158 Z" id="Path" fill="url(#radialGradient-41)" fill-rule="nonzero"></path>
                            <path d="M17.6171053,6.27631579 C17.025,15.4065789 9.09868421,20.6802632 5.30526316,23.2973684 C5.21447368,23.3605263 5.13157895,23.4276316 5.05657895,23.4986842 C4.65394737,23.8815789 4.46447368,24.4342105 4.51973684,25.0105263 C4.89078947,28.9697368 4.07368421,39.3197368 3.58815789,42.6671053 C3.43421053,43.65 3.25657895,44.2578947 3.10263158,44.3368421 C3.42631579,44.2578947 3.90394737,43.3184211 4.38157895,41.9052632 C5.57368421,38.1434211 7.17236842,30.0394737 7.55526316,26.6407895 C7.61842105,26.1078947 7.86315789,25.6381579 8.30921053,25.3421053 C11.7710526,23.0289474 17.7552632,19.3657895 20.0092105,13.0263158 C20.3723684,12.0078947 21.3986842,11.5105263 22.2552632,11.7473684 C22.5039474,11.8144737 22.8355263,11.8934211 23.1710526,12.0671053 C30.825,16.0026316 51.1381579,23.8421053 78.8842105,15.3355263 C79.4368421,15.1657895 80.0447368,15.2921053 80.4907895,15.6394737 C80.6092105,15.7302632 80.7197368,15.8368421 80.8184211,15.9513158 C86.7276316,22.95 89.8618421,23.7197368 94.3934211,25.8039474 C94.575,25.8868421 94.7565789,25.9776316 94.9342105,26.0763158 C95.0605263,26.1434211 95.1789474,26.2302632 95.2855263,26.325 C95.5105263,26.5263158 95.7,26.775 95.8184211,27.0631579 C97.4368421,30.8921053 97.35,38.7355263 98.3210526,42.9315789 C98.7513158,44.7868421 99.5368421,46.2789474 100.689474,46.4565789 C100.247368,46.0144737 99.9315789,44.925 99.7934211,43.5078947 C99.3039474,38.5894737 99.3355263,27.9118421 97.5631579,23.6842105 C97.4131579,23.325 97.1210526,23.0210526 96.7855263,22.8236842 C91.1052632,19.4447368 89.8263158,18.9118421 82.4368421,9.94342105 C81.975,9.38289474 81.3078947,9.525 80.6171053,9.75 C48.9276316,19.9934211 28.3144737,10.1565789 20.3644737,4.95 C19.2355263,4.20789474 17.7039474,4.93026316 17.6171053,6.27631579 Z" id="Path" fill="url(#radialGradient-42)" fill-rule="nonzero"></path>
                            <path d="M17.4710526,6.05526316 C16.9105263,15.2447368 8.97631579,20.7078947 5.17105263,23.3644737 C5.08421053,23.4276316 5.00131579,23.4907895 4.92236842,23.5618421 C4.51184211,23.9368421 4.31842105,24.4855263 4.37368421,25.0578947 C4.76842105,29.1631579 3.9,40.2236842 3.49736842,43.0105263 C3.33157895,43.9697368 3.11052632,44.5697368 2.89736842,44.6763158 C3.31578947,44.5776316 3.86842105,43.6578947 4.34210526,42.2881579 C5.44342105,38.6921053 6.80526316,30.0236842 7.17236842,26.4789474 C7.22763158,25.9618421 7.46842105,25.5 7.89868421,25.2118421 C11.3210526,22.8907895 17.3210526,19.0460526 19.5986842,12.4855263 C19.9539474,11.4710526 20.8855263,11.0921053 21.5921053,10.8947368 C21.8092105,10.8355263 22.1723684,10.8868421 22.5236842,11.0723684 C29.9289474,14.9881579 50.6763158,23.5342105 79.125,14.6565789 C79.6894737,14.4828947 80.3052632,14.6210526 80.7513158,14.9960526 C80.8657895,15.0907895 80.9723684,15.1973684 81.0710526,15.3157895 C87.1934211,22.5986842 90.0315789,23.2697368 94.7486842,25.5473684 C94.9342105,25.6381579 95.1118421,25.7368421 95.2855263,25.8473684 C95.4078947,25.9263158 95.5184211,26.0210526 95.6171053,26.1276316 C95.8184211,26.3407895 95.9921053,26.6052632 96.1065789,26.9013158 C97.6460526,30.9039474 97.5671053,39.2052632 98.4197368,43.1052632 C98.8184211,44.9328947 99.7223684,46.5394737 100.930263,46.5276966 C100.385526,46.1802632 99.9868421,45.0868421 99.8763158,43.6855263 C99.5289474,39.2013158 99.4381579,27.9986842 97.7210526,23.7276316 C97.575,23.3644737 97.2868421,23.0605263 96.9513158,22.8631579 C91.2631579,19.4842105 89.8973684,18.9157895 82.4881579,9.92763158 C82.0342105,9.37894737 81.3671053,9.46578947 80.6921053,9.68289474 C48.8960526,19.9657895 28.1013158,9.97105263 20.1592105,4.73684211 C19.05,4.01052632 17.5539474,4.72894737 17.4710526,6.05526316 Z" id="Path" fill="url(#radialGradient-43)" fill-rule="nonzero"></path>
                            <path d="M17.3289474,5.83421053 C16.8,15.0868421 8.85394737,20.7355263 5.03684211,23.4276316 C4.95,23.4907895 4.86710526,23.5539474 4.78815789,23.6210526 C4.36973684,23.9881579 4.17236842,24.5328947 4.22763158,25.1013158 C4.65,29.3486842 3.73026316,41.1197368 3.40657895,43.35 C3.23289474,44.2894737 2.96842105,44.8736842 2.69605263,45.0118421 C3.20921053,44.8894737 3.83684211,43.9894737 4.31052632,42.6710526 C5.31710526,39.2447368 6.45394737,30.0118421 6.80131579,26.3210526 C6.84868421,25.8157895 7.08552632,25.3697368 7.5,25.0855263 C10.8868421,22.7565789 16.8947368,18.7263158 19.1960526,11.9526316 C19.5434211,10.9421053 20.3526316,10.3263158 20.9368421,10.05 C21.1460526,9.95131579 21.5210526,9.88815789 21.8842105,10.0894737 C29.0447368,13.9815789 50.2263158,23.2381579 79.3736842,13.9934211 C79.9460526,13.8118421 80.5815789,13.9657895 81.0157895,14.3644737 C81.1263158,14.4671053 81.2328947,14.5736842 81.3315789,14.6921053 C87.6710526,22.2552632 90.2092105,22.8197368 95.1078947,25.2986842 C95.2934211,25.3934211 95.475,25.5039474 95.6368421,25.6302632 C95.7513158,25.7210526 95.8578947,25.8236842 95.9447368,25.9381579 C96.1223684,26.1671053 96.2802632,26.4434211 96.3907895,26.7513158 C97.8513158,30.9315789 97.7763158,39.6828947 98.5184211,43.2868421 C98.8855263,45.0828947 99.9118421,46.8118421 101.171053,46.6065789 C100.527632,46.3539474 100.034211,45.2565789 99.9592105,43.8671053 C99.7421053,39.8210526 99.5368421,28.0934211 97.875,23.775 C97.7328947,23.4078947 97.4447368,23.1039474 97.1092105,22.9065789 C91.4131579,19.5236842 89.9605263,18.9236842 82.5315789,9.91578947 C82.0894737,9.37894737 81.4144737,9.40657895 80.7552632,9.61973684 C48.8486842,19.9421053 27.8763158,9.78947368 19.9421053,4.53157895 C18.8605263,3.81315789 17.4039474,4.52763158 17.3289474,5.83421053 Z" id="Path" fill="url(#radialGradient-44)" fill-rule="nonzero"></path>
                            <path d="M17.1828947,5.60921053 C16.6855263,14.9210526 8.73157895,20.7592105 4.90263158,23.4907895 C4.81578947,23.5539474 4.73289474,23.6171053 4.65394737,23.6802632 C4.22763158,24.0355263 4.02236842,24.5763158 4.08157895,25.1447368 C4.52763158,29.5381579 3.56052632,42.0157895 3.31578947,43.6894737 C3.13421053,44.6052632 2.82236842,45.1776316 2.49078947,45.3434211 C3.09868421,45.1973684 3.80131579,44.3210526 4.275,43.05 C5.19078947,39.7894737 6.09868421,29.9921053 6.42236842,26.1592105 C6.46578947,25.6697368 6.69078947,25.2355263 7.09342105,24.9552632 C10.4447368,22.6144737 16.4644737,18.4026316 18.7855263,11.4118421 C19.1210526,10.4052632 19.8197368,9.67105263 20.2736842,9.20131579 C20.4631579,9.00394737 20.8578947,8.88552632 21.2407895,9.09868421 C28.1605263,12.9592105 49.7723684,22.9381579 79.6184211,13.3223684 C80.1986842,13.1368421 80.85,13.3026316 81.2802632,13.725 C81.3868421,13.8315789 81.4934211,13.9421053 81.5881579,14.0605263 C88.1407895,21.9039474 90.3828947,22.3618421 95.4631579,25.0460526 C95.6526316,25.1447368 95.8302632,25.2671053 95.9842105,25.4092105 C96.0947368,25.5078947 96.1934211,25.6263158 96.2723684,25.7486842 C96.4302632,25.9934211 96.5723684,26.2815789 96.675,26.6013158 C98.0565789,30.9552632 97.9815789,40.1605263 98.6131579,43.4723684 C98.9486842,45.2407895 100.093421,47.0842105 101.407895,46.6894737 C100.661842,46.5355263 100.077632,45.4342105 100.042105,44.0526316 C99.9473684,40.4447368 99.6394737,28.1881579 98.0328947,23.8263158 C97.8986842,23.4592105 97.6105263,23.1513158 97.275,22.9539474 C91.5710526,19.5671053 90.0315789,18.9355263 82.5828947,9.90789474 C82.1486842,9.38289474 81.4736842,9.35131579 80.8263158,9.56052632 C48.8131579,19.9144737 27.6631579,9.60394737 19.7368421,4.32236842 C18.6710526,3.61578947 17.2539474,4.32631579 17.1828947,5.60921053 Z" id="Path" fill="url(#radialGradient-45)" fill-rule="nonzero"></path>
                            <path d="M17.0368421,5.38815789 C16.5710526,14.7631579 8.60526316,20.7907895 4.76447368,23.5578947 C4.67763158,23.6210526 4.59473684,23.6842105 4.51578947,23.7473684 C4.08157895,24.0947368 3.87236842,24.6315789 3.93157895,25.1960526 C4.40526316,29.7315789 3.38684211,42.9197368 3.225,44.0368421 C3.03157895,44.9328947 2.67631579,45.4894737 2.28947368,45.6868421 C2.99210526,45.5171053 3.76973684,44.6605263 4.23947368,43.4368421 C5.06447368,40.3421053 5.74736842,29.9802632 6.04736842,26.0052632 C6.08289474,25.5276316 6.30394737,25.1052632 6.69473684,24.8328947 C10.0105263,22.4842105 16.0421053,18.0907895 18.3828947,10.8789474 C18.7105263,9.87631579 19.2710526,9.02368421 19.6184211,8.35657895 C19.7763158,8.05657895 20.2026316,7.88684211 20.6013158,8.11184211 C27.2842105,11.9368421 49.3223684,22.6381579 79.8671053,12.6552632 C80.4592105,12.4618421 81.1223684,12.6434211 81.5447368,13.0894737 C81.6513158,13.2 81.75,13.3144737 81.8486842,13.4289474 C88.6144737,21.5526316 90.5644737,21.8960526 95.8263158,24.7894737 C96.0157895,24.8921053 96.1934211,25.0263158 96.3434211,25.1802632 C96.45,25.2907895 96.5407895,25.4171053 96.6118421,25.5513158 C96.75,25.8118421 96.8723684,26.1078947 96.9671053,26.4394737 C98.2697368,30.9671053 98.1907895,40.6302632 98.7157895,43.6460526 C99.0197368,45.3868421 100.286842,47.3447368 101.656579,46.7605263 C100.807895,46.7013158 100.128947,45.6 100.132895,44.2302632 C100.144737,41.0605263 99.7460526,28.2789474 98.1947368,23.8736842 C98.0644737,23.5026316 97.7802632,23.1947368 97.4447368,22.9973684 C91.7328947,19.6065789 90.1065789,18.9434211 82.6381579,9.89210526 C82.2157895,9.37894737 81.5368421,9.29210526 80.9013158,9.49342105 C48.7736842,19.8947368 27.4460526,9.42631579 19.5276316,4.12105263 C18.4855263,3.41447368 17.1039474,4.125 17.0368421,5.38815789 Z" id="Path" fill="url(#radialGradient-46)" fill-rule="nonzero"></path>
                            <path d="M16.8947368,5.16710526 C16.4605263,14.6052632 8.48684211,20.8184211 4.63421053,23.6210526 C4.54736842,23.6842105 4.46842105,23.7434211 4.38552632,23.8065789 C3.94342105,24.1460526 3.73026316,24.6789474 3.78947368,25.2394737 C4.28684211,29.9171053 3.21710526,43.8157895 3.13815789,44.3763158 C2.93684211,45.2526316 2.53815789,45.7934211 2.08815789,46.0184211 C2.88552632,45.825 3.73815789,44.9921053 4.20789474,43.8157895 C4.93815789,40.8868421 5.41184211,29.9644737 5.67631579,25.8434211 C5.70789474,25.3815789 5.92105263,24.9710526 6.29605263,24.7026316 C9.57631579,22.3421053 15.6197368,17.7671053 17.9802632,10.3381579 C18.3,9.33552632 18.7065789,8.38026316 18.9631579,7.50394737 C19.0815789,7.10526316 19.5513158,6.87631579 19.9618421,7.12105263 C26.4118421,10.9065789 48.8723684,22.3342105 80.1118421,11.9802632 C80.7118421,11.7828947 81.3907895,11.9723684 81.8092105,12.4460526 C81.9118421,12.5605263 82.0105263,12.6789474 82.1092105,12.7934211 C89.0921053,21.1973684 90.7539474,21.4223684 96.1855263,24.5328947 C96.3789474,24.6434211 96.5526316,24.7855263 96.6947368,24.9552632 C96.7973684,25.0776316 96.8802632,25.2118421 96.9434211,25.3578947 C97.0618421,25.6302632 97.1684211,25.9421053 97.2552632,26.2855263 C98.4789474,30.9868421 98.3921053,41.1078947 98.8144737,43.8236842 C99.0789474,45.5328947 100.472368,47.6131579 101.897368,46.8355263 C100.95,46.8710526 100.164474,45.7657895 100.215789,44.4078947 C100.322368,41.6763158 99.8486842,28.3657895 98.3486842,23.9171053 C98.2223684,23.5421053 97.9421053,23.2342105 97.6065789,23.0368421 C91.8868421,19.6421053 90.1736842,18.9473684 82.6855263,9.87631579 C82.2710526,9.375 81.5881579,9.22894737 80.9723684,9.42631579 C48.7342105,19.8671053 27.2289474,9.23684211 19.3184211,3.91184211 C18.2960526,3.21710526 16.95,3.92368421 16.8947368,5.16710526 Z" id="Path" fill="url(#radialGradient-47)" fill-rule="nonzero"></path>
                            <path d="M100.306579,44.5855263 C100.496053,42.2881579 99.9592105,28.4565789 98.5144737,23.9605263 C98.3921053,23.5855263 98.1157895,23.2736842 97.7763158,23.0763158 C92.0486842,19.6776316 90.2486842,18.9513158 82.7447368,9.86052632 C82.3381579,9.37105263 81.6552632,9.16578947 81.0513158,9.36315789 C48.7026316,19.8434211 27.0197368,9.05526316 19.1171053,3.70657895 C18.1065789,3.02368421 16.8,3.72631579 16.7486842,4.95 C16.3381579,14.6565789 8.00921053,21.1263158 4.25131579,23.8736842 C3.80131579,24.2013158 3.58026316,24.7342105 3.64342105,25.2907895 C4.16447368,30.1144737 3.04736842,44.7197368 3.04736842,44.7197368 C2.83421053,45.5723684 2.39210526,46.1013158 1.88684211,46.3578947 C2.78289474,46.1447368 3.70657895,45.3276316 4.17631579,44.2026316 C4.81578947,41.4434211 5.06447368,29.9526316 5.30131579,25.6894737 C5.325,25.2394737 5.53026316,24.8447368 5.89342105,24.5802632 C9.56052632,21.9039474 16.8236842,16.1684211 18.3078947,6.66315789 C18.3868421,6.16973684 18.8960526,5.88157895 19.3263158,6.13815789 C25.5434211,9.87631579 48.4223684,22.0421053 80.3644737,11.3171053 C80.9723684,11.1118421 81.6710526,11.3171053 82.0776316,11.8144737 C89.5302632,20.8539474 90.8565789,20.925 96.5486842,24.2842105 C96.8802632,24.4815789 97.1565789,24.8013158 97.2828947,25.1684211 C98.7118421,29.4355263 98.5776316,41.4118421 98.925,44.0052632 C99.15,45.6868421 100.673684,47.8815789 102.15,46.9105263 C101.092105,47.0447368 100.192105,45.9355263 100.306579,44.5855263 Z" id="Path" fill="#42210B" fill-rule="nonzero"></path>
                        </g>
                        <path d="M36.7973684,84.0394737 C36.7065789,85.4881579 37.0144737,85.3657895 37.5710526,86.0881579 C37.5710526,86.0881579 43.8631579,94.7881579 62.8421053,88.8315789 C64.2157895,88.3421053 65.2026316,87.4105263 65.0605263,86.2894737 C62.6289474,67.0184211 38.2855263,69.8486842 36.7973684,84.0394737 Z" id="Path" fill="#805B2A" fill-rule="nonzero"></path>
                        <path d="M37.0776316,83.1710526 C36.6039474,84.1894737 36.7539474,85.0026316 37.0776316,85.8236842 C38.4315789,89.4 49.2947368,102.130263 63.9552632,88.7644737 C65.0486842,87.8210526 65.2223684,86.9881579 64.95,85.8118421 C64.6776316,84.6315789 60.8802632,75 50.9289474,75 C41.0723684,75 37.8986842,81.7855263 37.0776316,83.1710526 Z" id="Path" fill="#FFFFFF" fill-rule="nonzero"></path>
                        <circle id="Oval" fill="url(#linearGradient-48)" fill-rule="nonzero" cx="51.2881579" cy="83.1671053" r="8.25789474"></circle>
                        <circle id="Oval" fill="url(#radialGradient-49)" fill-rule="nonzero" cx="51.2881579" cy="83.1671053" r="4.15657895"></circle>
                        <circle id="Oval" fill="#FFFFFF" fill-rule="nonzero" cx="49.2789474" cy="81.0236842" r="1.95"></circle>
                        <path d="M112.792105,84.0394737 C112.882895,85.4881579 112.575,85.3657895 112.018421,86.0881579 C112.018421,86.0881579 105.726316,94.7881579 86.7473684,88.8315789 C85.3736842,88.3421053 84.3868421,87.4105263 84.5289474,86.2894737 C86.9605263,67.0184211 111.303947,69.8486842 112.792105,84.0394737 Z" id="Path" fill="#805B2A" fill-rule="nonzero"></path>
                        <path d="M112.511842,83.1710526 C112.985526,84.1894737 112.835526,85.0026316 112.511842,85.8236842 C111.157895,89.4 100.294737,102.130263 85.6342105,88.7644737 C84.5407895,87.8210526 84.3671053,86.9881579 84.6394737,85.8118421 C84.9118421,84.6315789 88.7092105,75 98.6605263,75 C108.513158,75 111.690789,81.7855263 112.511842,83.1710526 Z" id="Path" fill="#FFFFFF" fill-rule="nonzero"></path>
                        <circle id="Oval" fill="url(#linearGradient-50)" fill-rule="nonzero" cx="98.2973684" cy="83.1671053" r="8.25789474"></circle>
                        <circle id="Oval" fill="url(#radialGradient-51)" fill-rule="nonzero" cx="98.2973684" cy="83.1671053" r="4.15657895"></circle>
                        <circle id="Oval" fill="#FFFFFF" fill-rule="nonzero" cx="96.4026316" cy="81.0236842" r="1.95"></circle>
                        <path d="M107.238158,67.9815789 C101.846053,66.6039474 96.1381579,67.0105263 91.2118421,68.9052632 C89.6802632,69.4934211 87.9592105,68.7315789 87.3671053,67.1960526 C86.7789474,65.6644737 87.5407895,63.9434211 89.0763158,63.3513158 C89.2342105,63.2921053 89.3960526,63.2447368 89.5578947,63.2092105 L89.625,63.1973684 C95.9960526,61.95 102.552632,62.6960526 108.225,65.2381579 C108.963158,65.5657895 109.290789,66.4302632 108.963158,67.1684211 C108.667105,67.8276316 107.944737,68.1592105 107.269737,67.9855263 L107.238158,67.9815789 Z" id="Path" fill="#805B2A" fill-rule="nonzero"></path>
                        <path d="M42.7618421,65.2421053 C48.4342105,62.7039474 54.9907895,61.9539474 61.3618421,63.2013158 L61.4131579,63.2131579 C63.0236842,63.5289474 64.0776316,65.0921053 63.7618421,66.7026316 C63.4460526,68.3131579 61.8828947,69.3671053 60.2723684,69.0513158 C60.1065789,69.0197368 59.9289474,68.9684211 59.775,68.9092105 C54.8486842,67.0144737 49.1447368,66.6078947 43.7486842,67.9855263 L43.7210526,67.9934211 C42.9394737,68.1947368 42.1421053,67.7210526 41.9447368,66.9394737 C41.7671053,66.2368421 42.1263158,65.5263158 42.7618421,65.2421053 Z" id="Path" fill="#805B2A" fill-rule="nonzero"></path>
                        <g id="Group" stroke-width="1" fill="none" fill-rule="evenodd" transform="translate(59.210526, 118.421053)">
                            <path d="M15.7894737,8.49868421 C4.53947368,8.49868421 4.16052632,2.03289474 4.16052632,2.03289474 C4.16052632,2.03289474 4.43684211,14.9644737 15.7894737,14.9644737 C27.1421053,14.9644737 27.4184211,2.03289474 27.4184211,2.03289474 C27.4184211,2.03289474 27.0394737,8.49868421 15.7894737,8.49868421 Z" id="Path" fill="url(#radialGradient-52)" fill-rule="nonzero"></path>
                            <path d="M28.0027224,0.0907894737 C28.0027224,0.0907894737 28.1565789,10.0618421 15.7894737,10.0618421 C3.42236842,10.0618421 3.57626953,0.0907894737 3.57626953,0.0907894737 C3.57626953,0.0907894737 6.28815789,3.12631579 15.7894737,3.12631579 C25.2907895,3.12631579 28.0027224,0.0907894737 28.0027224,0.0907894737 Z" id="Path" fill="url(#radialGradient-53)" fill-rule="nonzero"></path>
                            <path d="M4.42105263,0.0907894737 C3.75394737,0.0907894737 3.36710526,0.797368421 3.69473684,1.36973684 C6.13026316,5.60131579 11.7157895,6.88026316 15.7894737,6.88026316 C20.2144737,6.88026316 25.4447368,5.60131579 27.8842105,1.36973684 C28.2118421,0.801315789 27.825,0.0907894737 27.1578947,0.0907894737 C19.6381579,0.584210526 12.0592105,0.619736842 4.42105263,0.0907894737 Z" id="Path" fill="url(#radialGradient-54)" fill-rule="nonzero"></path>
                        </g>
                        <g id="Group" stroke-width="1" fill="none" fill-rule="evenodd" transform="translate(19.736842, 47.368421)">
                            <path d="M109.211842,20.2776316 L109.705263,15.2210526 C108.556579,8.25 84.8092105,2.76315789 55.3460526,2.76315789 C25.1447368,2.76315789 1.35789474,8.26973684 1.35789474,15.4894737 C1.35789474,15.9552632 1.81184211,20.6447368 1.97368421,21.1855263 C3.07105263,14.1118421 20.3960526,8.27368421 55.3460526,8.27368421 C72.8605263,8.27368421 105.757895,10.7881579 109.211842,20.2776316 Z" id="Path" fill="url(#radialGradient-55)" fill-rule="nonzero"></path>
                            <path d="M109.282895,19.7802632 L109.705263,15.2210526 C108.556579,8.25 84.8092105,2.76315789 55.3460526,2.76315789 C25.1447368,2.76315789 1.35789474,8.26973684 1.35789474,15.4894737 C1.35789474,15.9552632 1.73684211,20.1039474 1.89868421,20.6447368 C2.99605263,13.5710526 20.3921053,7.70921053 55.3460526,7.70921053 C72.8605263,7.70921053 105.828947,10.2868421 109.282895,19.7802632 Z" id="Path" fill="url(#radialGradient-56)" fill-rule="nonzero"></path>
                            <path d="M109.35,19.2789474 L109.701316,15.2210526 C108.552632,8.25 84.8052632,2.76315789 55.3421053,2.76315789 C25.1407895,2.76315789 1.35394737,8.26973684 1.35394737,15.4894737 C1.35394737,15.9552632 1.65789474,19.5631579 1.82368421,20.1039474 C2.92105263,13.0302632 20.3921053,7.14473684 55.3421053,7.14473684 C72.8605263,7.14473684 105.896053,9.78552632 109.35,19.2789474 Z" id="Path" fill="url(#radialGradient-57)" fill-rule="nonzero"></path>
                            <path d="M109.421053,18.7776316 L109.701316,15.2210526 C108.552632,8.25 84.8052632,2.76315789 55.3421053,2.76315789 C25.1407895,2.76315789 1.35394737,8.26973684 1.35394737,15.4894737 C1.35394737,15.9552632 1.58289474,19.0223684 1.74868421,19.5631579 C2.84605263,12.4894737 20.3921053,6.58026316 55.3421053,6.58026316 C72.8605263,6.58026316 105.967105,9.28815789 109.421053,18.7776316 Z" id="Path" fill="url(#radialGradient-58)" fill-rule="nonzero"></path>
                            <path d="M109.492105,18.2802632 L109.705263,15.2210526 C108.556579,8.25 84.8092105,2.76315789 55.3460526,2.76315789 C25.1447368,2.76315789 1.35789474,8.26973684 1.35789474,15.4894737 C1.35789474,15.9552632 1.51184211,18.4815789 1.67763158,19.0223684 C2.775,11.9486842 20.3960526,6.01578947 55.3460526,6.01578947 C72.8605263,6.01578947 106.038158,8.78684211 109.492105,18.2802632 Z" id="Path" fill="url(#radialGradient-59)" fill-rule="nonzero"></path>
                            <path d="M109.563158,17.7789474 L109.705263,15.2210526 C108.556579,8.25 84.8092105,2.76315789 55.3460526,2.76315789 C25.1447368,2.76315789 1.35789474,8.26973684 1.35789474,15.4894737 C1.35789474,15.9552632 1.44078947,17.9407895 1.60263158,18.4815789 C2.7,11.4078947 20.3960526,5.45131579 55.3460526,5.45131579 C72.8605263,5.45131579 106.109211,8.28552632 109.563158,17.7789474 Z" id="Path" fill="url(#radialGradient-60)" fill-rule="nonzero"></path>
                            <path d="M109.634211,17.2776316 L109.705263,15.2210526 C108.556579,8.25 84.8092105,2.76315789 55.3460526,2.76315789 C25.1447368,2.76315789 1.35789474,8.26973684 1.35789474,15.4894737 C1.35789474,15.9552632 1.36578947,17.4039474 1.52763158,17.9407895 C2.625,10.8671053 20.3960526,4.88684211 55.3460526,4.88684211 C72.8605263,4.89078947 106.180263,7.78421053 109.634211,17.2776316 Z" id="Path" fill="url(#radialGradient-61)" fill-rule="nonzero"></path>
                            <path d="M109.705263,16.7802632 L109.705263,15.2210526 C108.556579,8.25 84.8092105,2.76315789 55.3460526,2.76315789 C25.1447368,2.76315789 1.35789474,8.26973684 1.35789474,15.4894737 C1.35789474,15.9552632 1.29078947,16.8631579 1.45263158,17.4 C2.55,10.3263158 20.3921053,4.32236842 55.3460526,4.32236842 C72.8605263,4.32631579 106.251316,7.28684211 109.705263,16.7802632 Z" id="Path" fill="#603813" fill-rule="nonzero"></path>
                        </g>
                        <path d="M141.185526,27.4657895 C130.263158,17.5973684 102.122368,0 75,0 C47.8776316,0 19.7368421,17.5973684 8.81447368,27.4657895 C-5.32907052e-15,37.3342105 8.49078947,45.5605263 20.7592105,47.3684211 L75,39.4736842 L129.240789,47.3684211 C141.509211,45.5605263 150,37.3342105 141.185526,27.4657895 Z" id="Path" fill="url(#radialGradient-62)" fill-rule="nonzero"></path>
                        <path d="M74.8223684,29.7197368 C45.6197368,29.7197368 22.2710526,34.5789474 19.425,41.6644737 C19.5907895,50.1947368 19.7368421,60.9986842 20.3526316,64.1881579 C20.3526316,56.5578947 44.7157895,51.1934211 74.9171053,51.1934211 C104.597368,51.1934211 129.106579,56.4118421 129.935526,63.8565789 C130.677632,56.6565789 130.894737,49.3302632 131.175,42.0789474 C129.075,34.7328947 104.625,29.7197368 74.8223684,29.7197368 Z" id="Path" fill="url(#radialGradient-63)" fill-rule="nonzero"></path>
                        <path d="M74.8776316,50.8263158 C64.6815789,50.6171053 50.4513158,51.6552632 39.5960526,54.5605263 C43.05,61.0578947 55.2631579,69.0789474 75,69.0789474 C94.7368421,69.0789474 106.95,61.0578947 110.403947,54.5605263 C99.5486842,51.6552632 85.0736842,50.6171053 74.8776316,50.8263158 Z" id="Path" fill="#000000" fill-rule="nonzero"></path>
                        <path d="M74.8776316,50.8223684 C64.6815789,50.6368421 50.4513158,51.5644737 39.5960526,54.1539474 C43.05,59.9526316 55.2631579,67.1052632 75,67.1052632 C94.7368421,67.1052632 106.95,59.9486842 110.403947,54.1539474 C99.5486842,51.5644737 85.0736842,50.6368421 74.8776316,50.8223684 Z" id="Path" fill="url(#linearGradient-64)" fill-rule="nonzero"></path>
                        <path d="M74.9289474,40.3381579 C56.7513158,40.3381579 40.8276316,42.4894737 31.5789474,45.9986842 C26.6565789,47.9486842 28.0973684,53.2894737 31.5789474,52.0894737 C40.5434211,48.7539474 56.5578947,46.6894737 74.9328947,46.6894737 C93.1776316,46.6894737 109.286842,48.7381579 118.421053,52.05 C121.626316,53.1039474 122.786842,47.5302632 118.421053,45.9947368 C109.042105,42.4894737 93.0276316,40.3381579 74.9289474,40.3381579 Z" id="Path" fill="#000000" fill-rule="nonzero"></path>
                        <ellipse id="Oval" fill="url(#radialGradient-65)" fill-rule="nonzero" cx="119.036842" cy="49.3421053" rx="2.83815789" ry="3.99078947"></ellipse>
                        <ellipse id="Oval" fill="url(#radialGradient-66)" fill-rule="nonzero" cx="30.2210526" cy="49.3421053" rx="2.89342105" ry="4.06973684"></ellipse>
                        <path d="M90.3789474,13.2947368 L90.3789474,9.10657895 C84.8684211,8.57368421 79.7328947,6.90789474 75.0118421,4.00657895 L75.0118421,3.94736842 C74.9960526,3.95921053 74.9763158,3.96710526 74.9565789,3.975 C74.9407895,3.96710526 74.9210526,3.95921053 74.9052632,3.94736842 L74.9052632,4.00657895 C70.1842105,6.90789474 65.0486842,8.57368421 59.5381579,9.10657895 L59.5381579,13.2986842 C62.7394737,14.8263158 63.9434211,15.4460526 63.9434211,18.3473684 C63.9434211,21.8921053 59.8578947,23.5065789 61.3657895,28.7723684 C64.0184211,35.9921053 72.525,33.2723684 74.9052632,37.4565789 L74.9052632,37.5868421 C74.9171053,37.5592105 74.9447368,37.5473684 74.9605263,37.5236842 C74.9763158,37.5513158 75,37.5631579 75.0157895,37.5868421 L75.0157895,37.4526316 C77.3960526,33.2684211 85.9026316,35.9881579 88.5552632,28.7684211 C90.0592105,23.5026316 85.9776316,21.8921053 85.9776316,18.3434211 C85.9736842,15.4460526 87.1776316,14.8223684 90.3789474,13.2947368 Z" id="Path" fill="url(#radialGradient-67)" fill-rule="nonzero"></path>
                        <ellipse id="Oval" fill="url(#radialGradient-68)" fill-rule="nonzero" cx="74.9605263" cy="20.7631579" rx="7.73684211" ry="10.7447368"></ellipse>
                        <g id="Group" stroke-width="1" fill="none" fill-rule="evenodd" transform="translate(63.157895, 94.736842)">
                            <path d="M12,9.18947368 C8.88947368,9.18947368 6.35921053,8.4 4.79605263,7.54342105 C3.64736842,6.91184211 2.48289474,7.20394737 3.24473684,9.18157895 C4.275,11.8618421 6.63157895,15.0236842 12,15.0236842 C17.2776316,15.0236842 19.6421053,11.9723684 20.7,9.31973684 C21.5131579,7.28289474 20.3407895,7.07763158 19.3421053,7.54736842 C17.4157895,8.44736842 15.0315789,9.18947368 12,9.18947368 Z" id="Path" fill="url(#radialGradient-69)" fill-rule="nonzero"></path>
                            <path d="M23.1868421,6.05921053 C23.1157895,9.04736842 18.1105263,11.3447368 12.0118421,11.1986842 C5.91315789,11.0486842 1.03026316,8.51052632 1.10131579,5.52236842 C1.17236842,2.53421053 6.17763158,0.236842105 12.2763158,0.382894737 C18.375,0.532894737 23.2578947,3.075 23.1868421,6.05921053 Z" id="Path" fill="url(#radialGradient-70)" fill-rule="nonzero"></path>
                            <ellipse id="Oval" fill="url(#radialGradient-71)" fill-rule="nonzero" cx="12.3039474" cy="5.60131579" rx="5.56973684" ry="3.675"></ellipse>
                        </g>
                        <path d="M75.0592105,109.342105 L75.0592105,109.342105 C75.0394737,109.342105 75.0197368,109.342105 75,109.342105 C74.9802632,109.342105 74.9605263,109.342105 74.9407895,109.342105 L74.9407895,109.342105 C53.9960526,109.026316 50.8223684,117.359211 50.8223684,121.081579 C50.8223684,122.542105 52.5473684,122.763158 53.3368421,121.527632 C53.9368421,120.623684 56.3684211,119.242105 59.6210526,119.198684 C68.4157895,119.084211 66.8407895,119.084211 74.4907895,119.084211 C81.5328947,119.084211 83.6052632,119.084211 89.6842105,119.084211 C92.9368421,119.084211 96.0592105,120.623684 96.6592105,121.527632 C97.4486842,122.763158 99.1736879,122.542105 99.1736879,121.081579 C99.1776316,117.359211 96.0039474,109.026316 75.0592105,109.342105 Z" id="Path" fill="url(#radialGradient-72)" fill-rule="nonzero"></path>
                    </g>
                </g>
            </g>
        </g>
    </g>
</svg>