<?xml version="1.0" encoding="UTF-8"?>
<svg width="121px" height="120px" viewBox="0 0 121 120" version="1.1" xmlns="http://www.w3.org/2000/svg" xmlns:xlink="http://www.w3.org/1999/xlink">
    <title>figma</title>
    <defs>
        <radialGradient cx="50%" cy="47.2900391%" fx="50%" fy="47.2900391%" r="71.9203856%" id="radialGradient-1">
            <stop stop-color="#FFFFFF" stop-opacity="0" offset="0%"></stop>
            <stop stop-color="#FFFFFF" stop-opacity="0.5" offset="100%"></stop>
        </radialGradient>
        <path d="M113.333333,0 L6.66666667,0 C2.98333333,0 0,2.98333333 0,6.66666667 L0,113.333333 C0,117.016667 2.98333333,120 6.66666667,120 L113.333333,120 C117.016667,120 120,117.016667 120,113.333333 L120,6.66666667 C120,2.98666667 117.013333,0 113.333333,0 Z" id="path-2"></path>
    </defs>
    <g id="Page-1" stroke="none" stroke-width="1" fill="none" fill-rule="evenodd">
        <g id="Artboard" transform="translate(-832.000000, -1592.000000)" fill-rule="nonzero">
            <g id="figma" transform="translate(832.006667, 1592.000000)">
                <g id="Path">
                    <use fill="#2F2861" xlink:href="#path-2"></use>
                    <use fill-opacity="0.58" fill="url(#radialGradient-1)" style="mix-blend-mode: overlay;" xlink:href="#path-2"></use>
                </g>
                <path d="M45.8726437,47.052893 L49.6365244,47.052893 L59.0462264,47.052893 L59.0462264,73.4000584 L45.8726437,73.4000584 C38.6083538,73.4000584 32.699061,67.4907656 32.699061,60.2264757 C32.699061,52.9621859 38.6083538,47.052893 45.8726437,47.052893 Z" id="Path" fill="#A700FF"></path>
                <path d="M72.2198091,47.052893 C64.9442403,47.052893 59.0462264,52.9509069 59.0462264,60.2264757 C59.0462264,67.5020446 64.9442403,73.4000584 72.2198091,73.4000584 C79.4953779,73.4000584 85.3933918,67.5020446 85.3933918,60.2264757 C85.3933918,52.9509069 79.4953779,47.052893 72.2198091,47.052893 Z" id="Path" fill="#00D1FF"></path>
                <path d="M45.8726437,73.4000584 L59.0462264,73.4000584 L59.0462264,86.5736411 C59.0462264,93.837931 53.1369336,99.7472238 45.8726437,99.7472238 C38.6083538,99.7472238 32.699061,93.837931 32.699061,86.5736411 C32.699061,79.3093513 38.6083538,73.4000584 45.8726437,73.4000584 Z" id="Path" fill="#00FF6D"></path>
                <path d="M45.6850799,20.7057276 L75.3674087,20.7057276 C82.5282706,20.7057276 88.3534276,26.6150205 88.3534276,33.8793103 C88.3534276,41.1436002 82.5282706,47.052893 75.3674087,47.052893 L62.3813899,47.052893 L45.6850799,47.052893 C38.524218,47.052893 32.699061,41.1436002 32.699061,33.8793103 C32.699061,26.6150205 38.524218,20.7057276 45.6850799,20.7057276 Z" id="Path" fill="#FF7171"></path>
                <path d="M59.227061,20.7049435 L59.227061,47.0519435 L45.6850799,47.052893 C38.524218,47.052893 32.699061,41.1436002 32.699061,33.8793103 C32.699061,26.6150205 38.524218,20.7057276 45.6850799,20.7057276 L59.227061,20.7049435 Z" id="Combined-Shape" fill="#FF3100"></path>
            </g>
        </g>
    </g>
</svg>