<?xml version="1.0" encoding="UTF-8"?>
<svg width="544px" height="56px" viewBox="0 0 544 56" version="1.1" xmlns="http://www.w3.org/2000/svg" xmlns:xlink="http://www.w3.org/1999/xlink">
    <title>follow-up-logo</title>
    <defs>
        <polygon id="path-1" points="0.000120069444 0.890915278 52.5039667 0.890915278 52.5039667 49.6865973 0.000120069444 49.6865973"></polygon>
    </defs>
    <g id="Page-1" stroke="none" stroke-width="1" fill="none" fill-rule="evenodd">
        <g id="Artboard" transform="translate(-192.000000, -8243.000000)">
            <g id="follow-up-logo" transform="translate(192.111111, 8243.739417)">
                <g id="Group-5">
                    <mask id="mask-2" fill="white">
                        <use xlink:href="#path-1"></use>
                    </mask>
                    <g id="Clip-4"></g>
                    <path d="M47.2534499,0.890675139 L5.25075688,0.890675139 C2.35708326,0.890675139 0.031338125,3.24763833 0.031338125,6.14131194 L0.000120069444,47.0573765 C0.000120069444,49.3963293 2.83015688,50.564605 4.48111174,48.9136501 L10.500193,42.8933682 L47.2534499,42.8933682 C50.1459228,42.8933682 52.5040867,40.536405 52.5040867,37.6439321 L52.5040867,6.14131194 C52.5040867,3.24763833 50.1459228,0.890675139 47.2534499,0.890675139 M18.3767485,21.8920217 C18.3767485,23.3388585 17.1976666,24.5179404 15.7508298,24.5179404 C14.3051937,24.5179404 13.1261117,23.3388585 13.1261117,21.8920217 C13.1261117,20.4451849 14.3051937,19.2673036 15.7508298,19.2673036 C17.1976666,19.2673036 18.3767485,20.4451849 18.3767485,21.8920217 M28.8768215,21.8920217 C28.8768215,23.3388585 27.6977395,24.5179404 26.2521034,24.5179404 C24.8052666,24.5179404 23.6261847,23.3388585 23.6261847,21.8920217 C23.6261847,20.4451849 24.8052666,19.2673036 26.2521034,19.2673036 C27.6977395,19.2673036 28.8768215,20.4451849 28.8768215,21.8920217 M39.3780951,21.8920217 C39.3780951,23.3388585 38.1990131,24.5179404 36.7521763,24.5179404 C35.3065402,24.5179404 34.1274583,23.3388585 34.1274583,21.8920217 C34.1274583,20.4451849 35.3065402,19.2673036 36.7521763,19.2673036 C38.1990131,19.2673036 39.3780951,20.4451849 39.3780951,21.8920217" id="Fill-3" fill="#FF3B30" mask="url(#mask-2)"></path>
                </g>
                <path d="M72.6843984,43.6547285 L72.6843984,24.4772369 L92.0672088,24.4772369 L92.0672088,20.9051709 L72.6843984,20.9051709 L72.6843984,5.03559243 L93.7649908,5.03559243 L93.7649908,1.40589312 L68.7028956,1.40589312 L68.7028956,43.6547285 L72.6843984,43.6547285 Z M109.985172,44.1530167 C118.271164,44.1530167 123.863999,38.0919112 123.863999,28.429923 C123.863999,18.7391181 118.271164,12.7068292 109.985172,12.7068292 C101.729197,12.7068292 96.1075456,18.7391181 96.1075456,28.429923 C96.1075456,38.0919112 101.69918,44.1530167 109.985172,44.1530167 L109.985172,44.1530167 Z M109.985172,40.7274355 C104.012918,40.7274355 100.060232,36.1587931 100.060232,28.429923 C100.060232,20.6998522 104.012918,16.1324105 109.985172,16.1324105 C115.958627,16.1324105 119.94013,20.6998522 119.94013,28.429923 C119.94013,36.1587931 115.958627,40.7274355 109.985172,40.7274355 L109.985172,40.7274355 Z M129.280332,43.6547285 L133.145367,43.6547285 L133.145367,1.40589312 L129.280332,1.40589312 L129.280332,43.6547285 Z M140.347132,43.6547285 L144.212168,43.6547285 L144.212168,1.40589312 L140.347132,1.40589312 L140.347132,43.6547285 Z M163.507328,44.1530167 C171.792119,44.1530167 177.384954,38.0919112 177.384954,28.429923 C177.384954,18.7391181 171.792119,12.7068292 163.507328,12.7068292 C155.250152,12.7068292 149.6285,18.7391181 149.6285,28.429923 C149.6285,38.0919112 155.221335,44.1530167 163.507328,44.1530167 L163.507328,44.1530167 Z M163.507328,40.7274355 C157.533873,40.7274355 153.581187,36.1587931 153.581187,28.429923 C153.581187,20.6998522 157.533873,16.1324105 163.507328,16.1324105 C169.479582,16.1324105 173.461085,20.6998522 173.461085,28.429923 C173.461085,36.1587931 169.479582,40.7274355 163.507328,40.7274355 L163.507328,40.7274355 Z M220.48268,13.2051174 L216.588828,13.2051174 L209.766482,39.3214223 L209.678832,39.3214223 L202.096446,13.2051174 L198.172577,13.2051174 L190.588991,39.3214223 L190.50134,39.3214223 L183.680195,13.2051174 L179.756325,13.2051174 L188.422938,43.6547285 L192.522109,43.6547285 L200.075678,18.3873147 L200.163328,18.3873147 L207.746914,43.6547285 L211.846085,43.6547285 L220.48268,13.2051174 Z M241.270303,1.40589312 L237.2888,1.40589312 L237.2888,28.8981938 C237.2888,38.0042605 243.466373,44.3283181 253.62665,44.3283181 C263.785725,44.3283181 269.993316,38.0042605 269.993316,28.8981938 L269.993316,1.40589312 L265.981796,1.40589312 L265.981796,28.6640584 C265.981796,35.7493563 261.385537,40.6097674 253.62665,40.6097674 C245.896579,40.6097674 241.270303,35.7493563 241.270303,28.6640584 L241.270303,1.40589312 Z M291.513362,12.7068292 C286.5653,12.7068292 282.700265,15.6053056 281.0313,19.6456424 L280.913632,19.6456424 L280.913632,13.2051174 L277.253915,13.2051174 L277.253915,53.7261535 L281.11895,53.7261535 L281.11895,37.3895049 L281.236619,37.3895049 C282.84675,41.342191 286.681768,44.1530167 291.601013,44.1530167 C299.242232,44.1530167 304.483264,37.9166098 304.483264,28.429923 C304.483264,18.9732535 299.213416,12.7068292 291.513362,12.7068292 L291.513362,12.7068292 Z M290.839773,40.7274355 C285.071637,40.7274355 281.11895,35.778173 281.11895,28.429923 C281.11895,21.1104897 285.071637,16.1324105 290.839773,16.1324105 C296.724376,16.1324105 300.530578,21.022839 300.530578,28.429923 C300.530578,35.8670244 296.724376,40.7274355 290.839773,40.7274355 L290.839773,40.7274355 Z M363.24525,43.6547285 L363.24525,1.40589312 L358.620175,1.40589312 L342.984732,38.560182 L342.80943,38.560182 L327.145171,1.40589312 L322.548912,1.40589312 L322.548912,43.6547285 L326.29628,43.6547285 L326.29628,8.98827854 L326.471581,8.98827854 L341.140465,43.6547285 L344.62488,43.6547285 L359.322581,8.98827854 L359.497882,8.98827854 L359.497882,43.6547285 L363.24525,43.6547285 Z M391.587642,35.0169327 C390.738751,38.3548633 387.547305,40.7562522 382.949846,40.7562522 C376.889941,40.7562522 372.996089,36.4817799 372.996089,29.6006001 L372.996089,29.3664647 L395.80328,29.3664647 L395.80328,27.7275167 C395.80328,18.6502667 390.708734,12.7068292 382.62806,12.7068292 C374.372085,12.7068292 369.013386,19.0609042 369.013386,28.5175737 C369.013386,38.1795619 374.313251,44.1530167 382.862196,44.1530167 C389.566873,44.1530167 394.514935,40.2879813 395.42266,35.0169327 L391.587642,35.0169327 Z M382.569226,16.1035938 C388.07441,16.1035938 391.734127,20.2904153 391.821778,26.2926869 L373.024906,26.2926869 C373.346692,20.2904153 377.124077,16.1035938 382.569226,16.1035938 L382.569226,16.1035938 Z M400.370722,21.3446251 C400.370722,25.5602633 403.093897,28.1081369 408.89085,29.4541153 L413.458291,30.5383424 C417.557462,31.5337181 419.051126,32.9973647 419.051126,35.632889 C419.051126,38.8243348 416.034982,40.9615709 411.46754,40.9615709 C406.900098,40.9615709 403.942788,38.7655008 403.35805,34.929282 L399.493014,34.929282 C400.020119,40.4920994 404.587561,44.1530167 411.46754,44.1530167 C418.113384,44.1530167 422.944978,40.4920994 422.944978,35.3399195 C422.944978,31.0354299 420.661257,28.6928751 414.571335,27.2292285 L409.975077,26.1462022 C405.933539,25.1796431 404.206941,23.6283459 404.206941,21.1393063 C404.206941,18.0943452 407.046583,15.8982751 411.204588,15.8982751 C415.420226,15.8982751 418.172218,18.2120133 418.670506,22.0182147 L422.389057,22.0182147 C422.037253,16.484214 417.703947,12.7068292 411.204588,12.7068292 C404.850513,12.7068292 400.370722,16.3089126 400.370722,21.3446251 L400.370722,21.3446251 Z M427.51242,21.3446251 C427.51242,25.5602633 430.235595,28.1081369 436.032548,29.4541153 L440.599989,30.5383424 C444.69916,31.5337181 446.191623,32.9973647 446.191623,35.632889 C446.191623,38.8243348 443.17668,40.9615709 438.609238,40.9615709 C434.041796,40.9615709 431.084486,38.7655008 430.498547,34.929282 L426.633512,34.929282 C427.160616,40.4920994 431.728058,44.1530167 438.609238,44.1530167 C445.255082,44.1530167 450.086676,40.4920994 450.086676,35.3399195 C450.086676,31.0354299 447.802955,28.6928751 441.713033,27.2292285 L437.115574,26.1462022 C433.075237,25.1796431 431.347438,23.6283459 431.347438,21.1393063 C431.347438,18.0943452 434.188281,15.8982751 438.345085,15.8982751 C442.561924,15.8982751 445.313916,18.2120133 445.811003,22.0182147 L449.529554,22.0182147 C449.178951,16.484214 444.845645,12.7068292 438.345085,12.7068292 C431.992211,12.7068292 427.51242,16.3089126 427.51242,21.3446251 L427.51242,21.3446251 Z M464.286089,44.1530167 C468.824714,44.1530167 472.982719,41.6339598 474.6805,37.8577758 L474.768151,37.8577758 L474.768151,43.6547285 L478.456685,43.6547285 L478.456685,22.8082716 C478.456685,16.6006813 474.094562,12.7068292 467.155748,12.7068292 C460.216935,12.7068292 455.737144,16.5718647 455.29769,22.0182147 L459.045057,22.0182147 C459.718647,18.3284806 462.588307,16.1324105 467.068098,16.1324105 C471.810841,16.1324105 474.59285,18.7679348 474.59285,23.1600751 L474.59285,25.7943987 L465.106163,26.3803376 C458.079699,26.8486084 454.184646,30.0112376 454.184646,35.2222515 C454.184646,40.5509334 458.283817,44.1530167 464.286089,44.1530167 L464.286089,44.1530167 Z M465.077346,40.8150862 C460.948158,40.8150862 458.108516,38.5313653 458.108516,35.2222515 C458.108516,31.8555042 460.772857,29.7771022 465.574434,29.4541153 L474.59285,28.8393598 L474.59285,32.2073077 C474.59285,37.0377015 470.406028,40.8150862 465.077346,40.8150862 L465.077346,40.8150862 Z M497.371224,54.926848 C505.510732,54.926848 510.692929,50.242939 510.692929,43.1564403 L510.692929,13.2051174 L507.004396,13.2051174 L507.004396,19.6456424 L506.915544,19.6456424 C505.130112,15.4888383 501.23626,12.7068292 496.375848,12.7068292 C488.588144,12.7068292 483.434764,18.8844022 483.434764,28.3422723 C483.434764,37.7701251 488.588144,43.947698 496.288198,43.947698 C501.148609,43.947698 505.071278,41.1080556 506.711426,37.1841862 L506.799077,37.1841862 L506.799077,43.3029251 C506.799077,48.2810042 503.255828,51.5889174 497.546525,51.5889174 C493.125569,51.5889174 489.876489,49.4516813 488.879913,46.4655542 L484.869594,46.4655542 C485.718485,51.2671313 490.72538,54.926848 497.371224,54.926848 L497.371224,54.926848 Z M496.990604,40.5221167 C491.252485,40.5221167 487.416266,35.7205397 487.416266,28.371089 C487.416266,20.9640049 491.252485,16.1324105 496.990604,16.1324105 C502.846391,16.1324105 506.799077,21.0516556 506.799077,28.3422723 C506.799077,35.632889 502.846391,40.5221167 496.990604,40.5221167 L496.990604,40.5221167 Z M538.419365,35.0169327 C537.570474,38.3548633 534.379028,40.7562522 529.78277,40.7562522 C523.721664,40.7562522 519.827812,36.4817799 519.827812,29.6006001 L519.827812,29.3664647 L542.636204,29.3664647 L542.636204,27.7275167 C542.636204,18.6502667 537.541657,12.7068292 529.460984,12.7068292 C521.203808,12.7068292 515.84631,19.0609042 515.84631,28.5175737 C515.84631,38.1795619 521.144974,44.1530167 529.695119,44.1530167 C536.399797,44.1530167 541.347859,40.2879813 542.255584,35.0169327 L538.419365,35.0169327 Z M529.40215,16.1035938 C534.906133,16.1035938 538.56585,20.2904153 538.654701,26.2926869 L519.85783,26.2926869 C520.179616,20.2904153 523.9558,16.1035938 529.40215,16.1035938 L529.40215,16.1035938 Z" id="Fill-6" fill="#FEFEFE"></path>
            </g>
        </g>
    </g>
</svg>