<?xml version="1.0" encoding="UTF-8"?>
<svg width="121px" height="120px" viewBox="0 0 121 120" version="1.1" xmlns="http://www.w3.org/2000/svg" xmlns:xlink="http://www.w3.org/1999/xlink">
    <title>invision</title>
    <defs>
        <linearGradient x1="0%" y1="0%" x2="100%" y2="100%" id="linearGradient-1">
            <stop stop-color="#FF0070" offset="0%"></stop>
            <stop stop-color="#FF516D" offset="100%"></stop>
        </linearGradient>
        <linearGradient x1="100%" y1="0%" x2="0%" y2="100%" id="linearGradient-2">
            <stop stop-color="#FFFFFF" stop-opacity="0" offset="0%"></stop>
            <stop stop-color="#FFFFFF" stop-opacity="0.611150568" offset="19.0859921%"></stop>
            <stop stop-color="#FFFFFF" stop-opacity="0" offset="28.316215%"></stop>
            <stop stop-color="#FFFFFF" stop-opacity="0.5" offset="42.7993881%"></stop>
            <stop stop-color="#FFFFFF" stop-opacity="0" offset="100%"></stop>
        </linearGradient>
        <path d="M113.333333,0.957894737 L6.66666667,0.957894737 C2.98333333,0.957894737 0,3.94122807 0,7.6245614 L0,114.291228 C0,117.974561 2.98333333,120.957895 6.66666667,120.957895 L113.333333,120.957895 C117.016667,120.957895 120,117.974561 120,114.291228 L120,7.6245614 C120,3.9445614 117.013333,0.957894737 113.333333,0.957894737 Z" id="path-3"></path>
    </defs>
    <g id="Page-1" stroke="none" stroke-width="1" fill="none" fill-rule="evenodd">
        <g id="Artboard" transform="translate(-1018.000000, -1592.000000)" fill-rule="nonzero">
            <g id="invision" transform="translate(1018.013333, 1591.042105)">
                <g id="Path">
                    <use fill="url(#linearGradient-1)" xlink:href="#path-3"></use>
                    <use fill-opacity="0.9" fill="url(#linearGradient-2)" style="mix-blend-mode: overlay;" xlink:href="#path-3"></use>
                </g>
                <path d="M37.5333748,23.3138756 C33.9646092,23.3374163 30.4133014,25.7169825 30.3976077,30.4251165 C30.3976077,34.4427241 33.6697608,37.6467097 37.6559809,37.6467097 C38.7796555,37.6153222 44.8739394,36.5734498 44.767228,30.3147704 C44.6887591,25.6191914 41.1021403,23.2903349 37.5333748,23.3138756 Z M79.6000622,43.4215311 C74.2717037,43.8673663 68.4475662,47.5575264 64.3844529,55.1305598 L66.7630398,44.3043062 L48.3596284,44.3043062 L45.7726092,53.8186603 L54.4041882,53.8186603 L49.1075375,75.0665693 C44.6944465,84.884598 33.7570558,86.8637783 33.7570558,81.2705151 C33.8386635,78.2510319 33.55863,80.0735694 42.5480271,44.3043062 L22.109327,44.3043062 L19.5223078,53.8309203 L28.0312807,53.8309203 C22.1178644,77.9302887 21.9014849,77.8521148 21.8763748,81.6751196 C21.8763748,94.7009569 38.7581739,96.682102 47.1825949,82.8276331 L45.0124402,91.520512 L57.0770335,91.520512 L63.9798421,63.8847512 C67.9158421,47.9147607 83.7774513,51.2901977 80.0046666,63.7008389 C77.568992,72.4265805 69.1348596,92.2193749 86.6867831,92.2193749 C93.0521802,92.2193749 98.1154833,88.1214402 100.921531,78.3034114 L96.139831,76.513335 C92.3168262,87.0783876 87.6308581,85.1747321 87.6308581,81.0252967 C87.712472,78.8595551 87.8177145,78.9671579 91.6156093,65.2947368 C95.9784801,50.950622 88.4806575,42.6784683 79.6000622,43.4215311 Z" id="Shape" fill="#FFFFFF"></path>
            </g>
        </g>
    </g>
</svg>