<?xml version="1.0" encoding="UTF-8"?>
<svg width="528px" height="56px" viewBox="0 0 528 56" version="1.1" xmlns="http://www.w3.org/2000/svg" xmlns:xlink="http://www.w3.org/1999/xlink">
    <title>outbound-caller-id-logo</title>
    <defs>
        <path d="M21.3915722,0.602748611 L4.10757569,8.28359097 C2.32334375,9.07604931 1.17427917,10.8434715 1.17427917,12.7982021 L1.17427917,12.7982021 L1.17427917,24.4029139 C1.17427917,43.7352951 17.073875,52.762116 23.3967319,54.03125 L23.3967319,54.03125 C29.7195889,52.762116 45.617984,43.7352951 45.617984,24.4029139 L45.617984,24.4029139 L45.617984,12.7982021 C45.617984,10.8470736 44.4689194,9.07604931 42.6846875,8.28359097 L42.6846875,8.28359097 L25.400691,0.602748611 C24.7619215,0.319384722 24.0787264,0.177702778 23.3967319,0.177702778 L23.3967319,0.177702778 C22.7135368,0.177702778 22.029141,0.319384722 21.3915722,0.602748611 L21.3915722,0.602748611 Z" id="path-1"></path>
    </defs>
    <g id="Page-1" stroke="none" stroke-width="1" fill="none" fill-rule="evenodd">
        <g id="Artboard" transform="translate(-195.000000, -8889.000000)">
            <g id="outbound-caller-id-logo" transform="translate(195.713194, 8889.716500)">
                <path d="M82.5795615,5.21761771 C70.8091538,5.21761771 63.4020698,13.6500948 63.4020698,27.0306337 C63.4020698,40.4099719 70.8091538,48.8136323 82.5795615,48.8136323 C94.3787858,48.8136323 101.78587,40.4099719 101.78587,27.0306337 C101.78587,13.6500948 94.3499691,5.21761771 82.5795615,5.21761771 L82.5795615,5.21761771 Z M82.5795615,8.9361684 C91.8321128,8.9361684 97.6878997,15.9338156 97.6878997,27.0306337 C97.6878997,38.0974344 91.8321128,45.0950816 82.5795615,45.0950816 C73.3270101,45.0950816 67.5012406,38.0974344 67.5012406,27.0306337 C67.5012406,15.9338156 73.3270101,8.9361684 82.5795615,8.9361684 L82.5795615,8.9361684 Z M132.14783,17.6904316 L128.283995,17.6904316 L128.283995,35.7548795 C128.283995,41.4641816 124.71193,45.1827323 119.412064,45.1827323 C114.317518,45.1827323 111.447858,42.1966052 111.447858,36.8090892 L111.447858,17.6904316 L107.554006,17.6904316 L107.554006,37.4826788 C107.554006,44.3338413 111.681993,48.6383309 118.29902,48.6383309 C123.130615,48.6383309 126.790332,46.236942 128.400463,42.4895747 L128.488114,42.4895747 L128.488114,48.1400427 L132.14783,48.1400427 L132.14783,17.6904316 Z M140.492657,10.0780288 L140.492657,17.6904316 L135.954032,17.6904316 L135.954032,20.9106941 L140.492657,20.9106941 L140.492657,40.645308 C140.492657,46.1492913 142.542242,48.3153441 147.636789,48.3153441 C148.456863,48.3153441 150.095811,48.2276934 150.506448,48.1400427 L150.506448,44.8321295 C150.272313,44.8897628 148.807466,44.9485969 148.398029,44.9485969 C145.587203,44.9485969 144.357692,43.6014177 144.357692,40.4688059 L144.357692,20.9106941 L150.359964,20.9106941 L150.359964,17.6904316 L144.357692,17.6904316 L144.357692,10.0780288 L140.492657,10.0780288 Z M170.502814,48.6383309 C178.17405,48.6383309 183.386265,42.401924 183.386265,32.9152372 C183.386265,23.4285503 178.17405,17.1921434 170.532831,17.1921434 C165.76007,17.1921434 161.837402,19.8564844 160.109602,24.0433059 L160.021952,24.0433059 L160.021952,5.89120729 L156.1281,5.89120729 L156.1281,48.1400427 L159.84545,48.1400427 L159.84545,41.698317 L159.934301,41.698317 C161.74855,45.9739899 165.643603,48.6383309 170.502814,48.6383309 L170.502814,48.6383309 Z M169.771591,20.6177247 C175.627377,20.6177247 179.403561,25.4781358 179.403561,32.9152372 C179.403561,40.3811552 175.627377,45.2127497 169.771591,45.2127497 C164.032271,45.2127497 159.991934,40.2346705 159.991934,32.9152372 C159.991934,25.6246205 164.062289,20.6177247 169.771591,20.6177247 L169.771591,20.6177247 Z M200.923608,48.6383309 C209.2096,48.6383309 214.802435,42.5772253 214.802435,32.9152372 C214.802435,23.2244323 209.2096,17.1921434 200.923608,17.1921434 C192.667633,17.1921434 187.045982,23.2244323 187.045982,32.9152372 C187.045982,42.5772253 192.637616,48.6383309 200.923608,48.6383309 L200.923608,48.6383309 Z M200.923608,45.2127497 C194.951354,45.2127497 190.998668,40.645308 190.998668,32.9152372 C190.998668,25.1851663 194.951354,20.6177247 200.923608,20.6177247 C206.897063,20.6177247 210.878566,25.1851663 210.878566,32.9152372 C210.878566,40.645308 206.897063,45.2127497 200.923608,45.2127497 L200.923608,45.2127497 Z M244.373138,17.6904316 L240.508102,17.6904316 L240.508102,35.7548795 C240.508102,41.4641816 236.936036,45.1827323 231.637372,45.1827323 C226.542825,45.1827323 223.673166,42.1966052 223.673166,36.8090892 L223.673166,17.6904316 L219.779314,17.6904316 L219.779314,37.4826788 C219.779314,44.3338413 223.907301,48.6383309 230.524328,48.6383309 C235.355923,48.6383309 239.015639,46.236942 240.62577,42.4895747 L240.713421,42.4895747 L240.713421,48.1400427 L244.373138,48.1400427 L244.373138,17.6904316 Z M251.048999,48.1400427 L254.914034,48.1400427 L254.914034,30.1044115 C254.914034,24.4539434 258.456083,20.647742 263.727132,20.647742 C268.820477,20.647742 271.748971,23.6927031 271.748971,29.0213851 L271.748971,48.1400427 L275.614007,48.1400427 L275.614007,28.4066295 C275.614007,21.496633 271.514836,17.1921434 264.838975,17.1921434 C259.92093,17.1921434 256.348864,19.622349 254.796366,23.312083 L254.708716,23.312083 L254.708716,17.6904316 L251.048999,17.6904316 L251.048999,48.1400427 Z M293.649638,48.6383309 C298.567682,48.6383309 302.462735,45.7974878 304.189334,41.698317 L304.276984,41.698317 L304.276984,48.1400427 L307.966718,48.1400427 L307.966718,5.89120729 L304.072866,5.89120729 L304.072866,23.9556552 L303.985216,23.9556552 C302.373884,20.0029691 298.480032,17.1921434 293.561987,17.1921434 C285.919567,17.1921434 280.620902,23.4285503 280.620902,32.9152372 C280.620902,42.3719066 285.949584,48.6383309 293.649638,48.6383309 L293.649638,48.6383309 Z M294.323227,20.6177247 C300.12018,20.6177247 304.101683,25.5657865 304.101683,32.9152372 C304.101683,40.2935045 300.12018,45.2127497 294.323227,45.2127497 C288.467441,45.2127497 284.602405,40.3523385 284.602405,32.9152372 C284.602405,25.4781358 288.467441,20.6177247 294.323227,20.6177247 L294.323227,20.6177247 Z M344.916889,48.8136323 C354.080589,48.8136323 360.551132,43.8655705 362.044795,35.6384122 L358.033275,35.6384122 C356.773747,41.494199 351.6792,45.0950816 344.945706,45.0950816 C335.957307,45.0950816 330.189171,38.0386003 330.189171,26.9129656 C330.189171,15.9338156 335.957307,8.9361684 344.916889,8.9361684 C351.475082,8.9361684 356.861398,13.2106406 358.033275,19.3005628 L362.044795,19.3005628 C360.902935,11.0445878 353.846454,5.21761771 344.916889,5.21761771 C333.439451,5.21761771 326.09,13.6789115 326.09,26.9129656 C326.09,40.2935045 333.409434,48.8136323 344.916889,48.8136323 L344.916889,48.8136323 Z M376.331859,48.6383309 C380.870484,48.6383309 385.028489,46.1204747 386.72627,42.3430899 L386.813921,42.3430899 L386.813921,48.1400427 L390.503655,48.1400427 L390.503655,27.2935858 C390.503655,21.0871962 386.140332,17.1921434 379.201518,17.1921434 C372.262705,17.1921434 367.782914,21.0571788 367.34346,26.5035288 L371.090827,26.5035288 C371.764417,22.8137948 374.634077,20.6177247 379.113868,20.6177247 C383.856611,20.6177247 386.63862,23.253249 386.63862,27.6453892 L386.63862,30.2797128 L377.151933,30.8656517 C370.125469,31.3339226 366.231617,34.4965517 366.231617,39.7075656 C366.231617,45.0362476 370.329587,48.6383309 376.331859,48.6383309 L376.331859,48.6383309 Z M377.123116,45.3004003 C372.993928,45.3004003 370.154286,43.0166795 370.154286,39.7075656 C370.154286,36.3408184 372.818627,34.2624163 377.620204,33.9394295 L386.63862,33.324674 L386.63862,36.6926219 C386.63862,41.5230156 382.451798,45.3004003 377.123116,45.3004003 L377.123116,45.3004003 Z M397.265966,48.1400427 L401.131002,48.1400427 L401.131002,5.89120729 L397.265966,5.89120729 L397.265966,48.1400427 Z M408.333968,48.1400427 L412.199003,48.1400427 L412.199003,5.89120729 L408.333968,5.89120729 L408.333968,48.1400427 Z M440.189592,39.5034476 C439.3395,42.8401774 436.148055,45.2415663 431.551796,45.2415663 C425.490691,45.2415663 421.596839,40.9670941 421.596839,34.0859142 L421.596839,33.8517788 L444.40523,33.8517788 L444.40523,32.2128309 C444.40523,23.1355809 439.310684,17.1921434 431.23001,17.1921434 C422.972834,17.1921434 417.615336,23.5462184 417.615336,33.0028878 C417.615336,42.664876 422.914,48.6383309 431.464145,48.6383309 C438.168823,48.6383309 443.116885,44.7732955 444.02461,39.5034476 L440.189592,39.5034476 Z M431.171176,20.588908 C436.675159,20.588908 440.334876,24.7757295 440.423727,30.778001 L421.626856,30.778001 C421.948642,24.7757295 425.724826,20.588908 431.171176,20.588908 L431.171176,20.588908 Z M449.587427,48.1400427 L453.452463,48.1400427 L453.452463,29.1678698 C453.452463,24.2486247 456.204455,20.8818774 460.537761,20.8818774 C461.854923,20.8818774 462.937949,21.0871962 463.436237,21.3213316 L463.436237,17.5151302 C462.967966,17.3974622 462.060241,17.1921434 461.034848,17.1921434 C457.287481,17.1921434 454.447839,19.3882135 453.334795,23.1067642 L453.247144,23.1067642 L453.247144,17.6904316 L449.587427,17.6904316 L449.587427,48.1400427 Z M480.476493,48.1400427 L484.457995,48.1400427 L484.457995,5.89120729 L480.476493,5.89120729 L480.476493,48.1400427 Z M492.363368,5.89120729 L492.363368,48.1400427 L506.065693,48.1400427 C518.743825,48.1400427 526.092075,40.3811552 526.092075,27.0006163 C526.092075,13.6500948 518.713808,5.89120729 506.065693,5.89120729 L492.363368,5.89120729 Z M496.374888,9.52210729 L505.831557,9.52210729 C516.225969,9.52210729 522.022922,15.7873309 522.022922,27.0306337 C522.022922,38.2439191 516.225969,44.5091427 505.831557,44.5091427 L496.374888,44.5091427 L496.374888,9.52210729 Z" id="Fill-10" fill="#FEFEFE"></path>
                <g id="Group-15">
                    <mask id="mask-2" fill="white">
                        <use xlink:href="#path-1"></use>
                    </mask>
                    <g id="Clip-14"></g>
                    <polygon id="Fill-13" fill="#32D74B" mask="url(#mask-2)" points="-8.1911375 63.3966667 54.9834007 63.3966667 54.9834007 -9.18891458 -8.1911375 -9.18891458"></polygon>
                </g>
            </g>
        </g>
    </g>
</svg>