<svg width="71" height="71" viewBox="0 0 71 71" fill="none" xmlns="http://www.w3.org/2000/svg">
<rect x="0.307617" width="70.5857" height="70.5857" rx="8" fill="#9A46D1"/>
<rect x="0.307617" width="70.5857" height="70.5857" rx="8" fill="url(#paint0_linear)" fill-opacity="0.2"/>
<path d="M42.0787 29.8067C42.0787 31.9376 41.5857 33.8776 40.5998 35.6268C39.6139 37.3442 38.1509 38.7118 36.2109 39.7295C34.3026 40.7473 31.9809 41.2561 29.2458 41.2561H25.0477V51.9899H14.457V18.2142H29.2458C33.3803 18.2142 36.5448 19.2638 38.7393 21.3628C40.9655 23.4619 42.0787 26.2765 42.0787 29.8067ZM28.0532 32.9076C30.2476 32.9076 31.3449 31.874 31.3449 29.8067C31.3449 27.7395 30.2476 26.7059 28.0532 26.7059H25.0477V32.9076H28.0532Z" fill="white"/>
<path d="M50.6855 52.3716C48.8408 52.3716 47.362 51.8786 46.2488 50.8927C45.1357 49.9068 44.5791 48.6664 44.5791 47.1716C44.5791 45.645 45.1357 44.3888 46.2488 43.4029C47.362 42.3851 48.8408 41.8763 50.6855 41.8763C52.4983 41.8763 53.9612 42.3851 55.0744 43.4029C56.1875 44.3888 56.7441 45.645 56.7441 47.1716C56.7441 48.6664 56.1875 49.9068 55.0744 50.8927C53.9612 51.8786 52.4983 52.3716 50.6855 52.3716Z" fill="white"/>
<defs>
<linearGradient id="paint0_linear" x1="0.307616" y1="2.87488" x2="67.2947" y2="70.5857" gradientUnits="userSpaceOnUse">
<stop stop-color="white"/>
<stop offset="1" stop-color="#3949AB"/>
</linearGradient>
</defs>
</svg>
