<?xml version="1.0" encoding="UTF-8"?>
<svg width="62px" height="51px" viewBox="0 0 62 51" version="1.1" xmlns="http://www.w3.org/2000/svg" xmlns:xlink="http://www.w3.org/1999/xlink">
    <title>Group 3</title>
    <g id="Page-1" stroke="none" stroke-width="1" fill="none" fill-rule="evenodd">
        <g id="Artboard" transform="translate(-837.000000, -6696.000000)" fill="#2BFFD2">
            <g id="Group-3" transform="translate(837.300000, 6696.007657)">
                <path d="M26.6,49.2 L26.6,27.2 L15,27.2 L15,23.6 C15,19.3333333 15.8333333,16.1666667 17.5,14.1 C19.1666667,12.0333333 21.7333333,11 25.2,11 L25.2,11 L25.2,4.54747351e-13 C16.9333333,4.54747351e-13 10.6666667,2.43333333 6.4,7.3 C2.13333333,12.1666667 -2.27373675e-13,18.8666667 -2.27373675e-13,27.4 C-2.27373675e-13,34.3333333 1.13333333,41.6 3.4,49.2 L3.4,49.2 L26.6,49.2 Z" id="Path"></path>
                <path d="M60.4,49.2 L60.4,27.2 L48.8,27.2 L48.8,23.6 C48.8,19.3333333 49.6333333,16.1666667 51.3,14.1 C52.9666667,12.0333333 55.5333333,11 59,11 L59,11 L59,4.54747351e-13 C50.7333333,4.54747351e-13 44.4666667,2.43333333 40.2,7.3 C35.9333333,12.1666667 33.8,18.8666667 33.8,27.4 C33.8,34.3333333 34.9333333,41.6 37.2,49.2 L37.2,49.2 L60.4,49.2 Z" id="Path"></path>
            </g>
        </g>
    </g>
</svg>