<?xml version="1.0" encoding="UTF-8"?>
<svg width="510px" height="46px" viewBox="0 0 510 46" version="1.1" xmlns="http://www.w3.org/2000/svg" xmlns:xlink="http://www.w3.org/1999/xlink">
    <title>records-retention-logo</title>
    <defs>
        <polygon id="path-1" points="0.000207785989 0.954552083 42.1203611 0.954552083 42.1203611 43.0749132 0.000207785989 43.0749132"></polygon>
    </defs>
    <g id="Page-1" stroke="none" stroke-width="1" fill="none" fill-rule="evenodd">
        <g id="Artboard" transform="translate(-192.000000, -8650.000000)">
            <g id="records-retention-logo" transform="translate(192.111111, 8650.778306)">
                <g id="Group-7" transform="translate(0.000000, 0.696403)">
                    <mask id="mask-2" fill="white">
                        <use xlink:href="#path-1"></use>
                    </mask>
                    <g id="Clip-6"></g>
                    <path d="M18.5923933,0.961996389 C8.60741826,1.24536028 0.291408542,9.56257069 0.00804465278,19.546345 C-0.298132431,30.352595 8.40690229,39.2461387 19.1459134,39.2461387 L19.1459134,36.9191929 C19.1459134,35.1337603 20.3862308,33.5608506 22.1368433,33.2030436 C22.4214078,33.1418082 22.6975676,33.0673651 22.974928,32.9929221 C27.4391099,31.7598089 30.8058572,28.3858575 32.0389703,23.9288797 C32.1134134,23.6515193 32.1878565,23.3681554 32.2490919,23.0847915 C32.6068988,21.3353797 34.1786078,20.0998651 35.9652412,20.0998651 L38.2909863,20.0998651 C38.2909863,9.36085403 29.3986433,0.655819306 18.5923933,0.961996389 L18.5923933,0.961996389 Z M19.1459134,8.61282139 C20.2001231,8.61282139 21.0598203,9.47251861 21.0598203,10.5267283 L21.0598203,20.0998651 C21.0598203,20.6089596 20.8593044,21.0952408 20.499096,21.4542485 L14.1942495,27.7578943 C13.4462169,28.5071276 12.2359169,28.5071276 11.4878842,27.7578943 C10.7386509,27.0098617 10.7386509,25.7995617 11.4878842,25.051529 L17.2308058,19.3074068 L17.2308058,10.5267283 C17.2308058,9.47251861 18.090503,8.61282139 19.1459134,8.61282139 L19.1459134,8.61282139 Z M37.3268287,23.9288797 C36.7420905,23.9288797 36.2714183,24.3851436 36.2582106,24.9686811 C36.2426016,25.6422707 36.2041794,26.4791547 36.1069231,27.0098617 C36.0036634,27.5933992 35.8079502,28.2813971 35.6590641,28.7748825 C35.537794,29.1555026 35.6434551,29.5757457 35.9292203,29.8531061 L37.2007558,31.2351054 C37.2007558,31.2351054 36.3770794,33.5020165 34.4619717,35.4171242 C32.5480648,37.3310311 30.1850981,38.2507631 30.1850981,38.2507631 L28.8991544,36.8831721 C28.6205933,36.5974068 28.2015509,36.4929464 27.8209308,36.6130158 C27.3262447,36.7631026 26.6394474,36.9576151 26.0559099,37.0608749 C25.525203,37.1593318 24.688319,37.197754 24.0147294,37.2121624 C23.438396,37.2265707 22.974928,37.6972429 22.974928,38.2807804 L22.974928,42.0041339 C22.974928,42.4772075 23.3267315,43.0751533 24.0447467,43.0751533 C28.8679363,43.0751533 33.4738002,41.1168207 36.8405474,37.787295 C40.1616683,34.4289526 42.1212016,29.8218881 42.1212016,24.9998992 C42.1212016,24.2818839 41.5232558,23.9288797 41.0501822,23.9288797 L37.3268287,23.9288797 Z" id="Fill-5" fill="#F7B500" mask="url(#mask-2)"></path>
                </g>
                <path d="M72.6843984,24.9456278 L83.2829283,24.9456278 L83.9277012,24.9456278 L93.6473227,42.2488354 L98.3324324,42.2488354 L88.0845053,24.3020556 C93.7361741,22.8372083 97.131738,18.3286007 97.131738,12.3563465 C97.131738,4.83159444 91.8618901,-8.53144715e-14 83.6059151,-8.53144715e-14 L68.7028956,-8.53144715e-14 L68.7028956,42.2488354 L72.6843984,42.2488354 L72.6843984,24.9456278 Z M72.6843984,3.57206597 L83.1364435,3.57206597 C89.2851998,3.57206597 93.0037505,6.88117986 93.0037505,12.4728139 C93.0037505,18.1232819 89.4316845,21.4023785 83.2829283,21.4023785 L72.6843984,21.4023785 L72.6843984,3.57206597 Z M123.512196,33.6122403 C122.663305,36.9501708 119.471859,39.350359 114.8744,39.350359 C108.814495,39.350359 104.920643,35.0758868 104.920643,28.1959076 L104.920643,27.9617722 L127.727834,27.9617722 L127.727834,26.3216236 C127.727834,17.2455743 122.633287,11.3021368 114.552614,11.3021368 C106.296639,11.3021368 100.937939,17.6550111 100.937939,27.1116806 C100.937939,36.7736687 106.237805,42.7471236 114.786749,42.7471236 C121.491427,42.7471236 126.439489,38.8820882 127.347214,33.6122403 L123.512196,33.6122403 Z M114.49378,14.6977007 C119.998964,14.6977007 123.65868,18.8845222 123.746331,24.8867937 L104.94946,24.8867937 C105.271246,18.8845222 109.04863,14.6977007 114.49378,14.6977007 L114.49378,14.6977007 Z M157.680357,21.4323958 C156.919117,15.9860458 152.322859,11.3021368 145.14871,11.3021368 C136.862717,11.3021368 131.38755,17.4208757 131.38755,27.0240299 C131.38755,36.7736687 136.862717,42.7471236 145.178727,42.7471236 C151.912221,42.7471236 156.860283,38.6479528 157.709174,32.8209826 L153.874156,32.8209826 C152.995248,36.7736687 149.803802,39.3215424 145.207544,39.3215424 C139.264106,39.3215424 135.340237,34.66645 135.340237,27.0240299 C135.340237,19.4992778 139.235289,14.7277181 145.178727,14.7277181 C149.980304,14.7277181 153.054082,17.6850285 153.874156,21.4323958 L157.680357,21.4323958 Z M174.895914,42.7471236 C183.181907,42.7471236 188.774741,36.6860181 188.774741,27.0240299 C188.774741,17.333225 183.181907,11.3021368 174.895914,11.3021368 C166.639939,11.3021368 161.018288,17.333225 161.018288,27.0240299 C161.018288,36.6860181 166.609922,42.7471236 174.895914,42.7471236 L174.895914,42.7471236 Z M174.895914,39.3215424 C168.92366,39.3215424 164.970974,34.7541007 164.970974,27.0240299 C164.970974,19.2951597 168.92366,14.7277181 174.895914,14.7277181 C180.869369,14.7277181 184.850872,19.2951597 184.850872,27.0240299 C184.850872,34.7541007 180.869369,39.3215424 174.895914,39.3215424 L174.895914,39.3215424 Z M193.926921,42.2488354 L197.791957,42.2488354 L197.791957,23.2766625 C197.791957,18.3574174 200.543948,14.9906701 204.877255,14.9906701 C206.195617,14.9906701 207.278644,15.1959889 207.775731,15.4301243 L207.775731,11.6239229 C207.30746,11.5062549 206.399735,11.3021368 205.375543,11.3021368 C201.628175,11.3021368 198.787332,13.4982069 197.675489,17.2155569 L197.586638,17.2155569 L197.586638,11.7992243 L193.926921,11.7992243 L193.926921,42.2488354 Z M221.712191,42.7471236 C226.631437,42.7471236 230.525289,39.9074812 232.253088,35.8083104 L232.340739,35.8083104 L232.340739,42.2488354 L236.030473,42.2488354 L236.030473,-8.53144715e-14 L232.13542,-8.53144715e-14 L232.13542,18.0656486 L232.047769,18.0656486 C230.437638,14.1129625 226.543786,11.3021368 221.624541,11.3021368 C213.983321,11.3021368 208.683456,17.5385437 208.683456,27.0240299 C208.683456,36.4819 214.012138,42.7471236 221.712191,42.7471236 L221.712191,42.7471236 Z M222.385781,14.7277181 C228.182734,14.7277181 232.165437,19.6757799 232.165437,27.0240299 C232.165437,34.4022972 228.182734,39.3215424 222.385781,39.3215424 C216.529994,39.3215424 212.66616,34.4611312 212.66616,27.0240299 C212.66616,19.5881292 216.529994,14.7277181 222.385781,14.7277181 L222.385781,14.7277181 Z M242.35453,19.9387319 C242.35453,24.1555708 245.076505,26.7022437 250.874658,28.0494229 L255.4421,29.1324493 C259.541271,30.127825 261.033734,31.5914715 261.033734,34.2269958 C261.033734,37.4184417 258.01879,39.5556778 253.451348,39.5556778 C248.883907,39.5556778 245.926596,37.3596076 245.340657,33.5245896 L241.475622,33.5245896 C242.002727,39.0874069 246.570169,42.7471236 253.451348,42.7471236 C260.097192,42.7471236 264.927586,39.0874069 264.927586,33.9340264 C264.927586,29.6307375 262.643865,27.2881826 256.553943,25.8245361 L251.957685,24.740309 C247.917348,23.7749507 246.189548,22.2224528 246.189548,19.7346139 C246.189548,16.6884521 249.029191,14.4935826 253.187196,14.4935826 C257.402834,14.4935826 260.156026,16.8061201 260.653114,20.6123215 L264.371664,20.6123215 C264.019861,15.0783208 259.686555,11.3021368 253.187196,11.3021368 C246.834321,11.3021368 242.35453,14.9030194 242.35453,19.9387319 L242.35453,19.9387319 Z M286.974737,24.9456278 L297.573267,24.9456278 L298.21804,24.9456278 L307.938862,42.2488354 L312.622771,42.2488354 L302.374844,24.3020556 C308.026513,22.8372083 311.422077,18.3286007 311.422077,12.3563465 C311.422077,4.83159444 306.152229,-8.53144715e-14 297.896254,-8.53144715e-14 L282.993235,-8.53144715e-14 L282.993235,42.2488354 L286.974737,42.2488354 L286.974737,24.9456278 Z M286.974737,3.57206597 L297.426782,3.57206597 C303.575539,3.57206597 307.294089,6.88117986 307.294089,12.4728139 C307.294089,18.1232819 303.722023,21.4023785 297.573267,21.4023785 L286.974737,21.4023785 L286.974737,3.57206597 Z M337.802535,33.6122403 C336.953644,36.9501708 333.762198,39.350359 329.165939,39.350359 C323.104834,39.350359 319.210982,35.0758868 319.210982,28.1959076 L319.210982,27.9617722 L342.018173,27.9617722 L342.018173,26.3216236 C342.018173,17.2455743 336.924827,11.3021368 328.842953,11.3021368 C320.586978,11.3021368 315.228278,17.6550111 315.228278,27.1116806 C315.228278,36.7736687 320.528144,42.7471236 329.077088,42.7471236 C335.782966,42.7471236 340.731028,38.8820882 341.637553,33.6122403 L337.802535,33.6122403 Z M328.785319,14.6977007 C334.289303,14.6977007 337.949019,18.8845222 338.03667,24.8867937 L319.239798,24.8867937 C319.561585,18.8845222 323.338969,14.6977007 328.785319,14.6977007 L328.785319,14.6977007 Z M348.869335,4.18682153 L348.869335,11.7992243 L344.331911,11.7992243 L344.331911,15.0206875 L348.869335,15.0206875 L348.869335,34.7541007 C348.869335,40.258084 350.918921,42.4253375 356.013467,42.4253375 C356.833541,42.4253375 358.47369,42.3376868 358.883127,42.2488354 L358.883127,38.9409222 C358.648991,38.9997562 357.185345,39.0573896 356.774707,39.0573896 C353.963882,39.0573896 352.734371,37.7114111 352.734371,34.5787993 L352.734371,15.0206875 L358.736642,15.0206875 L358.736642,11.7992243 L352.734371,11.7992243 L352.734371,4.18682153 L348.869335,4.18682153 Z M384.238191,33.6122403 C383.3893,36.9501708 380.197855,39.350359 375.601596,39.350359 C369.540491,39.350359 365.646639,35.0758868 365.646639,28.1959076 L365.646639,27.9617722 L388.45503,27.9617722 L388.45503,26.3216236 C388.45503,17.2455743 383.360484,11.3021368 375.27981,11.3021368 C367.022635,11.3021368 361.665136,17.6550111 361.665136,27.1116806 C361.665136,36.7736687 366.9638,42.7471236 375.513946,42.7471236 C382.218623,42.7471236 387.166685,38.8820882 388.07441,33.6122403 L384.238191,33.6122403 Z M375.220976,14.6977007 C380.72496,14.6977007 384.384676,18.8845222 384.472327,24.8867937 L365.675455,24.8867937 C365.998442,18.8845222 369.774626,14.6977007 375.220976,14.6977007 L375.220976,14.6977007 Z M393.637228,42.2488354 L397.502263,42.2488354 L397.502263,24.2132042 C397.502263,18.5627361 401.044312,14.7565347 406.31416,14.7565347 C411.408706,14.7565347 414.3372,17.8014958 414.3372,23.1301778 L414.3372,42.2488354 L418.202235,42.2488354 L418.202235,22.5154222 C418.202235,15.6054257 414.103064,11.3021368 407.427203,11.3021368 C402.507958,11.3021368 398.935892,13.7323424 397.384595,17.4208757 L397.296944,17.4208757 L397.296944,11.7992243 L393.637228,11.7992243 L393.637228,42.2488354 Z M426.399376,4.18682153 L426.399376,11.7992243 L421.861952,11.7992243 L421.861952,15.0206875 L426.399376,15.0206875 L426.399376,34.7541007 C426.399376,40.258084 428.448962,42.4253375 433.543508,42.4253375 C434.363582,42.4253375 436.003731,42.3376868 436.413168,42.2488354 L436.413168,38.9409222 C436.179032,38.9997562 434.715386,39.0573896 434.304748,39.0573896 C431.493923,39.0573896 430.264412,37.7114111 430.264412,34.5787993 L430.264412,15.0206875 L436.266683,15.0206875 L436.266683,11.7992243 L430.264412,11.7992243 L430.264412,4.18682153 L426.399376,4.18682153 Z M443.966737,5.47516667 C445.401566,5.47516667 446.572244,4.33330625 446.572244,2.89847639 C446.572244,1.46364653 445.401566,0.321786111 443.966737,0.321786111 C442.561924,0.321786111 441.390046,1.46364653 441.390046,2.89847639 C441.390046,4.33330625 442.561924,5.47516667 443.966737,5.47516667 L443.966737,5.47516667 Z M442.034819,42.2488354 L445.899855,42.2488354 L445.899855,11.7992243 L442.034819,11.7992243 L442.034819,42.2488354 Z M465.193814,42.7471236 C473.479806,42.7471236 479.072641,36.6860181 479.072641,27.0240299 C479.072641,17.333225 473.479806,11.3021368 465.193814,11.3021368 C456.937839,11.3021368 451.316187,17.333225 451.316187,27.0240299 C451.316187,36.6860181 456.907821,42.7471236 465.193814,42.7471236 L465.193814,42.7471236 Z M465.193814,39.3215424 C459.22156,39.3215424 455.268873,34.7541007 455.268873,27.0240299 C455.268873,19.2951597 459.22156,14.7277181 465.193814,14.7277181 C471.167269,14.7277181 475.148771,19.2951597 475.148771,27.0240299 C475.148771,34.7541007 471.167269,39.3215424 465.193814,39.3215424 L465.193814,39.3215424 Z M484.224821,42.2488354 L488.089856,42.2488354 L488.089856,24.2132042 C488.089856,18.5627361 491.633105,14.7565347 496.902953,14.7565347 C501.9975,14.7565347 504.924793,17.8014958 504.924793,23.1301778 L504.924793,42.2488354 L508.789828,42.2488354 L508.789828,22.5154222 C508.789828,15.6054257 504.690657,11.3021368 498.014796,11.3021368 C493.096752,11.3021368 489.524686,13.7323424 487.973389,17.4208757 L487.884537,17.4208757 L487.884537,11.7992243 L484.224821,11.7992243 L484.224821,42.2488354 Z" id="Fill-8" fill="#FEFEFE"></path>
            </g>
        </g>
    </g>
</svg>