<?xml version="1.0" encoding="UTF-8"?>
<svg width="1552px" height="681px" viewBox="0 0 1552 681" version="1.1" xmlns="http://www.w3.org/2000/svg" xmlns:xlink="http://www.w3.org/1999/xlink">
    <title>spots</title>
    <g id="Page-1" stroke="none" stroke-width="1" fill="none" fill-rule="evenodd">
        <g id="Artboard" transform="translate(-88.000000, -45.000000)" fill="#1B1932">
            <g id="spots" transform="translate(88.277483, 45.754077)">
                <circle id="Oval" transform="translate(1306.945277, 280.848213) rotate(82.000000) translate(-1306.945277, -280.848213) " cx="1306.94528" cy="280.848213" r="11.516184"></circle>
                <circle id="Oval" cx="1353.4048" cy="120.270871" r="6.47785349"></circle>
                <circle id="Oval" transform="translate(1512.154950, 116.672063) rotate(82.000000) translate(-1512.154950, -116.672063) " cx="1512.15495" cy="116.672063" r="9.35689949"></circle>
                <circle id="Oval" transform="translate(1539.246471, 667.574526) rotate(82.000000) translate(-1539.246471, -667.574526) " cx="1539.24647" cy="667.574526" r="9.35689949"></circle>
                <circle id="Oval" transform="translate(1289.624145, 637.538074) rotate(-152.000000) translate(-1289.624145, -637.538074) " cx="1289.62414" cy="637.538074" r="14.39523"></circle>
                <circle id="Oval" transform="translate(1453.985641, 20.153322) rotate(-152.000000) translate(-1453.985641, -20.153322) " cx="1453.98564" cy="20.153322" r="14.39523"></circle>
                <circle id="Oval" transform="translate(1531.282861, 427.848989) rotate(-152.000000) translate(-1531.282861, -427.848989) " cx="1531.28286" cy="427.848989" r="10.076661"></circle>
                <circle id="Oval" transform="translate(1453.985641, 560.125989) rotate(-152.000000) translate(-1453.985641, -560.125989) " cx="1453.98564" cy="560.125989" r="6.47785349"></circle>
                <circle id="Oval" transform="translate(301.833249, 58.894424) rotate(-103.000000) translate(-301.833249, -58.894424) " cx="301.833249" cy="58.8944244" r="11.516184"></circle>
                <circle id="Oval" transform="translate(215.461869, 568.756436) rotate(-103.000000) translate(-215.461869, -568.756436) " cx="215.461869" cy="568.756436" r="11.516184"></circle>
                <circle id="Oval" transform="translate(32.238178, 544.665235) rotate(-178.000000) translate(-32.238178, -544.665235) " cx="32.2381775" cy="544.665235" r="6.47785349"></circle>
                <circle id="Oval" transform="translate(137.007866, 382.929520) rotate(-103.000000) translate(-137.007866, -382.929520) " cx="137.007866" cy="382.92952" r="9.35689949"></circle>
                <circle id="Oval" transform="translate(301.833249, 371.707592) rotate(-343.000000) translate(-301.833249, -371.707592) " cx="301.833249" cy="371.707592" r="14.39523"></circle>
                <circle id="Oval" transform="translate(12.955707, 315.004969) rotate(-343.000000) translate(-12.955707, -315.004969) " cx="12.955707" cy="315.004969" r="10.076661"></circle>
                <circle id="Oval" transform="translate(67.191000, 52.204196) rotate(-343.000000) translate(-67.191000, -52.204196) " cx="67.1910003" cy="52.2041961" r="10.076661"></circle>
                <circle id="Oval" transform="translate(145.096609, 139.700607) rotate(-343.000000) translate(-145.096609, -139.700607) " cx="145.096609" cy="139.700607" r="6.47785349"></circle>
            </g>
        </g>
    </g>
</svg>