<svg width="71" height="71" viewBox="0 0 71 71" fill="none" xmlns="http://www.w3.org/2000/svg">
<rect x="0.414307" width="70.5857" height="70.5857" rx="8" fill="#9A46D1"/>
<rect x="0.414307" width="70.5857" height="70.5857" rx="8" fill="url(#paint0_linear)" fill-opacity="0.2"/>
<path d="M62.2866 46.0645V14.0913C62.2866 11.2741 60.0054 9 57.1795 9H25.1071C22.2812 9 20 11.2741 20 14.0913C20 15.449 20.5448 16.7048 21.4981 17.6552L31.0313 27.1589L32.1548 28.279C32.6315 28.5505 33.1422 28.7542 33.687 28.856C37.1598 29.467 40.5985 26.0728 39.9516 22.6107C39.8495 22.0676 39.6452 21.5585 39.3728 21.0833L38.2493 19.9632L37.4321 19.1826H52.1065V33.8115L51.2893 32.9969L50.1658 31.8768C49.6891 31.6053 49.1444 31.4016 48.5996 31.2659C45.1268 30.6889 41.688 34.0491 42.3349 37.5112C42.4371 38.0203 42.6414 38.5294 42.9137 39.0046L44.0713 40.1587L53.6046 49.6624C55.6133 51.631 58.8478 51.631 60.8226 49.6284C61.7418 48.6781 62.2866 47.3883 62.2866 46.0645" fill="white"/>
<defs>
<linearGradient id="paint0_linear" x1="0.414306" y1="2.87488" x2="67.4014" y2="70.5857" gradientUnits="userSpaceOnUse">
<stop stop-color="white"/>
<stop offset="1" stop-color="#3949AB"/>
</linearGradient>
</defs>
</svg>
